<svg width="350" height="350" viewBox="0 0 350 350" fill="none" xmlns="http://www.w3.org/2000/svg">
<path d="M174.955 96.1372L0 197.207L174.955 298.276L350 197.207L174.955 96.1372Z" fill="#C8102E"/>
<path d="M168.36 66.4581L155.259 65.1212L149.822 53L144.474 65.1212L131.283 66.4581L141.087 75.2816L138.414 88.2941L149.822 81.6096L161.319 88.2941L158.556 75.2816L168.36 66.4581Z" fill="#C5B783"/>
<path d="M268.984 66.4581L255.882 65.1212L250.446 53L245.098 65.1212L231.907 66.4581L241.8 75.2816L239.037 88.2941L250.446 81.6096L261.943 88.2941L259.18 75.2816L268.984 66.4581Z" fill="#C5B783"/>
<path d="M218.717 66.4581L205.526 65.1212L200.178 53L194.742 65.1212L181.64 66.4581L191.444 75.2816L188.681 88.2941L200.178 81.6096L211.586 88.2941L208.824 75.2816L218.717 66.4581Z" fill="#C5B783"/>
<path d="M118.093 66.4581L104.902 65.1212L99.5544 53L94.1176 65.1212L81.0161 66.4581L90.82 75.2816L88.057 88.2941L99.5544 81.6096L110.963 88.2941L108.2 75.2816L118.093 66.4581Z" fill="#C5B783"/>
<path d="M219.43 222.875C208.556 237.403 190.998 244.8 175.045 244.8C147.504 244.8 119.964 228.312 119.964 196.226C119.964 172.43 140.82 149.97 175.045 149.97C186.007 149.97 196.702 153.446 202.674 156.03L212.121 150.594V171.984L204.813 176.173C198.217 166.815 187.344 160.754 175.045 160.754C154.902 160.754 138.503 177.064 138.503 197.296C138.503 217.438 154.813 233.749 175.045 233.838C188.324 233.838 200.891 228.134 209.715 217.349L219.43 222.875ZM328.164 197.207L175.045 285.62L21.925 197.207L175.045 108.793L328.164 197.207ZM174.955 272.964L306.15 197.207L262.389 171.984L196.791 209.863V217.438C190.82 223.856 182.353 227.332 173.708 226.975L178.431 223.588L170.232 214.497L158.289 217.082L160.25 223.232C150.713 217.884 145.009 207.724 145.098 197.029L149.376 201.841L157.576 192.75L153.832 181.075L148.574 183.392C152.585 175.727 159.804 170.112 168.36 168.152L174.955 171.984L181.551 168.152C190.998 170.291 198.574 176.797 202.317 185.264L218.717 175.816V146.672L174.955 121.449L43.761 197.207L87.5223 222.43L114.26 207.011C117.112 221.538 125.758 234.283 140.107 242.661L131.283 247.742L174.955 272.964Z" fill="white"/>
<path d="M196.877 184.618V177L207.965 181.983C207.965 181.983 209.091 182.813 210.876 190.541C211.709 198.074 211.22 201.53 211.22 201.53L203.528 205.965C203.528 205.965 206.424 199.973 203.494 188.345C198.543 185.445 196.877 184.618 196.877 184.618Z" fill="#C8102E"/>
<path d="M166.945 193.553L176.61 182.897L189.603 188.594L188.16 203.019L174.111 205.95L166.945 193.553Z" fill="#C8102E"/>
</svg>
