<svg width="350" height="350" viewBox="0 0 350 350" fill="none" xmlns="http://www.w3.org/2000/svg">
<path fill-rule="evenodd" clip-rule="evenodd" d="M284.321 79.8641C285.56 152.883 279.478 210.907 258.424 252.31C240.879 286.814 211.508 310.173 176.13 325C147.731 312.472 115.418 287.825 97.5558 258.474C70.2281 213.569 63.8132 153.288 66.5957 80.0994C128.448 39.2147 223.925 37.9947 284.321 79.8641Z" fill="#1D1D1B"/>
<path fill-rule="evenodd" clip-rule="evenodd" d="M282.408 81.1077C283.632 153.215 277.481 210.19 256.689 251.079C239.36 285.153 211.03 307.641 176.093 322.283C148.05 309.911 117.333 285.863 99.6925 256.877C72.7053 212.532 66.3753 153.352 69.1231 81.077C129.768 41.1405 222.324 40.2048 282.408 81.1077Z" fill="white"/>
<path fill-rule="evenodd" clip-rule="evenodd" d="M72.2049 82.9035C130.244 46.305 213.636 42.2931 279.239 82.9035C280.358 159.608 270.573 214.084 253.509 250.297C250.233 257.249 244.947 263.658 240.077 270.007C221.21 294.603 191.821 311.703 176.179 318.771C143.432 302.502 116.423 280.362 100.311 251.672C85.2483 224.85 78.0713 192.898 74.6965 157.165C72.4926 133.832 71.6356 108.75 72.2049 82.9035Z" fill="black"/>
<path fill-rule="evenodd" clip-rule="evenodd" d="M76.1568 87.5131C75.0463 100.74 75.8243 134.66 80.3785 173.115C85.4008 215.526 99.9298 261.831 141.11 291.23C151.819 298.875 162.656 306.409 176.028 312.739C182.443 309.698 188.489 306.397 194.372 302.853C221.468 286.528 242.754 268.018 255.323 237.028C268.821 203.747 275.057 155.759 275.366 87.4796C215.58 48.9509 131.412 52.4794 76.1568 87.5131Z" fill="white"/>
<path fill-rule="evenodd" clip-rule="evenodd" d="M85.9625 192.958C139.497 155.432 213.407 155.665 264.658 193.031C270.307 162.793 272.955 127.861 272.98 88.8282C210.483 52.0913 136.383 54.8871 78.4826 88.9061C77.1943 125.072 80.9028 161.559 85.9625 192.958Z" fill="#DF2A31"/>
<path fill-rule="evenodd" clip-rule="evenodd" d="M192.696 43.1754L195.522 41.3738L194.666 43.1339L192.696 43.1754Z" fill="white"/>
<path fill-rule="evenodd" clip-rule="evenodd" d="M147.562 25L204.258 25.1305L204.366 85.0203C201.501 94.649 194.704 94.5052 188.659 94.2998C184.387 94.1546 179.866 93.9237 176.316 100.274C174.66 96.9554 172.252 94.9361 169.185 94.4942C161.123 93.3335 150.505 97.9098 147.758 83.409L147.562 25Z" fill="white"/>
<path fill-rule="evenodd" clip-rule="evenodd" d="M150.923 28.3125H201.206L201.125 84.0402C197.363 97.6613 185.207 85.8027 176.362 95.0391C169.064 85.7083 152.783 97.9466 150.923 83.0456V28.3125Z" fill="black"/>
<path fill-rule="evenodd" clip-rule="evenodd" d="M188.372 50.1675L189.566 50.176L185.454 55.7252L183.741 55.7668L188.372 50.1675Z" fill="white"/>
<path fill-rule="evenodd" clip-rule="evenodd" d="M193.665 37.6373L191.881 38.5799L190.059 37.4399L191.132 39.3025L190.13 41.0512L191.912 40.1115L193.736 41.2486L192.663 39.3861L193.665 37.6373Z" fill="white"/>
<path fill-rule="evenodd" clip-rule="evenodd" d="M178.849 30.4547L177.066 31.3972L175.243 30.2573L176.316 32.1198L175.314 33.8686L177.096 32.9288L178.92 34.0659L177.847 32.2034L178.849 30.4547Z" fill="white"/>
<path fill-rule="evenodd" clip-rule="evenodd" d="M199.497 56.043L197.714 56.9856L195.891 55.8457L196.965 57.7082L195.962 59.457L197.745 58.5173L199.568 59.6543L198.495 57.7918L199.497 56.043Z" fill="white"/>
<path fill-rule="evenodd" clip-rule="evenodd" d="M157.444 55.7457L155.661 56.6882L153.838 55.5483L154.911 57.4109L153.909 59.1597L155.691 58.2199L157.515 59.357L156.442 57.4945L157.444 55.7457Z" fill="white"/>
<path fill-rule="evenodd" clip-rule="evenodd" d="M193.971 74.3684L192.187 75.311L190.365 74.1711L191.438 76.0337L190.436 77.7823L192.218 76.8427L194.042 77.9797L192.968 76.1172L193.971 74.3684Z" fill="white"/>
<path fill-rule="evenodd" clip-rule="evenodd" d="M178.309 82.2503L176.525 83.1929L174.703 82.053L175.776 83.9155L174.774 85.6643L176.556 84.7245L178.38 85.8616L177.307 83.9991L178.309 82.2503Z" fill="white"/>
<path fill-rule="evenodd" clip-rule="evenodd" d="M162.683 74.1241L160.9 75.0666L159.078 73.9268L160.151 75.7892L159.149 77.5381L160.931 76.5983L162.754 77.7354L161.681 75.8729L162.683 74.1241Z" fill="white"/>
<path fill-rule="evenodd" clip-rule="evenodd" d="M156.904 54.8186L157.345 52.6388L159.668 50.2163L165.347 50.234L167.272 52.3693L166.399 49.5086L165.452 49.9815L162.03 49.9088L165.151 47.6541L167.424 47.5932L169.137 50.8929L171.955 50.2317L174.075 48.1548L174.442 45.1827L170.351 43.9315L168.729 39.3275L168.157 39.3559C166.817 39.8404 165.846 40.1192 165.232 40.5982C163.953 41.5944 164.017 42.8634 164.103 44.3967C164.155 45.3396 164.246 46.513 163.702 47.8858C163.654 48.0088 163.612 48.0915 163.517 48.2142C163.338 48.4405 162.857 48.4078 162.959 47.9381C163.029 47.6048 163.173 47.0509 163.236 46.7402C163.68 44.5617 161.986 41.8502 163.911 39.7316C164.403 39.1896 165.186 38.7736 166.232 38.3399C166.547 38.2091 166.939 38.0271 167.304 37.8487L167.389 37.3343L168.618 36.2445L168.919 36.3111C172.062 31.4676 175.012 35.3616 178.512 35.2802C178.684 35.2766 178.898 35.2809 179.076 35.2882C179.55 35.2951 179.5 35.7805 179.18 35.9153C176.178 36.5831 174.013 34.4094 171.943 35.4246C171.28 35.7503 170.694 36.4289 170.011 37.6067L169.933 38.4407L171.784 42.3941L175.241 42.6807L177.683 44.1566L177.985 43.7341L176.998 42.7723L176.869 42.4886L177.273 42.0798L177.478 42.1719L177.403 41.7579L177.749 41.4658L177.272 40.9206L178.346 40.4061L178.834 40.2673L178.819 39.9724C179.695 39.2331 180.536 39.6069 181.207 39.9507C181.967 40.34 182.458 40.8754 182.669 41.1938C182.782 41.3874 182.766 41.5186 182.838 41.7147C183.087 42.3845 183.106 43.0894 182.724 43.4953L181.188 44.1344L180.623 44.7296L184.352 44.7574L185.501 43.509L199.998 43.4674L198.843 44.9712L196.522 44.991L196.092 45.5278L198.34 45.5414L196.972 47.1787L195.055 47.1454L194.489 47.7542L196.502 47.7518L195.22 49.3056L186.809 49.3698L186.05 50.2034H187.878L187.165 51.0402L185.374 51.0378L184.739 51.7717L186.523 51.7689L185.804 52.6195H184.019L183.331 53.4341H185.119L184.214 54.4154L177.227 54.4046L178.337 52.4831L176.557 51.0737L178.212 49.8895L179.34 47.4209L179.644 48.9134L182.483 48.9441L182.802 47.6541L183.683 47.5904L183.77 46.3391L181.474 46.392L180.951 48.4688L180.091 48.4659L180.109 46.4839L177.87 46.4643L176.79 48.8634L175.429 49.1333L175.365 51.9054L177.273 52.6808L175.904 54.4961L176.329 57.0482L179.33 60.3625C182.408 60.9198 184.096 63.0744 184.082 67.3684L185.377 67.3797L188.144 69.231L188.248 75.6505L189.3 79.3397L184.744 76.7956L184.799 69.356L183.904 69.3007C183.59 70.5939 182.926 71.6059 181.991 72.2337L182.031 77.6631L181.921 78.3555L176.778 78.2083L176.604 80.6296L173.612 80.6239L174.31 78.0553L175.735 76.9848L179.552 76.7262L179.581 76.4562L174.164 76.3675L173.337 78.5557L170.544 78.5415L171.588 76.2731L173.379 74.5603L178.306 74.7079L178.623 74.2016L176.046 70.6629L175.136 68.0938C170.69 66.7062 168.825 63.3778 169.076 57.6769L167.741 57.6265L164.556 52.4L163.936 52.1834L163.171 53.8263L163.267 55.9947L160.593 55.9084L160.95 53.3897L161.506 52.3887L163.116 52.3778L163.288 52.1361L160.84 51.8298L159.81 52.3415L159.589 54.827L156.904 54.8186ZM175.316 65.2888L176.057 64.2824L177.223 65.2137L176.847 66.7288L178.789 64.3906L181.231 64.9135L179.895 68.3554L183.302 68.9751L180.308 70.8518L179.613 68.8057L178.972 69.1474L178.228 67.7073L176.68 67.5544L175.316 65.2888ZM173.747 55.105L173.031 56.1449L171.604 56.2118L171.558 56.9623L172.126 57.9601L172.688 59.5701L172.891 61.847L176.254 61.7663L177.425 63.0978L178.217 62.8174L177.035 61.0686L175.854 60.632L175.086 58.9749L174.224 58.7469L173.747 55.105ZM192.03 44.0428L185.739 44.0344L185.872 47.504L187.731 48.1823L189.19 47.5625L192.03 44.0428Z" fill="white"/>
<path fill-rule="evenodd" clip-rule="evenodd" d="M161.031 171.072C171.23 169.901 181.28 169.868 191.164 171.084V261.691C181.729 265.987 171.724 266.264 161.03 261.691L161.031 171.072Z" fill="black"/>
<path fill-rule="evenodd" clip-rule="evenodd" d="M205.344 172.408C217.082 174.49 227.236 177.629 235.48 182.046V256.849C227.332 267.507 216.962 275.842 205.344 282.874V172.408Z" fill="black"/>
<path fill-rule="evenodd" clip-rule="evenodd" d="M146.786 172.408C135.049 174.49 124.894 177.629 116.65 182.046V256.849C124.798 267.507 135.168 275.842 146.786 282.874V172.408Z" fill="black"/>
<path fill-rule="evenodd" clip-rule="evenodd" d="M99.3116 166.794L102.681 165.295L107.712 170.054L107.716 163.054L110.844 161.661L110.994 161.995L110.598 162.17C110.412 162.253 110.27 162.379 110.17 162.548C110.07 162.718 110.084 162.946 110.211 163.235L113.034 169.576C113.256 170.071 113.606 170.214 114.084 170.001L114.481 169.823L114.628 170.161L110.502 171.996L110.354 171.661L110.749 171.486C110.937 171.403 111.079 171.276 111.178 171.106C111.276 170.934 111.262 170.705 111.136 170.421L108.251 163.944L108.282 172.985L107.969 173.124L101.318 166.779L104.294 173.469C104.515 173.963 104.865 174.105 105.345 173.895L105.737 173.717L105.887 174.052L103.096 175.295L102.947 174.959L103.34 174.784C103.528 174.7 103.671 174.575 103.767 174.403C103.867 174.23 103.853 174.003 103.728 173.721L100.903 167.377C100.777 167.094 100.617 166.93 100.422 166.891C100.232 166.849 100.043 166.869 99.8556 166.955L99.4605 167.13L99.3116 166.794Z" fill="white"/>
<path fill-rule="evenodd" clip-rule="evenodd" d="M114.536 165.223C114.779 165.854 115.072 166.443 115.417 166.985C115.762 167.53 116.182 167.945 116.677 168.225C117.17 168.511 117.716 168.54 118.317 168.309C118.916 168.078 119.304 167.691 119.481 167.15C119.656 166.61 119.69 166.021 119.582 165.387C119.475 164.753 119.3 164.119 119.056 163.485C118.814 162.857 118.521 162.268 118.176 161.725C117.832 161.18 117.414 160.766 116.922 160.483C116.428 160.199 115.881 160.172 115.281 160.402C114.682 160.633 114.294 161.017 114.117 161.559C113.938 162.101 113.904 162.69 114.012 163.324C114.119 163.958 114.295 164.592 114.536 165.223ZM112.371 166.054C112.121 165.404 111.995 164.761 111.995 164.127C111.993 163.494 112.109 162.902 112.344 162.346C112.577 161.792 112.925 161.3 113.386 160.864C113.848 160.433 114.407 160.091 115.064 159.838C115.962 159.493 116.824 159.393 117.648 159.535C118.473 159.679 119.194 160.024 119.814 160.577C120.434 161.133 120.902 161.826 121.222 162.657C121.543 163.494 121.659 164.325 121.567 165.151C121.474 165.976 121.169 166.716 120.652 167.373C120.135 168.027 119.429 168.528 118.531 168.873C117.634 169.218 116.772 169.321 115.948 169.176C115.125 169.036 114.401 168.689 113.782 168.137C113.163 167.586 112.693 166.891 112.371 166.054Z" fill="white"/>
<path fill-rule="evenodd" clip-rule="evenodd" d="M127.995 155.462L128.923 158.495L128.559 158.606C128.349 158.178 128.07 157.819 127.721 157.53C127.372 157.241 126.987 157.046 126.566 156.946C126.146 156.849 125.731 156.86 125.322 156.988C124.837 157.135 124.428 157.397 124.097 157.775C123.765 158.156 123.563 158.681 123.492 159.357C123.419 160.029 123.53 160.844 123.824 161.809C124.015 162.431 124.25 162.968 124.526 163.421C124.806 163.872 125.117 164.227 125.465 164.486C125.811 164.748 126.187 164.906 126.591 164.973C126.995 165.034 127.415 165.001 127.849 164.867C128.417 164.695 128.866 164.38 129.197 163.93C129.526 163.483 129.783 162.879 129.964 162.123L130.416 162.218C130.228 163.313 129.873 164.125 129.351 164.65C128.829 165.173 128.239 165.537 127.583 165.737C126.915 165.943 126.26 166.01 125.619 165.943C124.975 165.879 124.389 165.693 123.854 165.389C123.32 165.086 122.858 164.683 122.468 164.186C122.079 163.686 121.787 163.121 121.593 162.493C121.402 161.862 121.322 161.236 121.357 160.605C121.39 159.977 121.539 159.39 121.8 158.845C122.061 158.3 122.433 157.822 122.918 157.408C123.402 156.996 123.987 156.685 124.672 156.477C125.066 156.357 125.402 156.29 125.677 156.285C125.955 156.273 126.259 156.287 126.588 156.321C126.959 156.357 127.198 156.357 127.305 156.326C127.573 156.243 127.683 155.99 127.632 155.573L127.995 155.462Z" fill="white"/>
<path fill-rule="evenodd" clip-rule="evenodd" d="M133.294 158.868L135.193 155.061C135.308 154.823 135.348 154.639 135.316 154.511C135.256 154.269 135.074 154.186 134.771 154.264L134.318 154.375L134.229 154.022L137.61 153.177L137.699 153.533C137.346 153.621 137.055 153.738 136.82 153.883C136.587 154.024 136.397 154.194 136.247 154.383C136.099 154.575 135.943 154.828 135.776 155.148L134.651 157.341L138.94 161.386C139.131 161.564 139.299 161.69 139.446 161.759C139.595 161.828 139.764 161.845 139.959 161.803L140.047 162.159L136.171 163.124L136.082 162.771L136.367 162.698C136.677 162.624 136.809 162.484 136.76 162.293C136.741 162.218 136.625 162.068 136.414 161.848L133.688 159.193L133.476 159.596L134.176 162.407C134.307 162.932 134.628 163.132 135.135 163.007L135.469 162.924L135.558 163.277L131.264 164.347L131.175 163.994L131.593 163.889C131.792 163.838 131.955 163.739 132.08 163.588C132.208 163.435 132.234 163.208 132.159 162.907L130.48 156.173C130.404 155.868 130.274 155.682 130.091 155.609C129.91 155.534 129.718 155.523 129.519 155.573L129.102 155.676L129.013 155.32L133.391 154.23L133.48 154.583L133.061 154.689C132.865 154.739 132.701 154.836 132.574 154.986C132.447 155.136 132.421 155.364 132.497 155.67L133.294 158.868Z" fill="white"/>
<path fill-rule="evenodd" clip-rule="evenodd" d="M140.883 157.216C141.013 157.881 141.199 158.512 141.444 159.106C141.69 159.702 142.03 160.182 142.47 160.547C142.906 160.914 143.44 161.033 144.069 160.911C144.7 160.789 145.15 160.477 145.417 159.971C145.683 159.471 145.819 158.898 145.823 158.256C145.828 157.611 145.765 156.957 145.636 156.293C145.507 155.629 145.32 155 145.074 154.405C144.831 153.808 144.489 153.33 144.055 152.962C143.618 152.598 143.084 152.476 142.454 152.598C141.823 152.721 141.374 153.032 141.106 153.538C140.836 154.039 140.7 154.611 140.696 155.256C140.691 155.898 140.754 156.554 140.883 157.216ZM138.607 157.658C138.473 156.977 138.46 156.321 138.569 155.695C138.679 155.073 138.895 154.508 139.223 154.002C139.549 153.496 139.977 153.074 140.507 152.724C141.036 152.378 141.645 152.14 142.336 152.006C143.281 151.823 144.148 151.873 144.935 152.156C145.722 152.44 146.373 152.907 146.887 153.558C147.4 154.211 147.742 154.975 147.911 155.851C148.084 156.729 148.053 157.569 147.818 158.364C147.583 159.162 147.155 159.84 146.532 160.394C145.909 160.953 145.126 161.322 144.183 161.506C143.239 161.69 142.374 161.639 141.587 161.356C140.8 161.075 140.148 160.608 139.634 159.957C139.119 159.304 138.777 158.539 138.607 157.658V157.658Z" fill="white"/>
<path fill-rule="evenodd" clip-rule="evenodd" d="M151.584 155.626L151.996 158.553C152.08 159.157 152.386 159.424 152.913 159.349C153.461 159.271 153.861 159.032 154.112 158.629C154.366 158.222 154.452 157.725 154.368 157.133C154.304 156.682 154.114 156.279 153.792 155.92C153.47 155.562 152.893 155.442 152.062 155.559L151.584 155.626ZM150.996 151.442L151.499 155.028L152.004 154.973C152.427 154.911 152.755 154.778 152.993 154.567C153.231 154.358 153.388 154.111 153.461 153.819C153.536 153.53 153.549 153.227 153.505 152.912C153.413 152.251 153.151 151.814 152.718 151.6C152.287 151.386 151.808 151.317 151.282 151.389C151.147 151.408 151.053 151.428 150.996 151.442ZM148.943 160.516L148.893 160.155L149.318 160.094C149.523 160.066 149.694 159.982 149.834 159.846C149.977 159.707 150.027 159.484 149.984 159.179L149.018 152.304C148.973 151.995 148.865 151.792 148.69 151.7C148.518 151.608 148.329 151.578 148.126 151.606L147.699 151.664L147.649 151.303L151.951 150.7C152.697 150.594 153.315 150.597 153.802 150.713C154.292 150.824 154.664 150.994 154.922 151.219C155.178 151.447 155.354 151.672 155.451 151.898C155.55 152.123 155.611 152.331 155.639 152.526C155.7 152.962 155.646 153.352 155.475 153.685C155.304 154.022 155.065 154.289 154.753 154.492C154.444 154.695 154.117 154.825 153.771 154.886L153.792 155.039C154.197 155.006 154.6 155.051 155.001 155.167C155.403 155.284 155.751 155.492 156.051 155.795C156.348 156.098 156.53 156.491 156.598 156.972C156.825 158.584 155.713 159.565 153.261 159.91L148.943 160.516Z" fill="white"/>
<path fill-rule="evenodd" clip-rule="evenodd" d="M164.782 149.253L165.004 152.418L164.624 152.445C164.514 151.981 164.324 151.57 164.049 151.211C163.774 150.847 163.443 150.572 163.053 150.38C162.668 150.19 162.26 150.11 161.833 150.141C161.327 150.174 160.871 150.338 160.463 150.633C160.054 150.927 159.74 151.397 159.517 152.037C159.295 152.676 159.219 153.496 159.29 154.5C159.335 155.15 159.444 155.729 159.612 156.229C159.783 156.732 160.005 157.149 160.286 157.48C160.565 157.811 160.895 158.053 161.274 158.206C161.654 158.356 162.071 158.417 162.524 158.387C163.116 158.345 163.625 158.142 164.049 157.778C164.47 157.413 164.857 156.885 165.201 156.187L165.622 156.382C165.19 157.408 164.662 158.117 164.036 158.512C163.409 158.903 162.753 159.126 162.068 159.173C161.372 159.223 160.717 159.143 160.108 158.934C159.497 158.725 158.965 158.414 158.514 157.997C158.06 157.58 157.702 157.085 157.434 156.51C157.167 155.937 157.008 155.323 156.962 154.664C156.918 154.008 156.982 153.38 157.157 152.773C157.331 152.17 157.607 151.631 157.984 151.158C158.361 150.685 158.83 150.304 159.398 150.01C159.961 149.718 160.601 149.546 161.316 149.496C161.726 149.468 162.068 149.479 162.339 149.535C162.612 149.585 162.902 149.668 163.218 149.776C163.571 149.893 163.804 149.949 163.915 149.941C164.195 149.921 164.357 149.701 164.403 149.282L164.782 149.253Z" fill="white"/>
<path fill-rule="evenodd" clip-rule="evenodd" d="M168.801 153.816L171.507 150.532C171.672 150.327 171.754 150.16 171.751 150.026C171.747 149.779 171.588 149.657 171.276 149.662L170.808 149.671L170.803 149.304L174.287 149.242L174.292 149.61C173.928 149.618 173.619 149.665 173.359 149.751C173.098 149.84 172.876 149.96 172.687 150.113C172.499 150.263 172.289 150.477 172.057 150.749L170.468 152.634L173.736 157.541C173.881 157.758 174.016 157.917 174.146 158.017C174.274 158.119 174.435 158.175 174.634 158.175L174.64 158.542L170.646 158.612L170.639 158.247L170.932 158.242C171.252 158.236 171.41 158.133 171.408 157.93C171.405 157.853 171.327 157.686 171.172 157.422L169.111 154.221L168.814 154.566L168.864 157.461C168.874 158.005 169.141 158.273 169.665 158.264L170.008 158.256L170.015 158.623L165.591 158.701L165.583 158.334L166.015 158.328C166.22 158.322 166.4 158.261 166.557 158.142C166.715 158.022 166.791 157.808 166.786 157.497L166.665 150.557C166.659 150.243 166.575 150.032 166.413 149.918C166.252 149.807 166.069 149.751 165.864 149.757L165.433 149.762L165.428 149.398L169.939 149.317L169.945 149.685L169.514 149.693C169.312 149.696 169.131 149.757 168.973 149.873C168.814 149.99 168.738 150.204 168.743 150.521L168.801 153.816Z" fill="white"/>
<path fill-rule="evenodd" clip-rule="evenodd" d="M178.704 152.064L177.488 155.05L179.944 155.092L178.704 152.064ZM174.83 158.453L174.837 158.089H174.914C175.098 158.091 175.248 158.066 175.37 158.011C175.492 157.958 175.603 157.85 175.707 157.694C175.812 157.541 175.923 157.316 176.047 157.021L179.342 149.04L179.644 149.045L183.081 157.633C183.25 158.033 183.5 158.239 183.832 158.244H183.87L183.863 158.612L179.595 158.537L179.601 158.172L179.994 158.178C180.345 158.184 180.577 158.144 180.692 158.056C180.805 157.972 180.862 157.85 180.864 157.692C180.866 157.63 180.838 157.519 180.781 157.355L180.139 155.701L177.236 155.648L176.667 157.032C176.579 157.21 176.534 157.391 176.532 157.569C176.528 157.794 176.623 157.944 176.816 158.019C177.013 158.091 177.274 158.131 177.599 158.136H177.648L177.641 158.503L174.83 158.453Z" fill="white"/>
<path fill-rule="evenodd" clip-rule="evenodd" d="M190.309 154.355L190.581 150.444L190.016 150.404C188.774 150.315 188.111 150.891 188.025 152.125C187.992 152.606 188.028 152.993 188.136 153.293C188.245 153.59 188.396 153.81 188.586 153.955C188.78 154.099 188.973 154.191 189.167 154.233C189.361 154.274 189.585 154.305 189.84 154.322L190.309 154.355ZM190.057 157.944L190.266 154.958C190.045 154.942 189.872 154.945 189.75 154.967C189.629 154.986 189.516 155.042 189.413 155.128C189.308 155.214 189.19 155.356 189.056 155.553L186.803 158.901L184.057 158.709L184.078 158.409C184.294 158.403 184.491 158.347 184.672 158.244C184.851 158.139 184.993 158.017 185.094 157.875L186.779 155.595C186.974 155.334 187.156 155.131 187.327 154.986C187.496 154.839 187.724 154.75 188.011 154.722L188.017 154.625C187.59 154.591 187.201 154.466 186.857 154.252C186.512 154.038 186.25 153.741 186.066 153.36C185.883 152.979 185.81 152.537 185.845 152.034C185.881 151.517 186.035 151.075 186.307 150.713C186.575 150.349 186.943 150.085 187.403 149.918C187.866 149.751 188.396 149.687 188.992 149.729L193.912 150.071L193.885 150.438L193.456 150.407C193.251 150.393 193.067 150.438 192.9 150.541C192.731 150.646 192.635 150.852 192.615 151.166L192.131 158.089C192.093 158.634 192.335 158.92 192.858 158.959L193.287 158.987L193.262 159.354L188.763 159.037L188.789 158.672L189.216 158.703C189.422 158.717 189.607 158.673 189.773 158.57C189.94 158.461 190.035 158.256 190.057 157.944Z" fill="white"/>
<path fill-rule="evenodd" clip-rule="evenodd" d="M198.355 155.387C198.26 156.06 198.232 156.716 198.269 157.358C198.307 158 198.472 158.564 198.769 159.051C199.063 159.54 199.528 159.829 200.164 159.918C200.8 160.01 201.326 159.86 201.745 159.471C202.159 159.084 202.475 158.584 202.687 157.978C202.902 157.372 203.054 156.732 203.149 156.062C203.243 155.392 203.271 154.736 203.234 154.094C203.196 153.452 203.029 152.887 202.737 152.401C202.444 151.912 201.978 151.622 201.343 151.534C200.706 151.444 200.18 151.592 199.763 151.981C199.344 152.367 199.028 152.865 198.816 153.474C198.602 154.08 198.447 154.72 198.355 155.387ZM196.058 155.064C196.154 154.377 196.356 153.752 196.661 153.199C196.967 152.643 197.356 152.178 197.832 151.809C198.304 151.436 198.846 151.175 199.461 151.019C200.074 150.863 200.729 150.835 201.425 150.933C202.379 151.066 203.181 151.397 203.833 151.923C204.484 152.445 204.948 153.102 205.221 153.886C205.494 154.67 205.57 155.504 205.445 156.385C205.321 157.272 205.018 158.056 204.537 158.731C204.057 159.41 203.433 159.91 202.661 160.233C201.889 160.558 201.03 160.652 200.078 160.519C199.126 160.383 198.322 160.054 197.672 159.532C197.02 159.009 196.554 158.356 196.281 157.572C196.007 156.788 195.933 155.954 196.058 155.064Z" fill="white"/>
<path fill-rule="evenodd" clip-rule="evenodd" d="M208.633 157.074L208.09 160.146C207.986 160.738 208.196 161.08 208.72 161.172C208.99 161.219 209.267 161.206 209.551 161.131C209.838 161.052 210.096 160.886 210.327 160.622C210.561 160.36 210.717 159.991 210.801 159.518C210.938 158.748 210.829 158.181 210.476 157.814C210.121 157.45 209.671 157.219 209.126 157.122C208.936 157.088 208.77 157.072 208.633 157.074ZM213.364 153.157L212.908 155.754L212.544 155.69C212.573 155.15 212.448 154.65 212.172 154.186C211.894 153.721 211.372 153.418 210.602 153.285L209.339 153.062L208.744 156.446C209.008 156.454 209.414 156.51 209.963 156.607C210.989 156.788 211.729 157.102 212.187 157.547C212.643 157.991 212.906 158.422 212.975 158.837C213.042 159.254 213.051 159.601 213.003 159.879C212.898 160.48 212.671 160.936 212.33 161.247C211.985 161.559 211.592 161.759 211.15 161.848C210.707 161.934 210.291 161.965 209.903 161.934C209.518 161.909 209.116 161.856 208.705 161.784L204.596 161.058L204.66 160.699L205.083 160.775C205.285 160.808 205.476 160.783 205.652 160.694C205.83 160.608 205.945 160.413 206 160.11L207.205 153.271C207.259 152.965 207.218 152.737 207.08 152.598C206.944 152.456 206.774 152.368 206.572 152.331L206.148 152.256L206.213 151.897L213.364 153.157Z" fill="white"/>
<path fill-rule="evenodd" clip-rule="evenodd" d="M217.665 163.799L217.749 163.443L218.17 163.541C218.368 163.585 218.559 163.571 218.739 163.493C218.923 163.416 219.048 163.227 219.118 162.927L220.809 155.598L218.573 155.081L217.558 159.479C217.389 160.21 217.168 160.877 216.891 161.486C216.613 162.092 216.257 162.568 215.823 162.907C215.389 163.246 214.882 163.346 214.3 163.213C213.786 163.096 213.434 162.879 213.245 162.562C213.057 162.245 213.003 161.923 213.078 161.592C213.132 161.356 213.247 161.161 213.425 161.013C213.6 160.869 213.831 160.828 214.122 160.894C214.408 160.961 214.597 161.086 214.691 161.269C214.784 161.456 214.811 161.634 214.772 161.803C214.754 161.878 214.738 161.928 214.72 161.959C214.707 161.984 214.693 162.023 214.681 162.078C214.627 162.315 214.714 162.459 214.944 162.512C215.303 162.596 215.662 162.362 216.021 161.814C216.381 161.264 216.715 160.307 217.03 158.942L217.831 155.476C217.887 155.233 217.857 155.028 217.741 154.858C217.626 154.692 217.455 154.578 217.231 154.525L216.861 154.441L216.942 154.083L224.157 155.751L224.074 156.107L223.655 156.009C223.458 155.962 223.267 155.979 223.085 156.054C222.903 156.129 222.776 156.321 222.705 156.626L221.144 163.393C221.023 163.919 221.215 164.244 221.727 164.361L222.147 164.458L222.064 164.814L217.665 163.799Z" fill="white"/>
<path fill-rule="evenodd" clip-rule="evenodd" d="M227.922 159.987L225.975 162.557L228.336 163.232L227.922 159.987ZM222.526 165.156L222.628 164.803L222.702 164.825C222.879 164.878 223.031 164.889 223.164 164.87C223.294 164.847 223.43 164.775 223.571 164.65C223.71 164.528 223.878 164.339 224.072 164.086L229.323 157.229L229.612 157.313L230.709 166.499C230.768 166.93 230.957 167.194 231.275 167.285L231.311 167.294L231.212 167.647L227.108 166.468L227.207 166.118L227.586 166.226C227.924 166.323 228.156 166.343 228.291 166.29C228.423 166.238 228.508 166.132 228.553 165.982C228.568 165.923 228.571 165.807 228.56 165.634L228.367 163.869L225.578 163.071L224.67 164.258C224.537 164.408 224.449 164.569 224.399 164.739C224.338 164.958 224.391 165.128 224.559 165.251C224.728 165.37 224.97 165.476 225.283 165.567L225.33 165.579L225.23 165.932L222.526 165.156Z" fill="white"/>
<path fill-rule="evenodd" clip-rule="evenodd" d="M240.976 161.2L239.892 164.18L239.535 164.049C239.623 163.583 239.616 163.129 239.51 162.687C239.408 162.245 239.217 161.859 238.941 161.525C238.665 161.194 238.325 160.955 237.922 160.808C237.446 160.635 236.961 160.599 236.47 160.702C235.976 160.805 235.499 161.106 235.035 161.6C234.571 162.093 234.169 162.812 233.825 163.758C233.602 164.372 233.466 164.942 233.417 165.47C233.368 165.998 233.402 166.468 233.522 166.885C233.643 167.303 233.847 167.656 234.131 167.95C234.416 168.245 234.772 168.47 235.199 168.622C235.755 168.826 236.303 168.849 236.839 168.686C237.371 168.528 237.939 168.201 238.538 167.705L238.843 168.053C238.034 168.814 237.261 169.248 236.529 169.354C235.798 169.456 235.108 169.393 234.462 169.159C233.805 168.92 233.241 168.581 232.769 168.143C232.295 167.703 231.938 167.202 231.694 166.638C231.449 166.071 231.323 165.476 231.31 164.842C231.3 164.208 231.407 163.583 231.633 162.962C231.858 162.345 232.173 161.795 232.578 161.314C232.984 160.833 233.455 160.452 233.991 160.174C234.527 159.896 235.112 159.738 235.748 159.701C236.385 159.662 237.038 159.765 237.71 160.013C238.098 160.152 238.406 160.302 238.63 160.463C238.858 160.619 239.09 160.813 239.335 161.041C239.608 161.292 239.799 161.436 239.905 161.475C240.168 161.572 240.407 161.436 240.618 161.069L240.976 161.2Z" fill="white"/>
<path fill-rule="evenodd" clip-rule="evenodd" d="M246.034 164.166L243.217 171.142C243.013 171.643 243.156 171.993 243.64 172.189L244.122 172.382L243.985 172.72L239.64 170.967L239.776 170.628L240.259 170.821C240.445 170.897 240.636 170.911 240.83 170.864C241.021 170.814 241.174 170.646 241.289 170.363L244.107 163.388L243.755 163.246C243.386 163.096 243.061 163.002 242.787 162.962C242.507 162.923 242.208 162.999 241.883 163.19C241.557 163.382 241.243 163.749 240.939 164.3L240.598 164.161L241.584 161.717L249.012 164.72L248.024 167.163L247.684 167.024C247.846 166.418 247.876 165.935 247.775 165.57C247.672 165.209 247.51 164.948 247.284 164.781C247.057 164.617 246.758 164.461 246.385 164.311L246.034 164.166Z" fill="white"/>
<path fill-rule="evenodd" clip-rule="evenodd" d="M250.288 170.524L248.923 173.327C248.66 173.866 248.767 174.255 249.245 174.49C249.493 174.609 249.765 174.672 250.059 174.677C250.355 174.683 250.648 174.592 250.943 174.403C251.238 174.213 251.491 173.902 251.7 173.472C252.015 172.827 252.068 172.271 251.863 171.801C251.656 171.331 251.29 170.969 250.763 170.71C250.601 170.634 250.443 170.569 250.288 170.524ZM245.301 173.238L245.461 172.907L245.847 173.096C246.032 173.186 246.222 173.213 246.415 173.177C246.61 173.143 246.775 172.988 246.91 172.71L249.955 166.468C250.092 166.188 250.113 165.96 250.019 165.787C249.927 165.615 249.79 165.481 249.607 165.392L249.218 165.203L249.379 164.875L253.434 166.852L253.275 167.183L252.886 166.994C252.705 166.905 252.516 166.874 252.321 166.907C252.128 166.941 251.961 167.097 251.823 167.379L250.57 169.949C250.821 170.033 251.197 170.197 251.697 170.442C252.634 170.9 253.259 171.404 253.576 171.959C253.892 172.512 254.026 172.999 253.978 173.417C253.927 173.836 253.84 174.172 253.717 174.426C253.45 174.972 253.11 175.351 252.695 175.554C252.277 175.759 251.843 175.843 251.394 175.806C250.942 175.768 250.535 175.681 250.172 175.546C249.806 175.412 249.439 175.254 249.061 175.07L245.301 173.238Z" fill="white"/>
<path fill-rule="evenodd" clip-rule="evenodd" d="M93.7588 131.569L99.573 146.271C103.275 144.452 103.367 140.388 101.954 136.888C100.544 133.385 97.2268 130.527 93.7588 131.569ZM96.1607 147.633L90.3363 132.946C86.9583 134.661 86.9832 139.348 88.1913 142.376C89.3978 145.403 92.7133 148.723 96.1607 147.633ZM92.8714 129.345C98.2569 127.374 103.603 129.712 105.845 135.336C108.089 140.958 106.166 146.012 100.618 148.431L100.828 148.959C101.344 150.252 102.113 151.144 103.56 150.569L104.37 150.243L104.866 151.489L96.0131 155.02L95.5167 153.774L96.3274 153.452C96.8293 153.252 97.4423 152.91 97.5088 152.312C97.581 151.67 97.4128 151.008 97.1767 150.413L96.9669 149.887C91.4814 151.878 86.3466 149.384 84.1879 143.971C82.0292 138.559 84.3267 133.268 89.5144 130.888L89.445 130.713C89.163 130.004 88.6389 128.731 87.9009 128.014C87.3267 127.457 86.5762 127.31 85.9963 127.541L85.1845 127.866L84.6882 126.62L93.5429 123.09L94.0391 124.335L93.2039 124.669C92.6241 124.9 92.0947 125.614 92.0447 126.379C91.9805 127.36 92.5228 128.47 92.8049 129.176L92.8714 129.345Z" fill="white"/>
<path fill-rule="evenodd" clip-rule="evenodd" d="M116.093 131.3L120.656 120.866C121.244 119.523 121.368 118.275 120.628 118.136C120.337 118.074 119.993 118.122 119.707 118.192L119.318 118.283L119.006 116.979L126.363 115.222L126.659 116.462L126.352 116.596C125.709 116.874 125.189 117.307 124.765 117.86C124.259 118.533 123.783 119.301 123.47 120.079L119.64 129.173L129.588 138.194C130.638 139.237 131.902 140.438 133.16 141.225C133.908 141.7 134.761 142.031 135.661 141.959L136.001 141.931L136.3 143.179L126.952 145.414L126.652 144.163L126.975 144.036C127.183 143.955 127.388 143.871 127.596 143.793C127.726 143.743 127.86 143.682 127.97 143.599C128.036 143.546 128.073 143.471 128.095 143.388C128.136 143.249 128.104 143.049 128.073 142.909C128.035 142.756 127.976 142.609 127.889 142.478C127.8 142.345 127.696 142.22 127.576 142.109C127.429 141.964 127.277 141.822 127.133 141.678L116.282 131.995L119.017 143.304C119.165 143.924 119.416 144.55 119.845 145.031C120.254 145.489 120.972 145.411 121.51 145.284L122.387 145.075L122.7 146.376L113.325 148.62L113.014 147.316L113.863 147.113C114.392 146.985 114.932 146.746 115.179 146.229C115.457 145.645 115.338 144.82 115.193 144.216L110.122 123.018C109.979 122.417 109.716 121.625 109.209 121.227C108.756 120.882 108.152 120.919 107.627 121.044L106.779 121.247L106.467 119.943L115.841 117.702L116.153 119.003L115.274 119.214C114.74 119.342 114.059 119.595 113.902 120.188C113.735 120.81 113.798 121.486 113.947 122.103L116.093 131.3Z" fill="white"/>
<path fill-rule="evenodd" clip-rule="evenodd" d="M225.609 129.921L234.531 122.845C235.681 121.936 236.376 120.891 235.786 120.421C235.559 120.229 235.233 120.11 234.947 120.037L234.559 119.937L234.897 118.639L242.218 120.535L241.899 121.769L241.564 121.741C240.867 121.688 240.203 121.825 239.57 122.117C238.809 122.475 238.027 122.928 237.385 123.471L229.74 129.707L234.295 142.34C234.736 143.752 235.29 145.403 236.03 146.69C236.468 147.46 237.066 148.156 237.895 148.512L238.209 148.648L237.888 149.887L228.583 147.48L228.906 146.235L229.25 146.273C229.471 146.298 229.693 146.323 229.912 146.351C230.05 146.368 230.197 146.376 230.333 146.354C230.416 146.337 230.483 146.29 230.543 146.226C230.645 146.123 230.711 145.929 230.748 145.792C230.786 145.639 230.805 145.481 230.787 145.326C230.772 145.164 230.738 145.008 230.685 144.853C230.622 144.655 230.555 144.461 230.494 144.264L225.449 130.624L222.564 141.895C222.403 142.512 222.334 143.182 222.486 143.81C222.633 144.408 223.302 144.675 223.837 144.814L224.712 145.039L224.375 146.337L215.044 143.921L215.381 142.626L216.226 142.843C216.754 142.982 217.343 143.021 217.803 142.679C218.321 142.295 218.603 141.509 218.758 140.91L224.22 119.807C224.373 119.209 224.513 118.386 224.249 117.796C224.013 117.279 223.464 117.029 222.94 116.893L222.096 116.673L222.43 115.378L231.762 117.791L231.425 119.089L230.551 118.864C230.02 118.725 229.3 118.63 228.883 119.081C228.446 119.551 228.184 120.176 228.024 120.791L225.609 129.921Z" fill="white"/>
<path fill-rule="evenodd" clip-rule="evenodd" d="M151.747 122.445L154.478 115.772C154.708 115.211 154.947 114.466 154.887 113.849C154.808 113.031 154.118 112.97 153.423 113.04L153.026 113.076L152.896 111.744L159.719 111.082L159.841 112.344L159.528 112.439C158.933 112.617 158.395 112.923 158.031 113.44C157.52 114.152 157.085 115.189 156.754 115.995L153.151 124.911L159.224 135.603C159.866 136.723 161.277 138.984 162.753 139.07L163.095 139.089L163.219 140.366L154.419 141.219L154.289 139.896L154.674 139.848C155.067 139.798 155.626 139.712 155.991 139.535C156.175 139.451 156.169 139.187 156.152 139.017C156.102 138.497 155.932 138.011 155.672 137.557L151.163 129.651L147.464 138.725C147.332 139.048 147.28 139.379 147.314 139.726C147.389 140.493 148.221 140.474 148.821 140.416L149.218 140.377L149.348 141.709L142.528 142.37L142.403 141.077L142.754 141.005C143.276 140.897 143.707 140.655 144.021 140.219C144.493 139.565 144.895 138.648 145.212 137.905L149.799 127.11L144.2 117.463C143.421 116.084 142.13 114.288 140.357 114.302L139.991 114.305L139.866 113.006L149.279 112.094L149.407 113.426L149.011 113.465C148.612 113.504 148.114 113.59 147.768 113.799C147.521 113.949 147.519 114.307 147.545 114.56C147.586 114.991 147.781 115.422 148.002 115.795L151.747 122.445Z" fill="white"/>
<path fill-rule="evenodd" clip-rule="evenodd" d="M170.99 131.097L179.534 115.147V114.788C179.534 114.152 179.436 113.496 179.137 112.923C178.854 112.375 178.125 112.289 177.575 112.289L176.694 112.289V110.949H186.311V112.289H185.428C184.877 112.289 184.148 112.378 183.863 112.925C183.564 113.496 183.465 114.152 183.465 114.788V136.587C183.465 137.224 183.564 137.88 183.863 138.453C184.148 139.003 184.875 139.092 185.428 139.092H186.311V140.432H176.694V139.092H177.575C178.127 139.092 178.854 139.006 179.138 138.45C179.436 137.88 179.534 137.224 179.534 136.587L179.534 120.01L170.99 135.92V136.587C170.99 137.224 171.086 137.88 171.385 138.453C171.672 139.006 172.402 139.092 172.956 139.092H173.833V140.432H164.217V139.092H165.09C165.642 139.092 166.378 139.006 166.661 138.45C166.958 137.88 167.058 137.224 167.058 136.587V114.788C167.058 114.152 166.958 113.496 166.661 112.923C166.378 112.375 165.639 112.289 165.09 112.289L164.217 112.289V110.949H173.833V112.289H172.956C172.404 112.289 171.672 112.375 171.385 112.925C171.087 113.496 170.989 114.152 170.989 114.788L170.99 131.097Z" fill="white"/>
<path fill-rule="evenodd" clip-rule="evenodd" d="M248.066 143.957L262.09 132.522L262.228 132.192C262.473 131.603 262.635 130.96 262.58 130.318C262.53 129.704 261.889 129.342 261.382 129.131L260.569 128.792L261.084 127.555L269.96 131.255L269.443 132.492L268.631 132.153C268.123 131.939 267.415 131.741 266.94 132.136C266.446 132.548 266.103 133.115 265.856 133.704L257.468 153.824C257.223 154.414 257.063 155.056 257.118 155.701C257.168 156.318 257.806 156.679 258.317 156.893L259.129 157.232L258.614 158.47L249.739 154.769L250.254 153.532L251.067 153.871C251.578 154.086 252.283 154.283 252.757 153.88C253.25 153.468 253.595 152.901 253.84 152.312L260.22 137.013L246.209 148.408L245.953 149.023C245.708 149.612 245.545 150.257 245.601 150.899C245.652 151.519 246.293 151.881 246.805 152.095L247.614 152.431L247.098 153.668L238.224 149.968L238.739 148.731L239.543 149.067C240.054 149.278 240.766 149.482 241.241 149.079C241.735 148.667 242.079 148.1 242.326 147.51L250.712 127.39C250.957 126.801 251.118 126.159 251.063 125.517C251.013 124.902 250.364 124.538 249.859 124.327L249.053 123.99L249.568 122.753L258.445 126.454L257.928 127.691L257.118 127.352C256.61 127.14 255.901 126.94 255.426 127.335C254.93 127.746 254.586 128.316 254.341 128.903L248.066 143.957Z" fill="white"/>
<path fill-rule="evenodd" clip-rule="evenodd" d="M201.877 133.24L210.58 113.548L217.179 114.324L217.021 115.656L216.147 115.553C215.615 115.489 215.009 115.522 214.604 115.92C214.146 116.373 213.976 117.193 213.905 117.808L211.357 139.456C211.285 140.071 211.263 140.905 211.604 141.45C211.906 141.936 212.476 142.112 213.015 142.176L213.89 142.278L213.733 143.607L204.161 142.481L204.316 141.15L205.214 141.256C205.758 141.319 206.493 141.316 206.841 140.81C207.206 140.282 207.379 139.629 207.454 138.995L209.566 121.052L200.285 142.025L199.461 141.928L195.367 119.331L193.25 137.324C193.175 137.958 193.191 138.631 193.424 139.234C193.645 139.804 194.359 139.979 194.901 140.043L195.8 140.149L195.642 141.477L187.89 140.566L188.047 139.237L188.913 139.337C189.461 139.404 190.203 139.401 190.548 138.884C190.91 138.353 191.086 137.713 191.161 137.08L193.709 115.43C193.782 114.797 193.76 114.132 193.531 113.529C193.315 112.953 192.591 112.781 192.046 112.717L191.179 112.614L191.336 111.282L197.957 112.064L201.877 133.24Z" fill="white"/>
<path fill-rule="evenodd" clip-rule="evenodd" d="M158.899 274.437C159.502 274.579 159.795 274.713 160.396 274.862L160.412 286.559V287.162C160.412 287.37 160.462 287.538 160.567 287.652C160.671 287.772 160.948 287.915 161.398 288.079C161.576 288.143 161.93 288.285 162.46 288.499C162.476 288.574 162.482 288.641 162.482 288.705C162.482 288.784 162.476 288.95 162.46 289.208L161.983 289.094C161.66 289.02 161.186 288.9 160.567 288.725C160.193 288.615 159.931 288.541 159.793 288.507C159.615 288.469 159.175 288.329 158.05 288.104C157.922 288.079 157.817 288.06 157.735 288.04L157.538 287.996L157.217 287.898L156.919 287.848L156.363 287.699C156.291 287.682 156.139 287.657 155.91 287.621C155.895 287.465 155.888 287.34 155.888 287.256C155.888 287.179 155.895 287.065 155.91 286.912C156.204 286.906 156.548 286.906 156.942 286.923C157.478 286.94 157.809 286.915 157.931 286.839C158.052 286.768 158.112 286.646 158.112 286.478L158.122 276.437C157.597 276.688 157.046 276.921 156.374 277.14C156.302 277.163 155.97 277.231 155.378 277.34C155.143 276.945 154.991 276.656 154.923 276.469C155.706 276.267 156.239 276.102 156.518 275.986C156.982 275.786 157.486 275.513 158.026 275.174C158.253 275.024 158.544 274.777 158.899 274.437Z" fill="black"/>
<path fill-rule="evenodd" clip-rule="evenodd" d="M167.832 291.229C167.639 291.24 167.46 291.349 167.311 291.057C167.07 290.584 167.794 290.281 168.004 290.135C171.57 287.649 173.848 285.914 173.804 281.71C173.794 280.486 173.026 276.992 170.723 277.137C168.76 277.259 168.389 279.185 168.328 280.821C168.221 283.659 170.377 284.476 171.402 284.902C171.505 284.943 171.559 285.047 171.559 285.208C171.559 285.488 171.31 285.602 171.077 285.596C167.495 285.525 165.895 283.382 165.895 280.83C165.895 277.968 168.106 276.005 170.974 276.005C174.718 276.005 176.422 279.08 176.308 282.463C176.189 286.001 173.653 288.883 170.215 290.406C169.209 290.852 168.912 290.974 167.832 291.229Z" fill="black"/>
<path fill-rule="evenodd" clip-rule="evenodd" d="M179.576 291.229C179.384 291.24 179.206 291.349 179.057 291.057C178.816 290.584 179.54 290.281 179.749 290.135C183.314 287.649 185.592 285.914 185.55 281.71C185.538 280.486 184.772 276.992 182.469 277.137C180.505 277.259 180.134 279.185 180.072 280.821C179.965 283.659 182.122 284.476 183.149 284.902C183.251 284.943 183.304 285.047 183.304 285.208C183.304 285.488 183.054 285.602 182.822 285.596C179.24 285.525 177.641 283.382 177.641 280.83C177.641 277.968 179.85 276.005 182.72 276.005C186.463 276.005 188.167 279.08 188.053 282.463C187.933 286.001 185.398 288.883 181.96 290.406C180.955 290.852 180.658 290.974 179.576 291.229H179.576Z" fill="black"/>
<path fill-rule="evenodd" clip-rule="evenodd" d="M190.185 275.466C190.48 275.396 190.94 275.279 191.568 275.113L194.282 274.544L196.571 273.981L198.619 273.506L199.072 273.381C199.165 273.354 199.306 273.333 199.492 273.306C199.514 273.567 199.525 273.779 199.525 273.948C199.525 274.156 199.374 274.684 199.072 275.544C198.32 277.67 195.112 286.879 194.561 289.099L194.274 289.166L193.1 289.347C193.054 289.356 192.925 289.381 192.714 289.44C192.498 289.499 192.327 289.545 192.204 289.572C191.257 289.787 192.091 288.396 192.323 287.851C192.8 286.728 193.45 285.522 193.76 284.768L196.04 279.222L196.539 277.84C196.618 277.621 196.742 277.338 196.86 276.968C196.896 276.853 196.97 276.65 197.071 276.361C196.346 276.498 195.459 276.737 195.01 276.848L193.363 277.248L192.044 277.531C191.632 277.627 191.347 277.746 191.201 277.887C190.983 278.105 190.637 279.422 189.906 278.808C189.622 278.569 189.899 277.746 189.939 277.443C189.988 277.073 190.034 276.72 190.067 276.372C190.102 276.028 190.139 275.728 190.185 275.466H190.185Z" fill="black"/>
</svg>
