<svg width="350" height="350" viewBox="0 0 350 350" fill="none" xmlns="http://www.w3.org/2000/svg">
<path d="M170.642 323.001C138.768 300.197 113.312 273.477 94.9007 243.521L77.808 257.934L72.1784 256.792C61.4767 254.617 52.8692 250.129 46.5869 243.453C40.019 236.45 36.4835 227.516 36.0212 216.882C35.8025 208.633 37.2789 200.428 40.359 192.773C43.3321 184.846 47.4557 177.401 52.5972 170.676C55.8257 166.561 59.3769 162.709 63.2173 159.158C62.1974 153.08 61.5583 147.967 61.0824 144.2L60.5656 140.121C59.4755 130.07 59.0213 119.96 59.2058 109.852C59.2058 97.4096 59.6274 85.2665 59.8857 79.1202L60.0217 75.9519L62.9997 74.8232C71.8571 71.5659 80.9485 68.984 90.1958 67.0995C89.6282 64.5668 89.4358 61.9645 89.6247 59.3759C90.6717 45.7778 101.7 35.1985 116.426 33.7979C117.582 33.6891 118.779 33.6348 119.989 33.6348C123.043 33.6502 126.087 33.9829 129.073 34.6274L132.105 35.2665L135.083 34.5186C157.68 28.4664 180.946 25.2686 204.338 25C234.947 25 251.115 31.4047 251.781 31.6766L256.309 33.4988L253.182 37.0751C256.975 39.6014 259.762 43.3791 261.055 47.7495L261.178 48.1847V64.108C261.155 65.4202 261.037 66.7291 260.824 68.0242C268.673 69.7713 276.396 72.0428 283.941 74.8232L286.905 75.9519L287.041 79.1202C287.354 86.6807 287.721 98.1575 287.721 109.865C287.721 116.188 287.612 121.845 287.395 126.754L300.829 123.205L295.009 143.099L314.781 126.387L301.074 172.62L274.694 194.976C271.966 203.123 268.788 211.113 265.175 218.908C246.6 259.022 216.671 294.051 176.231 323.015L173.361 325L170.642 323.001Z" fill="white"/>
<path d="M308.213 136.504L288.428 153.175L295.744 128.141L283.642 131.337C284.036 125.517 284.226 118.351 284.226 109.879C284.226 97.4368 283.805 85.4025 283.546 79.2834V78.3995L282.703 78.0732C274.231 74.9617 265.541 72.4801 256.704 70.6486C257.339 68.5244 257.687 66.3246 257.737 64.108V48.647C256.984 46.239 255.687 44.0363 253.947 42.2091C252.207 40.3819 250.07 38.9789 247.702 38.1085L250.517 34.8858C250.517 34.8858 210.43 18.6633 135.981 37.7958L132.159 38.8564L128.284 38.0405C124.482 37.1768 120.569 36.9062 116.685 37.2383C103.672 38.4757 93.9353 47.6816 93.0243 59.6206C92.7489 63.0604 93.2509 66.5181 94.4929 69.7376C84.1668 71.671 74.0161 74.4452 64.142 78.0324L63.299 78.3587V79.2426C63.0406 85.3345 62.6191 97.4096 62.6191 109.825C62.4444 119.783 62.8986 129.743 63.9789 139.645L64.4956 143.725C65.0259 147.94 65.733 153.624 66.9296 160.45C62.7399 164.215 58.8904 168.342 55.4257 172.784C50.4758 179.247 46.5034 186.404 43.6362 194.024C40.7356 201.239 39.3472 208.973 39.5568 216.746C39.9375 226.523 43.1739 234.709 49.157 241.073C54.9226 247.219 62.9046 251.367 72.8992 253.393L76.8834 254.195L95.7983 238.245C114.115 269.207 139.87 296.716 172.654 320.173L173.443 320.744L174.218 320.173C214.183 291.617 243.718 256.996 262.048 217.44C265.736 209.471 268.969 201.299 271.73 192.963L298.11 170.703L308.213 136.504Z" fill="#00304F"/>
<path d="M272.546 177.556L283.506 140.067L267.814 144.146L260.471 169.302L240.821 185.865L251.7 148.375L236.021 152.454L229.317 175.476L206.418 194.976L217.378 157.486L201.686 161.565L193.446 190.407C191.545 189.286 189.871 187.819 188.51 186.082C187.148 184.343 186.132 182.358 185.518 180.235C184.876 177.985 184.569 175.653 184.607 173.314C184.645 170.743 185.076 168.194 185.885 165.753L169.962 170.064C168.512 176.682 168.856 181.903 170.995 185.729C171.25 186.201 171.536 186.655 171.852 187.089L157.955 198.878C158.85 196.142 159.255 193.27 159.152 190.393C159.1 187.96 158.525 185.567 157.465 183.376C156.596 181.394 155.228 179.67 153.495 178.372C151.699 177.149 149.665 176.319 147.525 175.938C145.13 175.694 142.71 175.892 140.386 176.523C135.113 178 130.213 180.582 126.013 184.097C121.661 187.75 118.051 192.205 115.379 197.219C113.258 201.21 112.05 205.622 111.844 210.137L89.2848 229.052C84.1296 228.335 79.1377 226.729 74.5309 224.307C70.7131 222.232 67.5453 219.139 65.3795 215.373C63.1358 211.245 61.9273 206.635 61.8576 201.938C61.72 197.249 62.3259 192.567 63.6525 188.068C65.1009 183.424 67.2467 179.027 70.0164 175.027C72.677 171.076 75.9498 167.574 79.7118 164.652C83.1728 161.982 87.1223 160.014 91.3381 158.859C93.9366 158.106 96.6846 158.031 99.3202 158.642C101.791 159.219 104.041 160.504 105.793 162.34C107.715 164.32 109.068 166.782 109.709 169.466L98.1099 179.175L99.8505 181.377L127.577 158.043L126.068 155.718L122.097 158.9C119.402 155.557 115.602 153.286 111.382 152.495C106.147 151.613 100.779 151.938 95.6895 153.447C89.1959 155.256 83.1017 158.273 77.7265 162.34C71.8883 166.817 66.6468 172.022 62.1295 177.828C57.6635 183.658 54.0805 190.114 51.4959 196.988C48.9809 203.146 47.7634 209.756 47.9196 216.406C48.2369 224.157 50.68 230.462 55.2489 235.321C59.8179 240.18 66.2497 243.457 74.5445 245.152L111.994 213.564C112.366 216.888 113.511 220.078 115.339 222.879C117.788 226.169 121.075 228.742 124.857 230.33L173.81 189.128C176.243 191.189 179.181 192.565 182.323 193.113C183.982 193.385 185.654 193.602 187.34 193.738C189.026 193.874 190.699 194.024 192.344 194.132L187.218 211.293L193.378 209.661L227.971 180.412L221.607 202.169L227.767 200.537L259.043 174.157L253.372 193.779L259.519 192.147L290.794 165.781L292.249 160.885L272.546 177.556ZM144.221 208.016C142.501 211.012 140.311 213.711 137.735 216.012C133.833 214.667 130.424 212.185 127.944 208.886C125.373 205.564 123.942 201.501 123.865 197.301C123.692 194.375 124.393 191.465 125.877 188.938C126.457 187.847 127.248 186.884 128.206 186.104C129.163 185.324 130.267 184.743 131.452 184.396C132.561 184.13 133.711 184.087 134.836 184.269C135.961 184.451 137.039 184.855 138.007 185.457C140.341 186.995 142.22 189.131 143.446 191.644C144.835 194.234 145.634 197.099 145.785 200.034C145.968 202.785 145.429 205.537 144.221 208.016V208.016Z" fill="white"/>
<path d="M250.38 204.916C241.384 223.023 229.9 239.784 216.263 254.712C214.269 248.764 210.922 243.36 206.486 238.924C179.29 212.939 140.916 233.281 139.176 263.754C137.734 262.313 136.311 260.858 134.906 259.389C135.868 252.229 138.404 245.37 142.33 239.305C137.917 244.483 134.638 250.528 132.703 257.051C124.001 247.727 116.104 237.683 109.097 227.026L108.39 227.597L101.999 233.036C118.969 262.15 142.956 288.149 173.361 310.464C210.185 283.485 237.476 251.163 254.541 214.339C256.703 209.675 258.621 205.12 260.293 200.741L251.183 203.148C250.951 203.719 250.68 204.304 250.38 204.916Z" fill="#C1C1C1"/>
<path d="M272.545 177.556L283.423 140.23C278.229 141.426 272.708 143.765 267.486 145.152L260.443 169.37L240.793 185.933L251.495 149.313C246.246 150.891 240.916 152.577 235.545 154.345L229.357 175.612L206.418 194.976L216.358 160.98C210.919 162.966 205.479 165.06 200.04 167.168L193.377 190.475C191.476 189.354 189.802 187.887 188.441 186.15C187.079 184.41 186.064 182.426 185.449 180.303C184.823 178.092 184.516 175.802 184.538 173.504C179.344 175.734 174.24 178.001 169.227 180.303C169.464 182.16 170.04 183.958 170.927 185.606C171.182 186.078 171.468 186.533 171.783 186.966L157.886 198.756C158.781 196.02 159.186 193.147 159.083 190.271C159.025 188.694 158.765 187.131 158.308 185.62C153.394 188.068 148.649 190.547 144.071 193.058C145.048 195.238 145.61 197.58 145.73 199.966C145.908 202.719 145.365 205.47 144.152 207.948C142.433 210.944 140.242 213.643 137.666 215.944C133.765 214.598 130.355 212.117 127.875 208.818C126.795 207.433 125.912 205.904 125.251 204.277C120.437 207.418 115.95 210.314 111.925 213.496C112.309 216.817 113.454 220.004 115.27 222.811C117.719 226.101 121.007 228.674 124.789 230.262L173.742 189.06C176.174 191.121 179.113 192.497 182.254 193.045C183.913 193.317 185.585 193.534 187.272 193.67C188.958 193.806 190.63 193.956 192.276 194.064L187.217 211.293L193.377 209.661L227.957 180.412L221.607 202.169L227.767 200.537L259.042 174.157L253.372 193.779L259.518 192.147L290.793 165.781L292.248 160.885L272.545 177.556Z" fill="#C1C1C1"/>
<path d="M190.332 216.868C198.659 219.576 206.473 223.662 213.448 228.957C204.324 218.487 190.332 216.868 190.332 216.868Z" fill="#C1C1C1"/>
<path d="M173.361 292.691C184.962 284.386 195.909 275.203 206.105 265.223C206.228 263.863 206.282 262.639 206.336 261.755C206.336 261.334 206.472 261.32 206.581 261.755C206.801 262.588 206.974 263.432 207.098 264.285L208.226 263.183C207.723 253.311 203.209 245.003 204.473 246.866C207.398 251.344 209.143 256.49 209.545 261.823L209.641 261.715C209.233 249.354 202.583 238.843 190.087 234.192C189.692 234.056 189.407 233.92 189.461 233.879C189.516 233.839 189.216 233.716 188.808 233.58C164.794 225.843 142.385 245.615 143.935 268.446C153.185 277.183 163.016 285.283 173.361 292.691V292.691Z" fill="white"/>
<path d="M251.237 203.134C250.951 203.733 250.679 204.317 250.38 204.929C242.661 220.509 233.072 235.089 221.824 248.348C212.17 228.277 194.791 224.184 194.791 224.184C200.605 226.558 205.852 230.131 210.191 234.669C214.531 239.207 217.864 244.61 219.975 250.524C219.581 250.972 219.213 251.435 218.819 251.883C216.671 245.451 210.443 239.645 210.443 239.645C210.443 239.645 215.773 246.825 216.956 253.923C216.031 254.943 215.08 255.949 214.141 256.969C212.388 250.877 209.113 245.331 204.623 240.855C186.809 223.858 162.197 227.801 149.687 243.711C144.571 250.162 141.825 258.173 141.909 266.406C142.616 267.1 143.268 267.766 144.043 268.473C143.733 263.978 144.326 259.466 145.789 255.203C147.251 250.941 149.552 247.015 152.556 243.657C152.426 243.946 152.379 244.266 152.42 244.581C152.627 245.901 152.909 247.209 153.263 248.497C153.369 248.676 153.433 248.877 153.45 249.085C153.466 249.292 153.435 249.501 153.358 249.694L152.937 250.564C152.612 251.143 152.317 251.737 152.053 252.346V252.346L151.59 253.27L152.801 251.815C153.249 251.312 153.82 250.632 154.446 249.98C155.071 249.327 155.561 249.368 163.679 248.185C163.964 248.155 164.238 248.054 164.475 247.893C164.712 247.732 164.906 247.514 165.039 247.26C167.337 242.691 168.302 240.801 168.71 239.985C168.949 239.545 169.307 239.182 169.744 238.938L173.823 237.225L172.763 237.32H172.64C172.169 237.32 171.666 237.388 171.131 237.524C170.636 237.593 170.145 237.693 169.662 237.823C169.439 237.844 169.214 237.818 169.001 237.748C168.788 237.678 168.592 237.564 168.425 237.415C167.99 237.089 167.065 236.586 164.808 235.294C164.5 235.129 164.146 235.072 163.801 235.131C171.645 231.363 180.644 230.788 188.903 233.526C189.121 233.588 189.331 233.674 189.529 233.784C189.265 233.812 189.013 233.906 188.795 234.056C187.447 234.931 186.165 235.904 184.96 236.966C184.841 237.143 184.681 237.29 184.494 237.394C184.308 237.498 184.099 237.556 183.886 237.565C182.956 237.46 182.021 237.405 181.085 237.401H178.882L184.321 238.992C184.788 239.175 185.19 239.492 185.477 239.903L189.461 245.995C189.611 246.224 189.811 246.414 190.048 246.551C190.284 246.688 190.548 246.767 190.821 246.784L198.286 247.015C198.839 247.047 199.365 247.262 199.782 247.627L200.299 248.062L203.345 250.918C203.146 250.472 202.91 250.045 202.637 249.64C202.172 248.869 201.659 248.129 201.101 247.423V247.342L200.965 247.178C200.865 246.985 200.812 246.771 200.812 246.553C200.812 246.335 200.865 246.121 200.965 245.927C201.21 244.442 201.364 242.944 201.427 241.44C201.427 241.44 201.427 241.345 201.427 241.29C201.944 241.794 202.406 242.27 202.787 242.65C207.086 248.056 209.528 254.703 209.749 261.606L209.586 261.796C209.189 256.485 207.448 251.361 204.528 246.906C204.482 246.832 204.427 246.763 204.364 246.702L203.698 245.615L205.058 248.729C206.851 253.334 207.933 258.185 208.267 263.115C207.886 263.51 207.519 263.904 207.125 264.285C207.125 264.122 207.125 263.958 207.03 263.782L206.404 260.369L206.255 263.958C206.255 264.353 206.255 264.788 206.159 265.237C195.944 275.213 184.979 284.391 173.361 292.691V300.551C210.184 273.586 237.476 241.263 254.541 204.44C254.922 203.597 255.303 202.767 255.67 201.938L251.237 203.134Z" fill="#858486"/>
<path d="M177.563 279.365C177.822 280.548 177.903 281.119 179.168 287.089C179.263 287.497 179.168 286.789 179.168 286.368C179.168 280.303 179.168 280.385 179.168 279.256C179.174 279.021 179.231 278.791 179.334 278.579C179.438 278.368 179.585 278.182 179.766 278.032L189.203 270.893C189.608 270.641 190.095 270.553 190.563 270.649C192.648 271.084 194.709 271.629 196.737 272.28C197.145 272.403 197.824 272.661 197.457 272.457L191.107 269.112C190.696 268.855 190.377 268.474 190.196 268.024C189.829 266.923 188.836 264.013 186.117 256.153C186.184 255.89 186.28 255.635 186.402 255.392L187 254.032C187.34 253.216 187.68 252.4 188.007 251.639L189.87 247.287L187.15 251.367L185.722 253.406L184.933 254.535C184.786 254.718 184.603 254.868 184.394 254.975C184.186 255.083 183.957 255.146 183.723 255.16L171.689 255.256C171.21 255.238 170.755 255.044 170.411 254.712L169.69 253.937L165.203 248.824L165.611 249.517V249.64L167.922 253.243L168.942 254.916L169.296 255.5C169.512 255.919 169.57 256.402 169.459 256.86C168.793 259.117 166.739 265.957 166.087 268.419C166.01 268.639 165.886 268.841 165.724 269.01C165.562 269.179 165.366 269.311 165.148 269.398C162.415 270.154 159.735 271.089 157.125 272.199L165.611 271.125C166.088 271.093 166.564 271.212 166.97 271.464L176.747 278.264C177.133 278.531 177.42 278.918 177.563 279.365V279.365Z" fill="#858486"/>
<path d="M150.244 264.434C150.244 264.19 150.244 263.958 150.244 263.727C150.244 260.409 150.244 259.09 150.244 259.09C150.244 259.09 149.51 262.136 149.224 263.877C149.193 264.134 149.096 264.379 148.944 264.588C148.792 264.797 148.589 264.964 148.354 265.073C147.864 265.386 146.994 266.093 144.791 267.793C144.548 268.005 144.373 268.284 144.288 268.595C147.742 271.859 151.323 275.064 155.031 278.209C155.316 277.026 155.724 275.394 156.295 273.11C156.363 272.84 156.364 272.558 156.298 272.287C156.232 272.017 156.1 271.767 155.914 271.56C150.611 265.59 150.244 265.386 150.244 264.434Z" fill="#858486"/>
<path d="M105.711 229.855L101.999 233.05C118.969 262.15 142.956 288.149 173.361 310.464V300.85C144.656 280.181 121.974 256.371 105.711 229.855Z" fill="#858486"/>
<path d="M111.505 100.755C110.458 99.8163 108.038 100.755 106.066 102.93C104.094 105.106 103.346 107.567 104.434 108.519C105.522 109.471 107.888 108.519 109.874 106.357C111.859 104.195 112.539 101.706 111.505 100.755Z" fill="#FCBC00"/>
<path d="M99.8105 77.8828C90.2457 79.6266 80.8201 82.0625 71.6081 85.1713C71.3634 91.576 71.0642 101.489 71.0642 111.687C70.9199 121.171 71.374 130.654 72.424 140.08L72.9271 144.037C73.2807 146.866 73.7158 150.388 74.2869 154.481C75.4428 153.678 76.6122 152.903 77.7816 152.182C78.176 151.938 78.5839 151.72 78.9783 151.489C78.04 146.186 77.4417 141.712 76.9929 138.299L76.449 134.369C75.5291 126.599 75.1021 118.778 75.1708 110.953C75.1708 103.08 75.3612 92.0111 75.5108 87.279C84.034 84.872 92.6873 82.9516 101.429 81.527C93.4807 98.3205 88.731 116.448 87.4226 134.981C90.2009 117.148 95.9948 99.9176 104.556 84.0291C104.556 84.0291 105.372 82.5877 105.549 82.2749C103.44 81.086 101.509 79.6076 99.8105 77.8828ZM75.1708 112.68C75.1774 112.64 75.1774 112.598 75.1708 112.558C75.1774 112.598 75.1774 112.64 75.1708 112.68Z" fill="#FCBC00"/>
<path d="M114.891 109.308C112.892 108.342 109.67 110.885 107.671 114.992C105.672 119.098 105.686 123.151 107.671 124.171C109.656 125.19 112.933 122.634 114.891 118.527C116.85 114.421 116.918 110.314 114.891 109.308Z" fill="#FCBC00"/>
<path d="M177.442 75.1088L174.573 73.5042C162.034 79.758 149.996 86.9682 138.565 95.0707C150.816 87.1199 163.841 80.4318 177.442 75.1088V75.1088Z" fill="#FCBC00"/>
<path d="M115.748 76.9037C116.781 77.2572 117.855 77.57 118.916 77.8283C112.212 70.6622 110.648 64.747 110.431 61.3067V60.722L105.454 59.8653C107.159 59.1317 108.913 58.5183 110.703 58.0296C110.703 58.0296 110.703 58.0296 110.703 58.0296C113.688 57.1866 116.757 56.6713 119.854 56.493H120.017H121.377H122.37C124.315 56.5194 126.251 56.7472 128.149 57.1729C129.363 57.4205 130.541 57.8178 131.657 58.356C137.829 60.9594 142.772 65.8243 145.473 71.954C143.632 70.8241 141.527 70.1959 139.368 70.1319C140.605 73.1098 142.631 79.0522 141.747 84.301C153.781 76.7677 168.943 67.2355 194.589 60.858C184.732 62.6211 174.786 63.8512 164.796 64.5431L181.372 58.4647C170.493 57.3769 142.386 62.2178 142.386 62.2178C186.036 47.3551 216.305 49.2589 216.305 49.2589C209.18 50.8226 193.189 56.9554 193.189 56.9554C223.335 54.2357 238.484 44.9755 246.697 48.9597C243.406 43.6973 232.215 42.3511 232.215 42.3511L234.935 39.1827C234.935 39.1827 207.752 34.5186 169.283 39.9578C169.283 40.5289 168.304 41.1272 167.094 41.3176C165.884 41.508 164.687 41.3176 164.551 40.6785C160.599 41.304 156.546 42.0519 152.394 42.9222C152.258 44.282 150.164 45.9001 147.295 46.6752C144.154 47.5183 141.285 47.0424 140.809 45.6282C138.511 46.2265 136.172 46.852 133.833 47.5319C135.236 48.7032 136.455 50.0783 137.45 51.6113C138.196 51.2611 138.981 51.0009 139.789 50.8362C142.74 50.0339 145.419 50.4963 145.786 51.8561C146.153 53.2159 144.059 54.9156 141.122 55.6907C140.632 55.8131 140.156 55.8947 139.694 55.9627C139.49 55.6363 139.259 55.31 139.028 54.9972C138.796 54.6845 138.769 54.6709 138.647 54.5077C138.348 54.127 138.035 53.7462 137.722 53.3927L137.205 52.8623C137.015 52.6584 136.825 52.4544 136.621 52.264C133.75 49.5906 130.244 47.6949 126.436 46.7568C124.285 46.2181 122.07 45.9801 119.854 46.0497C98.5734 46.0633 94.7795 71.5053 115.748 76.9037ZM156.759 45.0843C158.636 44.5811 160.349 44.8667 160.58 45.737C160.812 46.6072 159.479 47.7223 157.602 48.2118C155.726 48.7013 154.013 48.4294 153.781 47.5591C153.55 46.6888 154.883 45.5874 156.759 45.0843V45.0843Z" fill="#FCBC00"/>
<path d="M122.859 92.0654C122.451 91.1816 120.629 91.1408 118.78 92.0654C116.93 92.9901 115.843 94.2547 116.25 95.1386C116.658 96.0225 118.481 96.0497 120.33 95.2066C122.179 94.3635 123.267 92.9901 122.859 92.0654Z" fill="#FCBC00"/>
<path d="M198.763 118.296C197.429 119.177 196.354 120.397 195.649 121.832C195.621 121.884 195.598 121.938 195.581 121.995C195.175 122.846 194.948 123.772 194.915 124.714V124.714C190.55 115.495 194.67 100.836 198.002 91.9024L201.36 84.2467C196.384 86.216 191.569 88.5711 186.96 91.2905C186.783 91.4401 186.634 91.6168 186.47 91.7664C191.91 89.9035 195.418 89.0468 195.418 89.0468L180.95 98.0487C180.419 98.7694 179.916 99.4901 179.399 100.238C184.394 98.2129 189.518 96.523 194.738 95.1795L174.926 107.54C170.737 115.209 168.127 122.688 168.439 126.061H168.63L168.942 125.965C170.71 125.49 176.925 124.157 181.602 127.325C181.954 127.585 182.286 127.872 182.595 128.182C184.567 130.194 192.508 137.184 201.455 130.167C226.299 113.7 240.468 116.025 240.468 116.025C241.884 113.267 242.2 110.074 241.352 107.091C237.449 96.5665 207.439 111.565 198.763 118.296Z" fill="#FCBC00"/>
<path d="M119.895 100.659C118.631 102.019 118.141 103.705 118.835 104.331C119.528 104.956 121.105 104.331 122.384 102.903C123.662 101.475 124.138 99.8571 123.444 99.2316C122.751 98.6061 121.173 99.2452 119.895 100.659Z" fill="#FCBC00"/>
<path d="M275.756 101.788C275.756 91.6983 275.457 91.6031 275.212 85.1712C267.555 82.5627 259.738 80.4506 251.81 78.8481C251.683 79.1314 251.574 79.422 251.483 79.7184L250.599 82.3156C249.467 85.6397 248.132 88.8911 246.602 92.0518C247.976 94.8262 248.537 97.9331 248.22 101.013C250.394 104.369 251.639 108.242 251.828 112.236C252.017 116.23 251.142 120.203 249.294 123.749C249.294 123.749 257.249 112.313 250.735 100.632C251.125 97.845 250.996 95.0097 250.355 92.2694C250.355 92.2694 253.985 85.7695 254.774 83.6075L254.924 83.2947C261.464 84.6545 266.917 86.0143 271.241 87.2789C271.432 93.0989 271.595 100.279 271.595 107.526C271.756 116.447 271.329 125.369 270.317 134.233L270.235 134.858L273.906 133.893L275.049 133.594C275.484 127.855 275.701 120.526 275.701 111.687C275.701 110.001 275.701 108.315 275.701 106.643C275.701 104.97 275.756 103.461 275.756 101.788Z" fill="#FCBC00"/>
<path d="M183.398 78.4675C170.86 84.2739 154.407 93.7517 133.003 109.036C133.003 109.036 159.479 90.597 189.639 81.2279C187.465 80.5367 185.372 79.6111 183.398 78.4675V78.4675Z" fill="#FCBC00"/>
<path d="M129.971 89.6994C128.611 90.3113 127.836 91.3176 128.135 91.9567C128.434 92.5958 129.74 92.623 131.045 91.9567C132.351 91.2904 133.18 90.3385 132.881 89.6994C132.582 89.0603 131.276 89.0875 129.971 89.6994Z" fill="#FCBC00"/>
<path d="M138.292 169.139C137.948 169.178 137.602 169.178 137.258 169.139C136.992 169.122 136.735 169.038 136.51 168.894C136.32 168.761 136.178 168.57 136.102 168.351C136.032 168.074 136.032 167.784 136.102 167.507C136.166 167.032 136.314 166.572 136.538 166.148C136.775 165.729 137.067 165.345 137.408 165.005C137.778 164.65 138.189 164.34 138.632 164.081C139.105 163.798 139.606 163.566 140.127 163.387L140.277 162.884L141.814 162.49L141.65 162.993C141.998 162.948 142.35 162.948 142.697 162.993C142.957 163.02 143.208 163.104 143.432 163.238C143.63 163.366 143.778 163.558 143.853 163.782C143.918 164.064 143.918 164.356 143.853 164.638C143.79 165.116 143.638 165.577 143.405 165.998C143.176 166.422 142.882 166.807 142.534 167.14C142.172 167.499 141.766 167.81 141.324 168.065C140.849 168.345 140.348 168.577 139.828 168.759L139.679 169.275L138.142 169.683L138.292 169.139ZM137.639 166.936C137.603 167.084 137.603 167.238 137.639 167.385C137.68 167.497 137.756 167.593 137.857 167.657C137.966 167.73 138.093 167.772 138.224 167.779C138.381 167.807 138.542 167.807 138.7 167.779L139.624 164.801C139.374 164.897 139.133 165.016 138.904 165.155C138.462 165.397 138.098 165.76 137.857 166.202C137.735 166.444 137.661 166.707 137.639 166.977V166.936ZM142.249 165.25C142.292 165.104 142.292 164.948 142.249 164.801C142.217 164.689 142.144 164.592 142.045 164.53C141.939 164.459 141.818 164.417 141.691 164.407C141.529 164.38 141.364 164.38 141.202 164.407L140.277 167.371C140.527 167.28 140.768 167.167 140.998 167.032C141.214 166.901 141.415 166.745 141.596 166.569C141.771 166.396 141.922 166.199 142.045 165.985C142.152 165.767 142.221 165.532 142.249 165.291V165.25Z" fill="white"/>
<path d="M145.431 166.678H145.567H145.662C145.762 166.654 145.858 166.617 145.948 166.569C146.038 166.506 146.116 166.428 146.179 166.338L146.764 165.509L145.975 161.524L147.675 161.076L148.11 163.646L150.381 160.355L152.081 159.906L147.525 166.42C147.389 166.619 147.229 166.802 147.049 166.964C146.889 167.127 146.711 167.273 146.519 167.399C146.338 167.518 146.147 167.623 145.948 167.711C145.769 167.797 145.582 167.866 145.39 167.915H145.05H144.806L145.431 166.678Z" fill="white"/>
<path d="M155.398 160.219L153.549 160.709L153.957 159.349L159.192 157.989L158.784 159.349L156.935 159.838L155.262 165.196L153.726 165.604L155.398 160.219Z" fill="white"/>
<path d="M163.557 159.063C163.83 158.981 164.115 158.949 164.4 158.968C164.605 158.975 164.803 159.041 164.971 159.158C165.116 159.275 165.225 159.43 165.284 159.607C165.326 159.823 165.326 160.044 165.284 160.26C165.247 160.499 165.178 160.732 165.08 160.953C164.981 161.183 164.858 161.402 164.713 161.606C164.555 161.814 164.383 162.009 164.196 162.191C163.997 162.37 163.788 162.538 163.57 162.694C163.351 162.834 163.124 162.961 162.891 163.075C162.66 163.189 162.418 163.28 162.17 163.347L159.45 164.054L161.531 157.336L166.045 156.153L165.624 157.513L162.741 158.261L162.401 159.349L163.557 159.063ZM161.993 160.708L161.49 162.34L162.578 162.055C162.714 162.012 162.846 161.957 162.972 161.892C163.093 161.816 163.207 161.73 163.312 161.633C163.414 161.529 163.505 161.415 163.584 161.293C163.649 161.17 163.695 161.037 163.72 160.899C163.749 160.815 163.749 160.724 163.72 160.64C163.695 160.576 163.653 160.519 163.598 160.477C163.526 160.46 163.452 160.46 163.38 160.477H163.108L161.993 160.708Z" fill="white"/>
<path d="M167.31 159.362C167.366 159.006 167.466 158.659 167.609 158.329C167.772 157.967 167.968 157.621 168.194 157.295C168.439 156.959 168.707 156.641 168.997 156.343C169.297 156.052 169.62 155.783 169.962 155.541C170.299 155.298 170.654 155.08 171.023 154.888C171.375 154.713 171.744 154.572 172.124 154.467C172.518 154.358 172.929 154.326 173.334 154.372C173.657 154.402 173.964 154.524 174.218 154.725C174.46 154.916 174.636 155.177 174.721 155.473C174.812 155.826 174.812 156.195 174.721 156.547C174.672 156.905 174.571 157.253 174.422 157.581C174.259 157.943 174.063 158.288 173.837 158.614C173.593 158.955 173.325 159.277 173.035 159.58C172.729 159.875 172.407 160.151 172.07 160.409C171.736 160.657 171.381 160.876 171.009 161.062C170.659 161.244 170.289 161.385 169.908 161.484C169.516 161.603 169.104 161.64 168.697 161.592C168.378 161.551 168.074 161.429 167.813 161.239C167.577 161.043 167.402 160.783 167.31 160.491C167.213 160.121 167.213 159.732 167.31 159.362ZM168.888 158.832C168.839 159.047 168.839 159.27 168.888 159.485C168.931 159.662 169.026 159.823 169.16 159.947C169.304 160.065 169.478 160.14 169.663 160.165C169.887 160.21 170.118 160.21 170.343 160.165C170.571 160.108 170.79 160.021 170.995 159.906C171.218 159.798 171.427 159.665 171.621 159.512C171.823 159.362 172.009 159.194 172.178 159.009C172.356 158.825 172.515 158.625 172.654 158.41C172.795 158.216 172.914 158.006 173.008 157.785C173.098 157.568 173.158 157.339 173.185 157.105C173.234 156.89 173.234 156.667 173.185 156.452C173.136 156.277 173.042 156.118 172.913 155.99C172.768 155.872 172.594 155.797 172.41 155.772C172.181 155.72 171.944 155.72 171.716 155.772C171.378 155.866 171.056 156.013 170.764 156.208C170.444 156.409 170.152 156.651 169.894 156.928C169.633 157.197 169.409 157.499 169.228 157.826C169.052 158.137 168.937 158.478 168.888 158.832V158.832Z" fill="white"/>
<path d="M182.499 153.08L179.779 153.787L179.018 156.276V156.411L178.691 157.459C178.589 157.779 178.438 158.082 178.243 158.356C178.067 158.615 177.856 158.848 177.617 159.05C177.187 159.415 176.681 159.68 176.135 159.825C176.022 159.836 175.908 159.836 175.795 159.825H175.537L176.203 158.465H176.502C176.659 158.424 176.8 158.339 176.91 158.22C177.025 158.079 177.113 157.918 177.168 157.744L177.508 156.629L178.705 152.808L184.471 151.285L182.39 158.002L180.853 158.397L182.499 153.08Z" fill="white"/>
<path d="M189.584 151.856C189.848 151.778 190.125 151.75 190.4 151.775C190.606 151.796 190.802 151.871 190.971 151.992C191.121 152.118 191.234 152.283 191.297 152.468C191.346 152.706 191.346 152.951 191.297 153.189C191.237 153.569 191.113 153.937 190.93 154.277C190.731 154.635 190.484 154.964 190.196 155.256C189.906 155.558 189.577 155.819 189.217 156.031C188.868 156.252 188.487 156.417 188.088 156.52L185.219 157.282L187.313 150.564L188.863 150.156L188.319 152.21L189.584 151.856ZM189.081 153.216L187.83 153.542L187.218 155.541L188.469 155.215C188.62 155.172 188.763 155.103 188.89 155.011C189.033 154.917 189.166 154.808 189.285 154.685C189.401 154.556 189.501 154.415 189.584 154.263C189.65 154.124 189.7 153.978 189.733 153.828C189.754 153.729 189.754 153.627 189.733 153.529C189.709 153.452 189.667 153.382 189.611 153.325C189.551 153.267 189.475 153.229 189.393 153.216C189.289 153.2 189.183 153.204 189.081 153.23V153.216Z" fill="white"/>
<path d="M194.519 148.742L196.056 148.334L195.199 151.054L198.096 150.292L198.952 147.573L200.503 147.165L198.408 153.869L196.858 154.29L197.688 151.571L194.791 152.332L193.975 154.984L192.425 155.392L194.519 148.742Z" fill="white"/>
<path d="M205.671 147.641C205.93 147.563 206.203 147.536 206.473 147.559C206.685 147.572 206.888 147.648 207.058 147.777C207.214 147.894 207.324 148.063 207.37 148.253C207.427 148.485 207.427 148.728 207.37 148.96C207.313 149.343 207.184 149.712 206.99 150.048C206.59 150.774 206.003 151.38 205.29 151.802C204.943 152.026 204.562 152.192 204.161 152.291L201.292 153.053L203.386 146.335L204.923 145.927L204.284 147.994L205.671 147.641ZM205.167 149.001L203.916 149.327L203.277 151.299L204.542 150.972C204.691 150.924 204.833 150.855 204.963 150.768C205.248 150.579 205.482 150.322 205.643 150.02C205.725 149.889 205.776 149.74 205.793 149.585C205.813 149.487 205.813 149.385 205.793 149.286C205.769 149.21 205.727 149.14 205.671 149.082C205.609 149.028 205.534 148.99 205.453 148.973C205.357 148.965 205.26 148.974 205.167 149.001V149.001ZM207.194 151.462L208.744 151.054L210.824 144.35L209.274 144.758L207.194 151.462Z" fill="white"/>
<path d="M213.884 143.575L215.42 143.181L214.169 147.26L218.588 142.406L219.948 142.052L217.841 148.742L216.304 149.15L217.555 145.071L213.136 149.925L211.776 150.279L213.884 143.575ZM219.323 140.094C219.238 140.31 219.129 140.515 218.996 140.706C218.862 140.907 218.707 141.094 218.534 141.263C218.352 141.431 218.151 141.577 217.936 141.698C217.703 141.822 217.456 141.917 217.202 141.984C216.986 142.027 216.764 142.027 216.549 141.984C216.398 141.981 216.253 141.923 216.141 141.821C216.037 141.72 215.974 141.584 215.964 141.44C215.927 141.261 215.927 141.076 215.964 140.896L216.998 140.556C216.995 140.615 216.995 140.674 216.998 140.733C216.988 140.773 216.988 140.815 216.998 140.855C217.042 140.865 217.089 140.865 217.134 140.855H217.378C217.469 140.837 217.556 140.804 217.637 140.76L217.841 140.624L218.004 140.434L218.167 140.216L219.323 140.094Z" fill="white"/>
<path d="M227.141 143.167L230.745 139.088L232.553 138.612L229.29 142.215L230.568 145.288L228.732 145.778L227.93 143.629L226.489 145.22L226.108 146.471L224.558 146.879L226.638 140.175L228.188 139.767L227.141 143.167Z" fill="white"/>
<path d="M239.066 138.176L236.347 138.884L235.572 141.358V141.508L235.245 142.541C235.153 142.868 235.006 143.176 234.81 143.453C234.622 143.706 234.408 143.938 234.171 144.146C233.944 144.334 233.697 144.498 233.437 144.636C233.2 144.75 232.954 144.845 232.702 144.921H232.362H232.104L232.77 143.561H232.906H233.001H233.069C233.219 143.52 233.355 143.44 233.464 143.33C233.584 143.193 233.672 143.03 233.722 142.854L234.076 141.739L235.259 137.918L241.024 136.395L238.944 143.099L237.407 143.507L239.066 138.176Z" fill="white"/>
<path d="M242.711 141.032H242.847H242.943L243.228 140.91C243.318 140.852 243.396 140.778 243.459 140.692L244.044 139.863L243.255 135.865L244.955 135.43L245.39 137.986L247.661 134.709L249.361 134.26L244.71 140.869C244.566 141.063 244.407 141.244 244.234 141.413C244.058 141.576 243.881 141.712 243.704 141.848C243.519 141.963 243.329 142.067 243.133 142.161L242.575 142.365H242.235H241.977L242.711 141.032Z" fill="white"/>
<path d="M253.59 135.321C253.864 135.247 254.148 135.214 254.433 135.226C254.638 135.241 254.835 135.312 255.004 135.43C255.156 135.539 255.267 135.697 255.316 135.878C255.367 136.088 255.367 136.308 255.316 136.518C255.288 136.759 255.219 136.993 255.112 137.211C255.017 137.443 254.894 137.662 254.745 137.864C254.592 138.074 254.419 138.27 254.229 138.448C254.036 138.635 253.826 138.803 253.603 138.952C253.389 139.104 253.162 139.236 252.923 139.346C252.691 139.452 252.45 139.539 252.203 139.604L249.483 140.311L251.577 133.608L256.078 132.411L255.67 133.771L252.706 134.546L252.366 135.647L253.59 135.321ZM252.026 136.966L251.536 138.557L252.61 138.272C252.747 138.231 252.88 138.177 253.005 138.109C253.134 138.039 253.253 137.952 253.358 137.85C253.455 137.745 253.542 137.632 253.617 137.51C253.688 137.389 253.734 137.255 253.753 137.116C253.775 137.031 253.775 136.942 253.753 136.858C253.726 136.793 253.678 136.741 253.617 136.708C253.555 136.669 253.485 136.646 253.413 136.64C253.318 136.627 253.222 136.627 253.127 136.64L252.026 136.966Z" fill="white"/>
<path d="M195.118 74.4288L194.547 74.1025C204.958 70.4836 215.915 68.6851 226.937 68.7856C226.937 68.7856 206.989 64.0127 189.298 71.2333L186.089 69.4519C193.018 66.2573 200.33 63.972 207.846 62.6529C213.445 61.7515 219.158 61.8205 224.734 62.8569C222.661 61.5021 220.488 60.3066 218.234 59.2806C229.303 57.2545 238.931 57.9208 238.795 66.1884C238.795 66.1884 237.666 73.6401 230.976 75.0543C226.407 76.0198 218.738 75.2991 211.816 76.2918C208.553 76.7541 202.488 79.0658 195.118 74.4288ZM245.634 60.2461C243.921 62.6393 243.527 67.1403 242.67 70.0911C240.127 78.9706 248.776 73.3002 248.816 63.7272C248.884 61.7147 245.689 60.2461 245.689 60.2461H245.634ZM238.699 97.8447C238.657 97.4697 238.593 97.0974 238.509 96.7296C238.517 96.6709 238.517 96.6115 238.509 96.5528C238.446 96.2174 238.364 95.8911 238.264 95.5738C237.925 96.6092 237.405 97.5761 236.728 98.4294L236.497 98.7013H236.157C233.444 98.2822 230.678 98.3698 227.998 98.9597C227.07 99.1805 226.193 99.5775 225.414 100.129L222.98 102.699L223.293 100.7C223.293 100.496 223.374 100.292 223.415 100.088L223.497 99.5308C223.747 97.9889 223.63 96.4097 223.157 94.9211V94.9211C222.967 95.5327 222.74 96.1321 222.477 96.716C222.388 96.9341 222.289 97.1474 222.178 97.3551C222.001 97.7359 221.811 98.103 221.607 98.4702L221.185 99.1909L220.587 100.102C220.41 100.347 220.247 100.605 220.07 100.836C219.893 101.067 219.676 101.326 219.485 101.571C218.608 102.649 217.654 103.663 216.63 104.603L216.412 104.807C216.045 105.133 215.678 105.46 215.297 105.772C214.481 106.452 213.652 107.132 212.822 107.69C218.01 105.061 223.409 102.873 228.963 101.149C232.676 100.374 235.939 100.279 238.169 101.231H238.264C238.422 100.92 238.541 100.591 238.618 100.252V100.252C238.8 99.4767 238.846 98.6761 238.754 97.8855L238.699 97.8447ZM239.366 74.728C237.953 76.6516 236.111 78.2196 233.987 79.3077C231.863 80.3958 229.514 80.9741 227.128 80.9967V80.9967C219.893 80.7247 213.421 79.6369 204.46 83.0908C225.061 81.4862 219.227 96.4849 219.227 96.4849C220.991 94.7791 222.494 92.8226 223.687 90.6785C225.146 88.0172 226.343 85.2212 227.264 82.3293C227.443 84.7024 227.246 87.0889 226.679 89.4003L235.531 87.7277C235.531 87.7277 236.143 87.6189 237.503 86.2047C236.755 87.6733 236.048 88.7612 236.048 88.7612L235.694 92.759C238.672 89.5499 242.14 79.3921 242.14 79.3921C236.823 79.9904 239.991 74.0481 239.42 74.7688L239.366 74.728ZM188.156 54.3037C185.588 54.2754 183.022 54.4162 180.473 54.7253C180.496 55.0238 180.546 55.3196 180.622 55.6091C180.887 56.562 181.382 57.4352 182.064 58.152C183.995 57.812 185.966 57.5401 187.87 57.3225C188.06 56.3401 188.174 55.3445 188.21 54.3445L188.156 54.3037ZM192.629 54.7525C192.033 54.6237 191.429 54.5328 190.821 54.4805C190.475 55.3963 190.057 56.283 189.57 57.1321L191.936 56.9146C192.316 56.2607 192.57 55.541 192.684 54.7933L192.629 54.7525Z" fill="white"/>
<path d="M215.61 101.775C215.654 101.731 215.691 101.68 215.719 101.625C195.703 97.4231 195.077 110.872 196.995 113.618C197.177 113.954 197.396 114.269 197.647 114.557C200.687 112.52 203.868 110.702 207.166 109.117C207.887 108.642 215.434 102.019 215.61 101.775Z" fill="#E30613"/>
</svg>
