<?xml version="1.0" encoding="utf-8"?>
<!-- Generator: Adobe Illustrator 21.0.2, SVG Export Plug-In . SVG Version: 6.00 Build 0)  -->
<svg version="1.1" id="Layer_1" xmlns="http://www.w3.org/2000/svg" xmlns:xlink="http://www.w3.org/1999/xlink" x="0px" y="0px"
	 viewBox="0 0 321 307.8" style="enable-background:new 0 0 321 307.8;" xml:space="preserve">
<style type="text/css">
	.st0{clip-path:url(#SVGID_2_);}
	.st1{fill:#ED2D30;}
	.st2{fill:#E31E25;}
	.st3{fill:#FFFFFF;}
	.st4{fill:#FEFEFE;}
	.st5{fill:#37762B;}
	.st6{fill:#DEA749;}
</style>
<title>7</title>
<g id="g10">
	<g id="g12">
		<g>
			<defs>
				<rect id="SVGID_1_" x="30" y="28.8" width="261" height="250.2"/>
			</defs>
			<clipPath id="SVGID_2_">
				<use xlink:href="#SVGID_1_"  style="overflow:visible;"/>
			</clipPath>
			<g class="st0">
				<g id="g14">
					<g id="g20">
						<path id="path22" class="st1" d="M134.5,129.4v39.5c-0.6-0.1-16.6-4.3-17.1-4.4c0-0.4,0-0.7,0-1.1c0-9.6-7.8-17.4-17.4-17.3
							c-6.9,0-13.1,4.1-15.9,10.4c-2.3-0.6-8.9-3-11.6-3.7C55,147.4,31.4,138.8,30,130.1v-1C32.5,115.7,101.3,122.6,134.5,129.4
							 M184.6,137.7c3.9,0.6,8,1.5,12.4,1.7c-0.5,3.5,1.5,5.2,6.7,6.6c4.8,1.3,2.1,0.5,7.1,1.6c0.8-0.7,1.3-1.8,1.7-3.5
							c0-0.1-2.7-0.1-3.3-0.6c-1.4-1.4,0.2-3.3,0.5-4.6c0.5-1.9-1.2-2.2,1.8-3.5c2.7-1.2,2.2-4.1,4.9-4.8c5.9-1.9,10.4,1.3,11.4,5.6
							s-1.4,9.5-5.4,10c-1.1,0.2-0.8,2.4-0.6,3.8c2.2,0.4,9.1,2,10.5,1.9c1.8,0,3.3-1.9,4.3-3.5c0.7-1.2,2.1-1.8,3.4-1.5
							c2.2,0.6,4,4.1,7,5.3c13.2,5.1,30,13.8,38.8,20.5c5.2,4,6.1,7.5,4.4,13.2c-1.5,4.8-4.8,8.9-8.9,9.1c-10.5,0.5-25-1.1-46.1-4.8
							c0-0.5,0.1-1.1,0.1-1.6c0-9.6-7.7-17.4-17.3-17.4c-8.3,0-15.5,5.9-17.1,14.1c-5.6-0.9-11.1-1.8-16.3-2.9L184.6,137.7"/>
					</g>
					<g id="g24">
						<path id="path26" class="st2" d="M91.4,140.6c13.7,2.9,29.7,6.1,43,8.8v-2.2c-14.6-2.9-28.8-6.1-43-9.6V140.6z"/>
					</g>
					<g id="g28">
						<path id="path30" class="st3" d="M241,165.3c-12.5-3.5-47.4-11.8-79.3-18.7v-3.3c36.3,7.9,75.4,17.4,82.4,20.4
							c1.6,0.7,1.1,0.6,0.1,1.3C243.2,165.6,242,165.7,241,165.3"/>
					</g>
					<g id="g32">
						<path id="path34" class="st3" d="M151.9,144.9c-17.8-4.1-39.2-8.7-58.9-12.5c-4.5-0.9-9.5-1.5-0.6-1.5c7.7,0,33.4,5,59.5,10.6
							L151.9,144.9z"/>
					</g>
					<g id="g36">
						<path id="path38" class="st3" d="M151.7,153c-19.1-4.4-61-13.2-81.9-18c-1.6-0.4-2.7-1-0.5-1c7.7,0,56.3,10,82.5,15.6
							L151.7,153z"/>
					</g>
					<g id="g40">
						<path id="path42" class="st3" d="M258.4,176.9c-17.6-4.9-61-14.6-97.8-22.4v-3.2c39.5,8.5,86.8,19.4,101.6,24.2
							c1.6,0.5,1.1,0.6,0.1,1.3C260.9,177.5,259.1,177.1,258.4,176.9"/>
					</g>
					<g id="g44">
						<path id="path46" class="st4" d="M74.4,33.9l26.7,53.7c2.2-1.6,4.5-3.2,6.9-4.8c3.8-2.4,7.7-4.6,11.7-6.5
							c5.7-2.7,11.7-4.7,17.9-6l4.8-1v159.9L131,225l-18.4,38.8c2.9,1.2,5.8,2.3,8.8,3.4c12.3,4.3,25.2,6.6,38.3,6.7
							c13-0.1,26-2.4,38.3-6.7c3-1.1,5.9-2.2,8.8-3.4L188.2,225l-11.5,4.3V69.4l4.8,1c6.2,1.3,12.2,3.3,17.9,6
							c4.1,1.9,8,4.1,11.8,6.5c2.4,1.5,4.7,3.1,6.9,4.8l26.7-53.7H74.4z"/>
					</g>
					<g id="g48">
						<path id="path50" class="st5" d="M82.9,39.2l20.2,40.6c4.6-3.1,9.5-5.8,14.5-8.1c6.9-3.3,14.2-5.6,21.8-6.9l8.4-1.4v173.4
							l-14.1-5.2l-14,29.4c12.7,4.9,26.3,7.5,39.9,7.6c13.6-0.1,27.2-2.7,39.9-7.6l-14-29.4l-14.1,5.2V63.4l8.5,1.4
							c7.5,1.3,14.9,3.6,21.8,6.9c5,2.4,9.9,5.1,14.5,8.1l20.2-40.6L82.9,39.2z"/>
					</g>
					<g id="g52">
						<path id="path54" class="st2" d="M218,173.6c8.2,0,14.9,6.6,14.9,14.8c0,8.2-6.6,14.9-14.8,14.9c-8.2,0-14.9-6.6-14.9-14.8
							c0,0,0,0,0,0C203.2,180.3,209.8,173.7,218,173.6"/>
					</g>
					<g id="g56">
						<path id="path58" class="st5" d="M67.9,28.8h185l-0.8,1.5l-31.7,63.9l-0.6,1.1l-1-0.8c-3.4-2.6-6.9-5.1-10.5-7.4
							c-3.6-2.3-7.3-4.4-11.2-6.2c-2.7-1.3-5.5-2.4-8.4-3.4c-2.3-0.8-4.7-1.4-7.1-2v146.3l8.1-3l0.9-0.3l0.4,0.9l21.9,45.9l0.5,1
							l-1,0.4c-4.3,1.8-8.6,3.6-13,5.1l0,0c-4.4,1.6-8.9,2.9-13.5,3.9c-4.4,1-8.8,1.8-13.3,2.3c-8.8,1-17.6,1-26.4,0
							c-4.5-0.5-8.9-1.3-13.3-2.3c-4.6-1.1-9-2.4-13.5-3.9c-4.4-1.5-8.7-3.3-13-5.1l-1-0.4l0.5-1l21.9-45.9l0.4-0.9l0.9,0.3l8.1,3
							V75.6c-2.4,0.5-4.7,1.2-7,2c-2.9,1-5.7,2.1-8.4,3.4c-3.8,1.8-7.6,3.9-11.1,6.3c-3.6,2.3-7.1,4.8-10.5,7.4l-1,0.8l-0.6-1.2
							L67,30.3l-0.7-1.5H67.9z"/>
					</g>
					<g id="g60">
						<path id="path62" class="st4" d="M74.4,33.9l26.7,53.7c2.2-1.6,4.5-3.2,6.9-4.8c3.8-2.4,7.7-4.6,11.7-6.5
							c5.7-2.7,11.7-4.7,17.9-6l4.8-1v159.9L131,225l-18.4,38.8c2.9,1.2,5.8,2.3,8.8,3.4c12.3,4.3,25.2,6.6,38.3,6.7
							c13-0.1,26-2.4,38.3-6.7c3-1.1,5.9-2.2,8.8-3.4L188.2,225l-11.5,4.3V69.4l4.8,1c6.2,1.3,12.2,3.3,17.9,6
							c4.1,1.9,8,4.1,11.8,6.5c2.4,1.5,4.7,3.1,6.9,4.8l26.7-53.7H74.4z"/>
					</g>
					<g id="g64">
						<path id="path66" class="st5" d="M82.9,39.2l20.2,40.6c4.6-3.1,9.5-5.8,14.5-8.1c6.9-3.3,14.2-5.6,21.8-6.9l8.4-1.4v173.4
							l-14.1-5.2l-14,29.4c12.7,4.9,26.3,7.5,39.9,7.6c13.6-0.1,27.2-2.7,39.9-7.6l-14-29.4l-14.1,5.2V63.4l8.5,1.4
							c7.5,1.3,14.9,3.6,21.8,6.9c5,2.4,9.9,5.1,14.5,8.1l20.2-40.6L82.9,39.2z"/>
					</g>
					<g id="g68">
						<path id="path70" class="st1" d="M100,148.6c8.2,0,14.8,6.7,14.8,14.9s-6.7,14.8-14.9,14.8c-8.2,0-14.8-6.7-14.8-14.9
							c0,0,0,0,0,0C85.2,155.2,91.8,148.6,100,148.6"/>
					</g>
					<g id="g72">
						<path id="path74" class="st4" d="M100,154c5.2,0,9.4,4.3,9.4,9.5c0,5.2-4.3,9.4-9.5,9.4c-5.2,0-9.4-4.2-9.4-9.4
							C90.6,158.2,94.8,154,100,154"/>
					</g>
					<g id="g76">
						<path id="path78" class="st1" d="M100,156.9c3.6,0,6.5,2.9,6.5,6.5s-2.9,6.5-6.5,6.5c-3.6,0-6.5-2.9-6.5-6.5
							S96.4,156.9,100,156.9"/>
					</g>
					<g id="g80">
						<path id="path82" class="st6" d="M99.7,204.3H87.4c3.6,5.3,7.7,10.3,12.3,14.7c3.8,3.6,7.8,6.9,12.2,9.8l0-24.6H99.7z
							 M99.7,240.7c-2.9,1.8-5.5,4.1-7.6,6.8c-2.5-1.8-4.8-3.7-7.1-5.7c4.6-5.2,6.5-11.9,5.5-13.5c-1.7-1-8.1,1.4-13.2,6.1
							c-2.1-2.2-4.1-4.5-6-6.9c5.6-4.5,8.5-10.6,7.7-12.3c-1.6-1.1-8.6,0.1-14,3.7c-1.6-2.5-3.3-5.1-4.7-7.8
							c5.8-3.2,10.1-8.9,9.8-10.7c-1.5-1.3-8.6-1.3-14.4,1.2c-1.2-2.8-2.3-5.6-3.3-8.5c6.4-2.2,11.6-6.8,11.5-8.9
							c-1.1-1.7-8.1-2.8-14.4-1.3c-0.7-2.9-1.3-5.9-1.7-8.9c6.9-1.1,12.4-4.8,12.9-6.8c-0.9-2.1-7.6-4.3-14-3.8
							c-0.1-2.2-0.2-4.4-0.2-6.6v-2.5c5.8,0.1,11.1-1.8,12.8-3.5c3.7,1.3,7.3,2.4,10.8,3.5l3.1,1.1c0,0.5-0.1,1,0,1.4
							c0,13.2,3.1,26.3,8.9,38.1h32.7l19.7-19.5v13l-13.3,13.2v25.1L106.9,257c-2-1.1-4-2.2-5.9-3.4c3.7-6.2,4.5-12.8,3.1-14.2
							C103.2,239.2,101.5,239.7,99.7,240.7"/>
					</g>
					<g id="g84">
						<path id="path86" class="st6" d="M53.8,119.2l-0.7-0.4c1-2.9,2.2-5.7,3.4-8.4c6,2.7,12.6,2.9,14.5,1.2c0-2.4-3.8-7.4-9.6-10.8
							c1.5-2.6,3.1-5.2,4.8-7.7c5.6,3.8,11.9,4.9,14.1,3.7c0.6-2.4-2.4-7.7-7.7-12.2c2-2.3,4-4.6,6.1-6.7c3.1,3.2,7.2,5.3,11.6,6
							l6.7,13.5c-3.8,4-7.1,8.3-10.1,12.9h26.9V88.9c3-1.9,6.1-3.6,9.3-5.1V113l11.5,11.5v2.3c-1.7-0.3-3.4-0.7-5.2-1
							c-2.5-0.5-5.1-0.9-7.9-1.4l-4.9-5L53.8,119.2z"/>
					</g>
					<g id="g88">
						<path id="path90" class="st6" d="M235,193.2c-0.5,2.4-4.5,9.1-9.6,10.9h6.4c-6.5,10-15,18.5-24.9,25l0-25h3.6
							c-5-2.4-8.6-7.1-9.6-12.6l-4.1-4.2c-1.7-0.3-3.3-0.6-4.9-0.8l-7.3-1.4v3.1l13,13v24.9l9.8,20.6c1.2,0.4,4.4,2,8,8.4
							c2.6-1.5,5.2-3.1,7.7-4.8c-3.8-5.6-5-12.6-3.8-14.1c1.8-0.8,7.9,2.3,12.3,7.6c2.3-2,4.6-4,6.7-6.1c-4.8-4.9-7.1-11.6-6.1-13.1
							c1.5-1.1,8.2,0.9,13.5,5.3c1.9-2.3,3.8-4.7,5.6-7.1c-5.8-4.1-9.1-10.1-8.3-11.9c1.5-1.5,8.1-0.6,14.1,3c1.5-2.6,3-5.3,4.3-8
							c-6.8-3.3-10.6-8.4-10.2-10.3C246.9,195,239.6,194,235,193.2"/>
					</g>
					<g id="g92">
						<path id="path94" class="st6" d="M197.8,84.6v27.8l-13.2,13.1v9.8l0.3,0c0.8,0.1,1.6,0.3,2.4,0.4l16.9-16.8h32.8
							c4.5,9.1,7.3,19,8.3,29.1c0.7,0.8,1.5,1.4,2.4,1.9c5,2,10.6,4.4,16,7.1c2.8-1,5.7-1.5,8.7-1.5c0-3-0.2-6.1-0.5-9
							c-7.2,0.7-13.3-1.4-14.1-3.4c0.2-2.3,5.5-5.8,12.6-7.1c-0.6-3-1.2-6-2-8.9c-6.8,1.9-13.5,0.7-14.4-0.9
							c-0.1-2,4.6-6.8,11.2-9.2c-1.1-2.8-2.3-5.6-3.5-8.4c-6.3,3-13.2,3-14.5,1.5c-0.4-1.8,3.3-7.3,9.4-11c-1.5-2.6-3.2-5.1-4.9-7.6
							c-5.5,3.8-12.1,5.5-13.9,4.2c-0.7-2.3,2.2-8,7.3-12.5c-2-2.3-4-4.5-6.1-6.7c-4.9,4.9-7.8,5.4-9.4,5.6l-7.6,15.3
							c3.6,3.7,6.8,7.8,9.7,12.2h-24.8V89.9c-0.1-0.1-0.2-0.2-0.4-0.2C203.9,87.8,200.9,86.1,197.8,84.6"/>
					</g>
					<g id="g96">
						<path id="path98" class="st3" d="M61.9,150.2c0.2-2.4,0.5-4.8,0.8-7.2l2.1,0.5c-0.4,2.4-0.6,4.9-0.8,7.3L61.9,150.2 M74.1,154
							l-2-0.6l-0.1,0c0.1-2.7,0.4-5.3,0.8-7.9l2.1,0.5C74.5,148.6,74.3,151.3,74.1,154 M69,152.5l-2.1-0.7c0.2-2.6,0.4-5.1,0.8-7.6
							l2.1,0.5C69.5,147.3,69.2,149.9,69,152.5"/>
					</g>
					<g id="g100">
						<path id="path102" class="st1" d="M218,173.6c8.2,0,14.8,6.7,14.8,14.9c0,8.2-6.7,14.8-14.9,14.8s-14.8-6.7-14.8-14.9
							c0,0,0,0,0,0C203.2,180.2,209.8,173.6,218,173.6"/>
					</g>
					<g id="g104">
						<path id="path106" class="st4" d="M218,179c5.2,0,9.4,4.3,9.4,9.5c0,5.2-4.3,9.4-9.5,9.4c-5.2,0-9.4-4.2-9.4-9.4
							C208.6,183.2,212.8,179,218,179"/>
					</g>
					<g id="g108">
						<path id="path110" class="st1" d="M218,181.9c3.6,0,6.5,2.9,6.5,6.5s-2.9,6.5-6.5,6.5s-6.5-2.9-6.5-6.5S214.4,181.9,218,181.9
							"/>
					</g>
				</g>
			</g>
		</g>
	</g>
</g>
</svg>
