<svg width="350" height="350" viewBox="0 0 350 350" fill="none" xmlns="http://www.w3.org/2000/svg">
<path d="M175 325C257.843 325 325 257.843 325 175C325 92.1573 257.843 25 175 25C92.1573 25 25 92.1573 25 175C25 257.843 92.1573 325 175 325Z" fill="#0056A3"/>
<path d="M175 29.2C94.5002 29.2 29.2002 94.4999 29.2002 175H68.9002C68.9002 116.4 116.3 68.9 175 68.9C233.5 68.9 281.1 116.4 281.1 175H320.8C320.8 94.4999 255.6 29.2 175 29.2Z" fill="white"/>
<path d="M45.1001 146.9C47.0001 140.7 50.5001 138.2 55.4001 139.1C60.5001 140 62.6001 143.8 62.1001 150.2L64.2001 150.6L63.1001 156.4L61.0001 156C59.3001 162.2 55.8001 164.7 50.8001 163.8C45.8001 162.9 43.6001 159.1 44.2001 152.8L42.6001 152.5L43.7001 146.7L45.1001 146.9ZM57.7001 149.4C57.6001 148.3 57.3001 147.5 56.6001 146.7C55.9001 146 55.1001 145.5 54.1001 145.4C53.2001 145.3 52.1001 145.3 51.3001 145.7C50.4001 146.1 49.7001 146.8 49.2001 147.7L57.7001 149.4ZM56.6001 155.2L48.0001 153.6C48.1001 154.5 48.5001 155.5 49.2001 156.1C49.9001 156.9 50.8001 157.3 51.7001 157.4C52.6001 157.5 53.6001 157.4 54.4001 157C55.4001 156.8 56.1001 156.1 56.6001 155.2ZM47.2001 132.1L63.9001 131.3C64.8001 132 65.0001 133 64.4001 134.5C64.3001 134.9 63.9001 135.7 63.3001 136.6L67.3001 138.2C68.2001 136.6 68.8001 135.4 69.0001 134.7C69.5001 133.4 69.8001 132.3 69.7001 131.4C69.6001 130.5 69.3001 129.7 68.9001 129.1C68.5001 128.4 67.7001 127.6 66.8001 126.7L54.5001 114.3L52.0001 120.5L59.0001 126.4L49.9001 125.9L47.2001 132.1ZM57.1001 109.9L67.8001 93.3L72.2001 96.1L68.6001 101.7L81.9001 110.3L78.4001 115.8L65.1001 107.2L61.5001 112.8L57.1001 109.9ZM82.6001 88.7L79.8001 86.1L87.6001 78.1L84.5001 75.2L72.1001 87.8L87.2001 102.4L95.0001 94.4C96.9001 92.5 97.8001 90.6 98.1001 88.9C98.4001 87.2 97.7001 85.7 96.4001 84.3C94.7001 82.7 92.9001 82 91.0001 82.3C89.1001 82.6 87.1001 83.9 84.8001 86.2L82.6001 88.7ZM88.6001 94.6L85.7001 91.7L88.0001 89.3C89.5001 87.8 90.5001 87.6 91.5001 88.5C92.6001 89.6 92.4001 90.8 91.0001 92.3L88.6001 94.6ZM97.2001 77.6C95.3001 74.7 94.8001 72 95.3001 69.3C96.0001 66.6 97.7001 64.5 100.5 62.6C103.4 60.7 106.3 60.1 108.8 60.7C111.3 61.2 113.6 63 115.4 65.9C116.7 68 117.4 69.9 117.5 71.7C117.6 73.4 117.2 75.2 116.4 76.7C115.6 78.3 114.1 79.6 112.1 80.9C110.1 82.1 108.2 82.9 106.5 83C104.8 83.1 103 82.9 101.4 81.9C100 81.2 98.5001 79.8 97.2001 77.6ZM102.8 74.3C103.9 76 105.1 77.2 106.3 77.5C107.5 77.9 108.6 77.6 109.8 77C111 76.2 111.7 75.3 111.8 74.2C111.9 73 111.4 71.4 110.2 69.4C109.1 67.7 108.1 66.7 106.9 66.3C105.7 65.9 104.6 66.2 103.4 66.8C102.3 67.5 101.7 68.4 101.5 69.6C101.2 70.9 101.6 72.4 102.8 74.3ZM142.3 66.1L136.3 68.4L130.7 53.5L126 55.4L128.3 61.4C129.2 63.9 129.8 65.8 130 67C130.1 68.2 129.9 69.4 129.2 70.2C128.4 71.1 126.9 71.9 124.8 72.9C124.1 73.2 123.3 73.4 122.4 73.6L120.9 69.6L121.8 69.2C122.6 68.9 123.1 68.5 123.3 68C123.5 67.5 123.4 66.8 123 65.9L118 52.9L134.9 46.5L142.3 66.1ZM150.5 51L154 50.3C157.1 49.8 159.6 49.9 161.2 50.7C162.9 51.5 164 53.1 164.4 55.5C164.8 57.4 164.3 59 163.1 60.3C161.9 61.5 160 62.4 157.3 62.8L146.3 64.7L142.7 44L149.1 42.9L150.5 51ZM152 59.3L155.2 58.8C157.2 58.4 158.1 57.6 157.9 56.1C157.6 54.8 156.6 54.4 154.6 54.8L151.4 55.3L152 59.3ZM169 40.7H175.4V48H182.5V40.6H189.1V62H182.5V53.2H175.4V61.9H169V40.7ZM202.9 52.1L206.2 53C209.3 53.8 211.4 55 212.6 56.5C213.8 58 214.1 59.8 213.4 62.1C212.9 64 211.8 65.2 210.2 65.9C208.6 66.6 206.4 66.6 203.9 65.8L193.2 62.9L198.6 42.4L205 43.7L202.9 52.1ZM200.7 60.1L203.9 60.9C205.9 61.4 207 61 207.4 59.6C207.7 58.4 206.9 57.5 205 56.9L201.8 56.1L200.7 60.1ZM220.5 48.3L213.1 68.1L219.7 70.8L227.1 50.8L220.5 48.3ZM251.2 63.7L241 82L235.6 79.1L241.2 69.1L228.8 75.4L223.4 72.5L233.6 54.2L239 57.1L233.4 67.3L246 61L251.2 63.7ZM249.5 56.9L247.4 55.7C246.5 56.5 245.4 56.6 244.2 56C243 55.4 242.6 54.4 242.7 53.2L240.6 52C240.2 53.2 240.2 54.3 240.7 55.3C241.2 56.4 242 57.3 243.1 58C244.3 58.7 245.4 58.9 246.6 58.7C247.7 58.5 248.8 57.8 249.5 56.9ZM265.1 105.2L260 100L262.1 94.4C262.6 93.1 262.9 92.1 262.9 91.7C262.9 91.3 262.6 90.8 262.2 90.4L256.2 96.2L251.6 91.5L266.7 76.9L271.3 81.6L265.5 87.2C265.9 87.6 266.3 87.7 266.8 87.7C267.3 87.7 268.4 87.3 270.1 86.5C271.4 86 272.4 85.7 273.2 85.6C274 85.6 274.8 85.9 275.7 86.5C276.6 87.2 278 88.4 279.6 90L276.4 93.1L276.1 92.8C275.3 92 274.6 91.6 274 91.5C273.3 91.4 272.5 91.5 271.6 91.9C270.7 92.3 269.9 92.6 269.3 92.6C268.6 92.6 268.1 92.5 267.4 92.2C267.8 93.1 268.1 94.1 267.9 95C267.9 96.1 267.5 97.4 267 99L265.1 105.2ZM277.1 124.8L294.9 113.3L285.3 98.2L273.6 105.8C272.8 106.3 272 106.6 271.5 106.5C271 106.4 270.4 106 270 105.3L269.5 104.5L265.9 106.8C266.3 107.6 266.7 108.4 267 108.9C268.2 110.8 269.4 112.1 270.5 112.7C271.6 113.2 272.6 113.4 273.8 112.8C275 112.4 276.7 111.5 278.9 110L284.4 106.5L286.9 110.8L273.6 119.5L277.1 124.8ZM297.3 119.4L300 126L293 131.9L302.1 131.4L304.5 137.6L286.8 137.3C285.3 137.3 284.3 137.2 283.6 137C282.8 136.9 282.1 136.5 281.5 135.8C280.8 135.1 280.2 134.2 279.6 132.9C279.3 132.2 278.9 130.9 278.4 129.1L282.4 127.5C282.7 128.6 282.9 129.4 283.2 129.8C283.7 131.1 284.7 131.8 285.7 131.7L297.3 119.4ZM299 150.4L299.7 153.7C300.4 156.8 300.2 159.2 299.4 160.9C298.6 162.6 297 163.7 294.7 164.1C292.8 164.5 291.2 164.1 289.9 162.9C288.6 161.7 287.8 159.8 287.2 157.3L285.1 146.3L305.7 142.3L309 159.7L304.8 160.5L302.7 149.5L299 150.4ZM290.7 152L291.4 155.2C291.8 157.2 292.7 158 294.2 157.7C295.4 157.4 295.9 156.4 295.5 154.4L294.8 151.2L290.7 152Z" fill="#0056A3"/>
<path d="M75.9998 206.6C75.8998 206.2 75.5998 205.9 75.2998 205.7C74.8998 205.4 74.4998 205.2 73.9998 204.9C73.4998 204.6 72.8998 204.4 72.2998 204C71.4998 203.5 70.6998 203.1 69.7998 202.5C68.8998 202 67.8998 201.6 66.8998 201.2C65.7998 200.8 64.7998 200.4 63.5998 200.3C62.3998 200 61.1998 200 59.9998 200C58.7998 200 57.4998 200.3 56.1998 200.7C54.9998 201.1 54.0998 201.6 53.0998 202.2C52.2998 202.7 51.4998 203.4 50.7998 204.1C50.0998 204.8 49.5998 205.6 49.0998 206.5C48.5998 207.4 48.1998 208.4 47.5998 209.4C47.1998 210.5 46.6998 211.7 46.0998 212.9C45.6998 213.8 45.3998 214.6 45.1998 215.3C45.0998 215.8 44.8998 216.4 44.7998 216.6C44.7998 216.9 44.7998 217.1 44.7998 217.3C44.8998 217.6 45.0998 217.7 45.2998 218C45.4998 218.3 45.9998 218.4 46.4998 218.7C46.9998 219 47.6998 219.4 48.5998 219.8C49.8998 220.5 51.0998 221.1 52.1998 221.7C53.2998 222.2 54.2998 222.6 55.2998 223C56.1998 223.4 57.2998 223.7 58.1998 223.8C59.0998 223.9 60.0998 224.1 61.0998 223.9C61.9998 223.8 63.0998 223.6 64.2998 223.2C65.5998 222.7 66.7998 222.1 67.7998 221.3C68.6998 220.5 69.4998 219.7 70.1998 218.8C70.8998 217.9 71.3998 216.9 71.7998 216C72.1998 215.1 72.6998 214 72.9998 213.1C73.3998 212.2 73.7998 211.2 74.1998 210.4C74.4998 209.9 74.6998 209.3 74.9998 208.9C75.2998 208.5 75.3998 208.1 75.4998 207.8C75.9998 207.1 75.9998 206.9 75.9998 206.6ZM69.6998 205.8C69.3998 206.1 69.1998 206.3 68.8998 206.6C68.5998 206.9 68.3998 207.3 68.0998 207.7C67.7998 208.1 67.5998 208.6 67.1998 209.3C66.7998 210 66.3998 210.9 65.6998 212C64.9998 213.3 64.1998 214.5 63.6998 215.6C62.9998 216.7 62.4998 217.6 61.7998 218.4C61.2998 219.2 60.5998 219.7 59.8998 220.1C59.5998 220.2 59.4998 220.4 59.1998 220.4C58.8998 220.5 58.6998 220.5 58.4998 220.5C57.6998 220.6 56.8998 220.6 55.9998 220.4C55.0998 220.1 54.2998 219.7 53.2998 219.3C52.4998 218.8 51.6998 218.1 51.1998 217.4C51.5998 217.3 51.9998 217 52.2998 216.7C52.5998 216.4 52.7998 216.2 53.0998 215.8C53.3998 215.4 53.5998 215 53.8998 214.5C54.1998 214 54.3998 213.3 54.7998 212.5C55.1998 211.7 55.5998 210.8 56.2998 209.7C56.7998 208.6 57.3998 207.7 57.9998 206.8C58.5998 205.9 59.1998 205.2 59.8998 204.5C60.5998 203.8 61.3998 203.4 62.1998 203.2C62.6998 203.1 63.3998 202.9 64.0998 202.9C64.7998 202.9 65.5998 203 66.1998 203.2C66.8998 203.5 67.6998 203.7 68.1998 204.3C68.7998 204.3 69.2998 205 69.6998 205.8ZM75.7998 249.1H80.7998C80.8998 249.6 80.8998 250 81.0998 250.4C81.0998 250.8 81.1998 251.2 81.3998 251.5C81.4998 251.9 81.6998 252.2 81.7998 252.4C81.8998 252.7 82.1998 253.1 82.4998 253.5C83.1998 254.4 84.0998 255.1 84.9998 255.5C85.8998 255.9 86.8998 256.2 87.8998 256.2C88.9998 256.2 89.8998 256.1 90.7998 255.7C91.6998 255.3 92.6998 254.9 93.4998 254.2C94.5998 253.4 95.3998 252.5 95.7998 251.4C96.2998 250.3 96.5998 249.1 96.5998 247.9C96.5998 246.7 96.2998 245.4 95.7998 244.1C95.2998 242.8 94.5998 241.6 93.4998 240.2C92.3998 238.9 91.3998 237.9 89.9998 237.1C88.6998 236.4 87.2998 235.9 85.9998 235.8C84.6998 235.7 83.1998 235.7 81.7998 236.1C80.9998 236.6 80.1998 237.2 79.6998 237.7C78.9998 238.1 78.4998 238.6 78.0998 238.9C77.5998 239.3 77.1998 239.7 76.5998 240L64.0998 249.8L61.9998 247L60.4998 248.1L69.0998 259.1L70.5998 258L68.4998 255.2L75.7998 249.1ZM77.8998 247.5L82.4998 243.9C82.9998 243.5 83.5998 243.1 84.1998 242.6C84.8998 242.1 85.4998 241.7 86.1998 241.3C86.8998 240.9 87.4998 240.5 88.1998 240.4C88.8998 240.1 89.4998 240.1 90.0998 240.3C90.7998 240.4 91.2998 240.8 91.6998 241.4C92.1998 242.1 92.3998 242.7 92.3998 243.3C92.3998 244 92.0998 244.5 91.8998 245.2C91.4998 245.9 91.0998 246.4 90.3998 246.9C89.8998 247.4 89.1998 248 88.6998 248.4C87.7998 249.1 87.0998 249.6 86.2998 249.9C85.5998 250.2 85.0998 250.3 84.5998 250.3C84.0998 250.3 83.6998 250.3 83.3998 250C83.0998 249.9 82.8998 249.6 82.6998 249.5C82.4998 249.4 82.5998 249.2 82.3998 249.1C82.3998 249 82.2998 248.7 82.2998 248.4C82.2998 248.1 82.2998 248 82.2998 247.7L77.8998 247.5ZM112.7 278.3L111.8 279.9L121 285.4L121.9 283.8L120.4 282.9C120.5 282 120.5 281 120.4 280.2C120.3 279.4 120 278.6 119.5 277.8C119.1 277.1 118.6 276.5 118 275.9C117.5 275.4 116.8 274.8 116.3 274.6C115.5 274.1 114.6 273.7 113.8 273.4C113 273.1 112.1 273 111.3 273C110.5 273 109.7 273 108.9 273.1C109 273 109 272.8 109.2 272.6C109.3 272.5 109.3 272.3 109.5 272.2C109.8 271.7 110.2 271.1 110.6 270.6C111 269.9 111.5 269.4 112.1 268.7C112.6 268 113.2 267.5 113.8 267.1C114.5 266.6 115.1 266.2 115.8 265.9C116.5 265.6 117.3 265.5 117.9 265.5C118.7 265.5 119.5 265.8 120.3 266.3C121.1 266.8 121.8 267.4 122.2 267.9C122.6 268.6 122.9 269.1 123 269.8C123.1 270.5 123.1 271.1 123.1 271.7C123 272.4 122.8 272.9 122.7 273.4L121.5 272.7L120.6 274.3L129.8 279.8L130.7 278.2L129 277.1C129.1 275.9 129.1 274.8 129 273.9C128.9 272.8 128.5 271.9 128.1 271.1C127.7 270.2 127.2 269.4 126.5 268.7C125.8 268 125.2 267.4 124.5 266.7C123.8 266.2 123 265.6 122.4 265.2C121.7 264.8 120.8 264.3 119.9 263.9C119 263.5 117.9 263.1 116.7 263C115.5 262.7 114.4 262.6 113.1 262.7C111.9 262.7 110.7 263 109.3 263.4C108.1 263.8 106.9 264.6 105.7 265.5C104.5 266.4 103.4 267.8 102.5 269.5C102.1 270.2 101.7 271 101.4 271.6C101.1 272.3 101 273.1 100.9 273.9C100.8 274.7 100.8 275.6 100.9 276.7C101 277.8 101.2 279 101.3 280.5C101.4 281 101.4 281.6 101.4 282.2C101.4 282.7 101.4 283.4 101.4 284.1C101.4 284.8 101.1 285.3 101 286C100.7 286.7 100.5 287.2 99.8998 287.7C100.2 288.1 100.6 288.4 101 288.8C101.4 289.2 101.9 289.6 102.5 290C103 290.4 103.6 290.8 104.1 291.1C104.6 291.5 105.2 291.8 105.6 292C106.7 292.7 107.7 293.1 108.9 293.3C110.1 293.6 111.4 293.7 112.8 293.7C114.2 293.7 115.5 293.4 116.8 293C118.1 292.6 119.5 292.1 120.7 291.4L122 292.2L122.9 290.7L113.1 284.8L112.2 286.3L114.1 287.4C113.8 287.7 113.4 288.1 113 288.5C112.6 288.9 112.1 289.2 111.4 289.6C110.7 289.9 110.1 290.1 109.3 290.3C108.5 290.5 107.7 290.4 106.8 290.2C105.9 290.1 104.9 289.7 103.9 289C103.6 288.9 103.4 288.6 103.1 288.5C103 288.4 102.8 288.1 102.7 288C102.8 287.9 103 287.7 103.2 287.6C103.3 287.5 103.5 287.3 103.7 287.1C103.8 286.8 104.1 286.6 104.2 286.3C104.6 285.6 104.9 285.1 105.1 284.6C105.4 284.1 105.5 283.7 105.6 283.1C105.7 282.7 105.9 282.2 106 281.8C106.1 281.3 106.3 280.7 106.4 280.2C106.5 279.5 106.8 278.9 107.1 278.1C107.4 277.3 107.8 276.2 108.3 275C109 274.9 109.5 274.7 110.2 274.7C110.9 274.7 111.4 274.8 111.9 275.1C112.4 275.2 113 275.5 113.4 275.8C113.7 275.9 113.8 276.2 114.1 276.5C114.4 276.8 114.5 277.2 114.5 277.7C114.6 278.2 114.5 278.8 114.4 279.4L112.7 278.3ZM152.1 291.7L160.7 297.9L158.7 308.1L155.8 307.6L155.4 309.3L168.4 311.8L168.8 310.1L165.3 309.4L170.4 283.3L173.9 284L174.3 282.3L161.3 279.8L160.9 281.5L163.8 282L161.3 295.3L152.8 289L154.5 280.2L157.4 280.7L157.8 279L144.8 276.5L144.4 278.2L147.9 278.9L142.8 305L139.3 304.3L138.9 306L151.9 308.5L152.3 306.8L149.4 306.3L152.1 291.7ZM184.5 280.9L184.9 282.6L188.4 281.8L194.4 307.8L190.9 308.6L191.3 310.3L212.2 305.5C212.7 305.4 213.1 305.2 213.4 305.1C213.7 305 213.9 304.8 214.1 304.6C214.2 304.3 214.4 304.1 214.4 303.7C214.4 303.3 214.3 302.8 214.1 302.1L212.2 293.9C212.1 293.2 211.8 292.7 211.7 292.3C211.4 291.9 211.3 291.8 210.9 291.6C210.6 291.5 210.4 291.5 210 291.5C209.6 291.5 209.3 291.6 208.9 291.8C208.6 291.9 208.4 291.9 208.1 292.1C207.8 292.2 207.6 292.2 207.3 292.4C206.6 292.5 205.8 292.7 205 292.7C204.1 292.7 203.3 292.7 202.3 292.6C201.4 292.5 200.4 292.3 199.6 292.1C198.8 291.9 198 291.6 197.3 291.2L194.9 280.6L196.5 280.2C197.2 280.1 197.7 279.9 198.2 279.8C198.7 279.7 199.4 279.7 199.9 279.8C200.4 279.9 201.1 280.2 201.6 280.6C202.1 281 202.8 281.7 203.3 282.6C203.6 283 203.8 283.4 204 283.8C204.1 284.2 204.4 284.6 204.5 284.9C204.6 285.2 204.9 285.4 205.2 285.6C205.5 285.7 205.7 285.9 206 285.7C206.3 285.6 206.5 285.4 206.7 284.9C206.8 284.5 207 284 207.1 283.4C207.2 282.7 207.2 282.2 207.2 281.4C207.2 280.7 207.2 280.1 207.2 279.4C207.2 278.7 207.1 278.2 207.1 277.8C207.1 277.4 207 277 207 276.9C206.9 276.6 206.9 276.4 206.6 276.1C206.5 275.8 206.2 275.7 206.1 275.6C205.8 275.5 205.6 275.5 205.3 275.6C205 275.7 204.8 275.7 204.6 275.9C204.5 276 204.2 276 204.1 276.2C203.8 276.3 203.6 276.5 203.3 276.6C202.9 276.7 202.5 276.9 201.8 277.1C201.1 277.2 200.3 277.5 199.4 277.8L184.5 280.9ZM201 306.4L197.8 292.6C198.3 293 198.9 293.3 199.4 293.5C199.9 293.7 200.5 294 201 294.2C201.5 294.3 202.2 294.6 203 294.9C203.7 295.2 204.3 295.3 204.7 295.4C205.1 295.5 205.4 295.7 205.6 295.8C205.7 295.9 205.9 296.1 206 296.3C206.1 296.5 206.1 296.7 206.3 297.1L207.4 301.9C207.5 302.6 207.7 303.1 207.7 303.5C207.7 303.9 207.7 304.2 207.6 304.4C207.5 304.7 207.3 304.8 207.1 304.9C206.8 305 206.6 305 206.3 305.2L201 306.4ZM249.9 285.1L249 283.6L247.1 284.8C245 278.8 243.2 275.2 241.5 268.9C241.2 268.1 241.1 267.3 241.1 266.6C241.1 265.9 241.1 265.3 241.4 264.6C241.7 264.1 242.1 263.5 242.6 263.1C243 262.8 243.3 262.7 243.8 262.7C244.2 262.7 244.7 262.6 245.3 262.6L245.8 262.2C245.3 261.5 244.9 260.9 244.6 260.5C244.3 260.1 244.1 259.7 244.1 259.4C244 259.1 244 258.9 243.8 258.7C243.8 258.6 243.8 258.4 243.7 258.2C243.7 258.1 243.7 257.9 243.6 257.7C243.6 257.4 243.5 257.2 243.2 256.9C242.9 256.8 242.7 256.8 242.4 256.8C242.1 256.8 241.7 256.9 241.3 257.1C240.9 257.2 240.6 257.4 240.2 257.5C239.8 257.6 239.5 257.8 239.4 257.9C238.7 258.4 238.2 259 237.8 259.5C237.5 260.2 237.3 260.7 237.3 261.5C237.3 262.2 237.3 263 237.4 263.6C237.5 264.3 237.7 265.1 237.9 265.7C238 266 238 266.4 238.3 267C238.4 267.5 238.7 268.3 239 269.4C240.6 274.6 241.8 277.6 243.8 282.7L227.5 268.5L230 266.9L229.1 265.4L219.3 271.7L220.2 273.2L221.7 272.3L242.2 290.1L245.5 288C247.1 291.3 248.2 293.6 250.2 296.7L253.4 294.3C253.4 294 253.3 293.9 253.1 293.8C253 293.7 252.8 293.5 252.7 293.4C250.3 291.3 249.2 289.4 247.7 286.6L249.9 285.1ZM272.5 251.5L271.3 246.8C271.8 246.5 272.2 246.4 272.5 246.3C272.9 246.2 273.2 246 273.6 245.8C273.9 245.7 274.3 245.4 274.5 245.3C274.8 245 275 244.8 275.3 244.4C276 243.5 276.5 242.5 276.6 241.5C276.7 240.6 276.7 239.5 276.5 238.6C276.2 237.7 275.8 236.7 275.3 235.8C274.8 235 274 234.2 273.2 233.5C272.1 232.7 271.1 232.2 269.9 231.9C268.7 231.6 267.6 231.6 266.4 232C265.2 232.3 264 232.8 262.9 233.6C261.7 234.4 260.6 235.5 259.7 236.7C258.6 238 258 239.4 257.6 240.9C257.2 242.4 257.1 243.7 257.3 245.2C257.4 246.5 257.8 247.9 258.6 249.1C259.4 249.8 260.1 250.3 260.6 250.8C261.1 251.3 261.7 251.7 262.2 252.1C262.7 252.5 263.1 252.9 263.7 253.2L276.2 263L273.9 265.8L275.4 266.9L284 255.9L282.5 254.8L280.2 257.6L272.5 251.5ZM270.5 249.9L265.9 246.3C265.4 245.9 264.8 245.5 264.2 245C263.5 244.5 263 243.9 262.3 243.4C261.8 242.9 261.2 242.2 260.8 241.7C260.4 241.2 260.3 240.5 260.1 239.8C260.1 239.1 260.2 238.6 260.8 237.9C261.4 237.2 261.9 236.8 262.5 236.7C263.2 236.6 263.7 236.6 264.4 236.8C265.1 237.1 265.7 237.3 266.4 237.7C267.1 238.1 267.7 238.6 268.3 239C269.2 239.7 269.9 240.3 270.3 240.9C270.7 241.4 271.1 242 271.1 242.5C271.2 242.9 271.2 243.3 271.1 243.7C271 244.1 270.8 244.4 270.7 244.5C270.6 244.6 270.4 244.8 270.3 244.8C270.2 244.9 269.9 245.1 269.8 245.1C269.5 245.2 269.4 245.2 269.3 245.2L270.5 249.9ZM272.1 216.8L273.8 217.3L274.9 214L300.2 222.2L299.1 225.5L300.8 226L305.1 212.7L303.4 212.2L302.3 215.5L277 207.3L277.8 204.9C277.9 204.4 278.2 203.7 278.3 203.2C278.6 202.7 278.8 202.1 279.2 201.7C279.6 201.3 280.1 200.9 280.8 200.6C281.5 200.3 282.3 200.2 283.5 200.1C283.9 200.1 284.4 200.1 284.8 200.1C285.2 200.1 285.6 200.1 286 200.1C286.4 200.1 286.7 200.1 286.9 200C287.1 199.9 287.3 199.6 287.4 199.3C287.5 199 287.4 198.6 287.1 198.4C286.8 198 286.4 197.6 286 197.3C285.5 196.9 284.9 196.5 284.4 196.2C283.9 195.8 283.2 195.5 282.7 195.3C282.2 195 281.6 194.8 281.2 194.5C280.8 194.4 280.5 194.2 280.4 194.1C280.1 194 279.9 194 279.6 194C279.3 194 279.1 194.1 278.9 194.3C278.6 194.4 278.5 194.7 278.4 195C278.3 195.7 278 196.1 278 196.5C277.9 196.9 277.9 197.2 277.9 197.3C277.9 197.4 277.9 197.7 277.9 197.7C277.9 197.8 277.9 198 277.9 198.1C277.9 198.2 277.9 198.4 277.9 198.6C277.9 198.8 277.8 199.1 277.6 199.5C277.5 199.9 277.3 200.4 277.1 201.2L272.1 216.8Z" fill="white"/>
<path d="M173.509 242.644C136.409 242.644 106.409 212.644 106.409 175.544C106.409 138.444 136.409 108.444 173.509 108.444C210.609 108.444 240.609 138.444 240.609 175.544C240.609 212.644 210.409 242.644 173.509 242.644Z" fill="white"/>
<path d="M173.7 256.549C129.12 256.549 92.8506 220.28 92.8506 175.7C92.8506 131.12 129.12 94.8506 173.7 94.8506C218.28 94.8506 254.549 131.12 254.549 175.7C254.549 220.28 218.28 256.549 173.7 256.549ZM173.7 96.9492C130.277 96.9492 94.9492 132.277 94.9492 175.7C94.9492 219.123 130.277 254.451 173.7 254.451C217.124 254.451 252.451 219.123 252.451 175.7C252.451 132.277 217.124 96.9492 173.7 96.9492Z" fill="white"/>
<path d="M173.509 228.744C202.891 228.744 226.709 204.925 226.709 175.544C226.709 148.237 206.132 125.749 179.641 122.707C178.86 122.627 178.079 122.542 177.291 122.498C177.29 122.497 177.287 122.494 177.285 122.492C176.037 122.404 174.78 122.344 173.509 122.344C160.488 122.344 148.566 127.028 139.319 134.795C139.309 134.879 139.299 134.951 139.291 134.998C132.691 140.498 127.591 147.498 124.291 155.498C124.272 155.506 124.238 155.523 124.215 155.532C121.704 161.711 120.309 168.463 120.309 175.544C120.309 204.925 144.128 228.744 173.509 228.744Z" fill="black"/>
<path d="M177.991 192.198C174.991 193.098 170.291 194.398 167.991 195.098L160.591 216.298C161.491 217.298 164.991 220.698 168.091 222.698C170.891 224.498 174.691 226.798 176.491 227.698C185.691 227.098 194.391 224.098 201.791 219.298C202.791 217.298 204.491 213.098 205.291 210.298C206.091 207.098 206.991 202.298 207.291 200.698L189.491 187.998C187.491 188.898 181.491 191.098 177.991 192.198Z" fill="white"/>
<path d="M223.791 161.898C222.191 160.498 218.791 157.498 216.391 155.898C213.691 154.198 209.691 151.898 208.091 151.098L190.691 163.998C190.691 165.798 190.791 170.998 190.791 175.198C190.791 179.298 190.491 185.098 190.391 187.098L208.291 199.998C209.991 199.098 213.791 196.998 216.291 194.898C219.091 192.498 222.691 189.298 223.891 188.198C224.791 184.198 225.291 179.998 225.691 175.698C225.691 170.998 224.991 166.298 223.791 161.898Z" fill="white"/>
<path d="M179.191 159.198C182.792 160.298 187.591 162.098 189.492 162.798L206.992 149.898C206.691 148.098 205.992 143.698 204.691 140.498C203.491 137.598 201.891 133.698 201.091 131.798C193.491 126.998 184.591 124.098 174.991 123.798C172.991 124.798 169.691 126.698 167.491 128.398C165.091 130.398 161.591 133.598 160.292 134.798L167.391 155.698C169.691 156.398 175.591 158.098 179.191 159.198Z" fill="white"/>
<path d="M130.391 174.798H152.391C153.791 172.798 157.291 167.498 159.391 164.598C161.591 161.398 165.091 157.098 166.191 155.798L159.091 134.998C157.491 134.698 153.091 133.898 149.591 134.198C146.791 134.498 143.291 134.798 141.191 134.898C133.891 140.598 127.991 148.398 124.491 157.598C124.891 159.798 125.691 163.598 126.591 165.998C127.691 168.898 129.591 173.198 130.391 174.798Z" fill="white"/>
<path d="M159.291 186.098C157.191 183.098 153.291 177.498 152.191 175.898H130.491C129.591 177.398 127.591 181.398 126.691 184.898C126.091 187.798 125.091 191.898 124.591 193.998C127.791 202.798 133.391 210.398 140.491 216.298C142.791 216.498 147.091 216.898 149.891 216.798C152.991 216.598 157.391 216.198 159.291 216.098L166.391 195.598C165.891 194.798 161.391 188.898 159.291 186.098Z" fill="white"/>
</svg>
