<?xml version="1.0" encoding="UTF-8" standalone="no" ?>
<!DOCTYPE svg PUBLIC "-//W3C//DTD SVG 1.1//EN" "http://www.w3.org/Graphics/SVG/1.1/DTD/svg11.dtd">
<svg xmlns="http://www.w3.org/2000/svg" xmlns:xlink="http://www.w3.org/1999/xlink" version="1.1" width="350" height="350" viewBox="0 0 350 350" xml:space="preserve">
<desc>Created with Fabric.js 3.6.6</desc>
<defs>
</defs>
<g transform="matrix(1.35 0 0 1.35 175.02 204.02)" id="Layer_1"  >
<path style="stroke: none; stroke-width: 1; stroke-dasharray: none; stroke-linecap: butt; stroke-dashoffset: 0; stroke-linejoin: miter; stroke-miterlimit: 4; fill: rgb(0,158,225); fill-rule: nonzero; opacity: 1;"  transform=" translate(-433.6, -325.35)" d="M 409.7 278.7 h 10.4 l -5.2 18 l 8.1 -2.1 l 4.6 -15.9 h 9.7 l -7.9 27 l 13 -17.3 l 2.9 -9.7 h 9.3 l -5.6 19.1 c -0.2 0.7 -1.4 4.8 -0.5 4.8 c 1 0 3.5 -4.4 6.3 -9.4 c 3 -5.4 5.7 -11.2 6.8 -14.5 h 9.5 l -4.6 16.2 l 12 -16.2 H 562 l -201.3 86 l 3.9 -13.6 l 158.1 -64.7 h -30.8 l -3 10.1 l -9.9 3.1 l 4 -13.2 h -4.9 l -13.7 17.7 l -8.6 2.9 c 0.5 -4.3 1.2 -8.6 2.2 -12.7 l -3.9 7.4 c -3.1 5.8 -5.8 10.4 -10.5 10.4 c -3.5 0 -5.1 -3.2 -5.1 -7.5 c 0 -1.5 0.2 -3.1 0.6 -4.8 L 426.2 317 l -10.7 3.5 l 5.3 -18.7 l -8.1 2.1 l -5.6 19.5 l -11.6 3.8 l 5.2 -18 l -11.7 14.9 c -5 6.4 -10.1 9.8 -14.1 9.8 c -7.9 0 -8.9 -13 -8.2 -18.2 c -4.3 2 -5.8 2.7 -7.2 3.5 c 1.9 27.8 -26.4 66.2 -44.4 66.2 c -5.6 0 -9.9 -4.3 -9.9 -14 c 0 -14.4 10.8 -35.3 39.8 -51.8 c -0.8 -5.7 -2.8 -10.4 -6.3 -13.4 v -0.6 c 9.8 -7.5 17.3 -16 17.3 -23.6 c 0 -3.5 -2.7 -4.9 -5.6 -4.9 c -5.5 0 -12.6 6.7 -16.6 12.4 h -2 l 3.2 -10.9 c 7.4 -9.8 19.2 -13.3 25.7 -13.3 c 6.6 0 12.2 2.6 12.2 10.4 c 0 9.4 -8.1 19.1 -20.2 26.4 c 2.8 3.1 4.6 6.7 5.7 10.7 c 2.9 -1.5 5.9 -3 9.2 -4.5 c 3.5 -17 15.6 -30.1 26.4 -30.1 c 5.4 0 7.9 3.2 7.9 7.6 c 0 10.2 -9.4 18.1 -22.6 25 c -0.4 2.4 -0.3 3.7 -0.3 5.1 c 0 4.6 1 6.8 2.8 6.8 c 1.2 0 2.5 -1 4.2 -2.9 l 17.9 -21.1 L 409.7 278.7 M 318.9 368.3 c 0 2.2 0.7 5.8 3.2 5.8 c 10 0 22.6 -26.5 23.2 -47.2 C 327.8 338.8 318.9 356.1 318.9 368.3 z M 391.1 287.8 c 0 -1.6 -0.6 -2.7 -1.6 -2.7 c -2.7 0 -6.6 8.5 -8.8 18.2 C 388 298.6 391.1 292.6 391.1 287.8 z" stroke-linecap="round" />
</g>
<g transform="matrix(1.35 0 0 1.35 307.12 236.42)" id="Layer_1"  >
<path style="stroke: none; stroke-width: 1; stroke-dasharray: none; stroke-linecap: butt; stroke-dashoffset: 0; stroke-linejoin: miter; stroke-miterlimit: 4; fill: rgb(0,158,225); fill-rule: nonzero; opacity: 1;"  transform=" translate(-531.45, -349.35)" d="M 529.4 345.7 l 0.4 -3.4 h 8.3 v -4.6 h -12.5 l -1.4 12.8 c 1.5 -0.6 3.1 -0.7 4.4 -0.7 c 3.2 0 5.1 1.4 5.1 3.3 c 0 1.5 -1.4 3 -3.9 3 c -2 0 -4.1 -0.7 -5.8 -2.2 l -0.6 5.1 c 1.7 1.1 4.2 2 6.8 2 c 5.9 0 9.3 -3.5 9.3 -8.1 C 539.4 347.5 534.3 344.6 529.4 345.7" stroke-linecap="round" />
</g>
<g transform="matrix(1.35 0 0 1.35 281.33 235.48)" id="Layer_1"  >
<path style="stroke: none; stroke-width: 1; stroke-dasharray: none; stroke-linecap: butt; stroke-dashoffset: 0; stroke-linejoin: miter; stroke-miterlimit: 4; fill: rgb(0,158,225); fill-rule: nonzero; opacity: 1;"  transform=" translate(-512.35, -348.65)" d="M 521.2 344.4 c 0 -3.9 -3.1 -7.3 -8.4 -7.3 c -5.2 0 -8.5 3.2 -8.5 8.4 v 0.1 h 5.5 v -0.3 c 0 -2.4 1.2 -3.7 3.1 -3.7 c 1.7 0 2.7 1.1 2.7 2.7 c 0 1.1 -0.6 2.2 -1.8 3.7 l -10.3 12.2 H 521 v -4.9 h -7 l 4.1 -4.5 C 520.1 348.7 521.2 346.8 521.2 344.4" stroke-linecap="round" />
</g>
<g transform="matrix(1.35 0 0 1.35 234.69 235.88)" id="Layer_1"  >
<polyline style="stroke: none; stroke-width: 1; stroke-dasharray: none; stroke-linecap: butt; stroke-dashoffset: 0; stroke-linejoin: miter; stroke-miterlimit: 4; fill: rgb(0,158,225); fill-rule: nonzero; opacity: 1;"  points="-5.3,-6.15 -0.3,-6.15 -0.3,11.35 5.3,11.35 5.3,-11.35 -2.6,-11.35 -5.3,-6.15 " />
</g>
<g transform="matrix(1.35 0 0 1.35 256.56 235.55)" id="Layer_1"  >
<path style="stroke: none; stroke-width: 1; stroke-dasharray: none; stroke-linecap: butt; stroke-dashoffset: 0; stroke-linejoin: miter; stroke-miterlimit: 4; fill: rgb(0,158,225); fill-rule: nonzero; opacity: 1;"  transform=" translate(-494, -348.7)" d="M 494.1 337.1 c -5.5 0 -8.8 3.7 -8.8 8.4 c 0 4.3 3.3 7.2 7 7.2 c 0.8 0 1.3 0 2 -0.2 l -5.3 7.8 h 6.4 l 3.2 -4.8 c 2.5 -3.8 4.1 -6.8 4.1 -10.1 C 502.8 340.5 499.6 337.1 494.1 337.1 M 494.1 348.7 c -1.9 0 -3.5 -1.3 -3.5 -3.5 c 0 -1.9 1.3 -3.5 3.5 -3.5 c 2.1 0 3.5 1.6 3.5 3.5 C 497.6 347.4 496.2 348.7 494.1 348.7 z" stroke-linecap="round" />
</g>
<g transform="matrix(1.35 0 0 1.35 151.19 90.69)" id="Layer_1"  >
<polyline style="stroke: none; stroke-width: 1; stroke-dasharray: none; stroke-linecap: butt; stroke-dashoffset: 0; stroke-linejoin: miter; stroke-miterlimit: 4; fill: rgb(208,175,44); fill-rule: nonzero; opacity: 1;"  points="0.05,-18.9 4.75,-4.5 19.85,-4.5 7.65,4.4 12.25,18.9 0.05,9.9 -12.25,18.9 -7.55,4.4 -19.85,-4.5 -4.65,-4.5 0.05,-18.9 " />
</g>
<g transform="matrix(1.35 0 0 1.35 213.69 90.69)" id="Layer_1"  >
<polyline style="stroke: none; stroke-width: 1; stroke-dasharray: none; stroke-linecap: butt; stroke-dashoffset: 0; stroke-linejoin: miter; stroke-miterlimit: 4; fill: rgb(208,175,44); fill-rule: nonzero; opacity: 1;"  points="0.05,-18.9 4.75,-4.5 19.85,-4.5 7.65,4.4 12.35,18.9 0.05,9.9 -12.25,18.9 -7.55,4.4 -19.85,-4.5 -4.65,-4.5 0.05,-18.9 " />
</g>
<g transform="matrix(1.35 0 0 1.35 95.91 184.65)"  >
<path style="stroke: rgb(0,0,0); stroke-width: 1; stroke-dasharray: none; stroke-linecap: round; stroke-dashoffset: 0; stroke-linejoin: round; stroke-miterlimit: 10; fill: none; fill-rule: nonzero; opacity: 1;"  transform=" translate(-123, -169)" d="M 122.999 169 L 123.001 169" stroke-linecap="round" />
</g>
<g transform="matrix(1.35 0 0 1.35 95.91 184.65)"  >
<path style="stroke: rgb(0,0,0); stroke-width: 1; stroke-dasharray: none; stroke-linecap: round; stroke-dashoffset: 0; stroke-linejoin: round; stroke-miterlimit: 10; fill: none; fill-rule: nonzero; opacity: 1;"  transform=" translate(-123, -169)" d="M 122.999 169 L 123.001 169" stroke-linecap="round" />
</g>
</svg>