<svg width="350" height="350" viewBox="0 0 350 350" fill="none" xmlns="http://www.w3.org/2000/svg">
<path d="M182.686 146.859C171.49 148.359 160.794 149.758 152.596 150.858L171.29 113.071L182.686 146.859ZM287.252 212.937L266.458 151.958C265.059 147.659 261.46 143.261 255.962 140.761L216.275 25L210.477 26.6994C200.98 29.2986 189.884 31.5978 178.488 33.2972C166.492 34.9967 154.796 35.8964 144.599 35.8964H143.1H138.501L132.403 53.1906L130.404 59.1886L136.402 61.2879C139.301 62.3875 143.799 64.7867 145.099 66.4862C146.299 68.2856 145.899 71.9843 144.299 75.7831L84.719 200.342C80.3205 209.538 76.5218 213.037 70.6237 213.537C69.1242 213.637 61.1269 214.237 61.1269 214.237L56.9283 214.637L50.1306 233.93C50.1306 233.93 49.7307 236.529 50.3305 240.528C51.6301 249.125 57.2282 263.72 80.2205 270.618L81.3202 271.918C85.3188 276.916 92.4165 283.114 103.113 285.513L104.213 286.813C108.211 291.811 115.309 298.009 126.005 300.408L127.105 301.708C132.603 308.406 142.6 316.303 158.494 316.303H161.194C164.392 323.8 169.691 325 172.79 325H176.588C179.687 325 184.786 323.7 188.185 316.303H191.184C207.278 316.303 217.175 308.306 222.573 301.708L223.673 300.408C234.369 297.909 241.367 291.711 245.465 286.813L246.565 285.513C257.262 283.014 264.259 276.816 268.358 271.918L269.457 270.618C285.152 267.019 293.849 254.623 296.848 248.226C298.048 245.526 298.848 242.727 299.348 240.628C300.147 236.729 300.147 233.93 300.147 233.93L287.252 212.937Z" fill="#E6E7E8"/>
<path d="M143 42.1942L138.501 55.2899C138.501 55.2899 147.098 58.4888 150.297 62.8873C153.396 67.3858 152.197 73.6837 149.897 78.5821L90.4172 203.041C86.2185 211.738 81.1203 219.135 71.1236 219.935C69.6241 220.035 61.6268 220.635 61.6268 220.635L57.0283 233.73H130.804C129.704 229.832 129.104 225.733 129.104 221.634C129.104 221.235 129.104 220.935 129.104 220.535C126.705 220.035 124.106 219.335 122.207 218.535C116.508 215.936 115.209 212.138 118.008 206.24L172.39 96.0763L189.184 145.96L248.265 138.362L212.077 32.8973C202.68 35.4965 191.483 37.8957 179.387 39.5951C165.892 41.4945 153.396 42.2942 143 42.1942Z" fill="url(#paint0_linear)"/>
<path d="M216.875 240.428L215.775 242.428C211.777 250.425 205.579 256.923 197.781 261.321C191.183 265.12 183.986 267.119 176.488 267.519C176.488 267.519 175.789 267.519 174.989 267.519C174.389 267.519 174.189 267.519 173.189 267.519C157.495 266.919 143.099 258.222 135.202 244.527C134.802 243.827 134.402 243.127 134.003 242.428L132.903 240.428H56.7283C56.7283 240.428 57.3281 244.927 62.5263 251.724C66.2251 256.623 72.9229 262.921 83.8192 264.72L86.3184 267.819C90.2171 272.618 96.7149 277.916 106.712 279.615L109.211 282.714C113.109 287.513 119.607 292.811 129.604 294.51L132.103 297.609C136.702 303.207 145.099 309.905 158.694 309.905H165.992C167.191 315.003 169.291 318.602 172.89 318.602H176.688C180.287 318.602 182.286 315.003 183.586 309.905H191.183C204.779 309.905 213.076 303.207 217.775 297.609L220.274 294.51C230.27 292.811 236.668 287.413 240.667 282.714L243.166 279.615C253.163 277.916 259.561 272.518 263.559 267.819L266.059 264.72C278.954 262.621 285.852 254.224 289.051 249.325C292.05 244.727 293.049 240.528 293.049 240.528H216.975V240.428H216.875Z" fill="#231F20"/>
<path d="M89.9172 261.321H120.707C121.807 261.321 122.706 262.121 122.706 263.321C122.706 264.42 121.707 265.32 120.707 265.32H89.1175C93.1162 270.218 100.514 276.316 112.71 276.316H135.802C136.902 276.316 137.801 277.116 137.801 278.316C137.801 279.415 136.802 280.315 135.802 280.315H112.11C116.108 285.213 123.506 291.311 135.702 291.311H170.79C171.89 291.311 172.79 292.111 172.79 293.311C172.79 294.41 171.79 295.31 170.79 295.31H168.191C168.374 305.473 169.985 313.519 172.175 314.803H173.395C175.619 313.375 177.388 304.222 177.388 293.211C177.388 281.515 175.489 272.018 172.99 271.518C156.595 270.818 140.8 262.021 132.003 246.626C131.503 245.926 131.203 245.127 130.704 244.327H62.3701C62.957 245.656 70.2925 261.321 89.9172 261.321Z" fill="url(#paint1_linear)"/>
<path d="M62.3264 244.227V244.327H62.3701C62.3441 244.268 62.3264 244.227 62.3264 244.227Z" fill="url(#paint2_linear)"/>
<path d="M165.192 306.206C164.692 302.707 164.492 298.909 164.392 295.21H135.002C139.001 300.108 146.398 306.206 158.594 306.206H165.192Z" fill="url(#paint3_linear)"/>
<path d="M214.576 295.11H198.781C197.682 295.11 196.782 294.31 196.782 293.111C196.782 292.011 197.782 291.111 198.781 291.111H213.876C225.972 291.111 233.37 285.013 237.468 280.115H213.776C212.677 280.115 211.777 279.315 211.777 278.116C211.777 277.016 212.777 276.116 213.776 276.116H236.769C248.864 276.116 256.262 270.018 260.361 265.12H228.671C227.572 265.12 226.672 264.32 226.672 263.121C226.672 262.021 227.672 261.121 228.671 261.121H259.761C278.882 261.121 286.339 246.244 287.252 244.252V244.227H219.374H219.274C215.076 252.524 208.478 259.722 199.881 264.82C194.083 268.119 187.785 270.318 181.387 271.118C184.086 276.016 184.886 285.213 184.886 293.111C184.886 297.409 184.686 302.008 184.086 306.106H190.984C203.08 306.106 210.477 300.008 214.576 295.11Z" fill="url(#paint4_linear)"/>
<path d="M260.061 154.057C258.954 150.829 255.116 146.164 248.093 145.46H245.447C244.955 145.515 244.438 145.56 243.866 145.56C234.469 146.659 174.489 154.757 149.197 158.056L124.006 209.239C123.406 210.438 123.306 211.138 123.306 211.338C123.506 211.438 124.006 211.938 125.006 212.438C126.105 212.937 127.905 213.537 129.904 213.837C132.203 200.841 139.901 188.945 152.196 181.848C159.294 177.649 167.092 175.75 174.789 175.65H175.289C190.984 175.75 206.378 183.947 214.776 198.642C218.974 205.74 220.874 213.637 220.974 221.335V221.834C220.974 225.833 220.374 229.932 219.274 233.83H292.65L281.653 216.836L260.061 154.057ZM164.292 164.953L233.07 156.856L234.369 164.953H164.292ZM246.865 153.857C249.564 153.357 253.263 156.556 255.162 161.255C256.962 165.853 256.262 170.052 253.463 170.551C253.263 170.551 253.063 170.551 252.863 170.551H252.663C250.064 170.451 246.865 167.353 245.165 163.154C243.366 158.555 244.066 154.357 246.865 153.857ZM255.562 214.637C255.362 214.737 255.062 214.737 254.862 214.737C253.063 214.837 250.964 212.937 249.764 210.038C248.464 206.839 249.064 203.64 250.964 203.041C252.863 202.341 255.462 204.44 256.762 207.639C258.061 210.838 257.461 214.037 255.562 214.637ZM258.961 195.743L244.666 182.448L258.161 188.645L261.76 181.348L262.56 195.643L258.961 195.743ZM272.456 213.537C272.256 213.637 271.957 213.637 271.757 213.637C270.257 213.837 268.358 212.038 267.358 209.538C266.158 206.639 266.658 203.84 268.458 203.241C270.157 202.641 272.456 204.44 273.556 207.239C274.756 210.138 274.256 212.837 272.456 213.537Z" fill="url(#paint5_linear)"/>
<path d="M177.576 181.448H172.351C151.436 182.853 134.802 200.299 134.802 221.634C134.802 242.923 151.455 260.429 172.224 261.821H177.577C198.523 260.429 215.175 242.923 215.175 221.634C215.175 200.346 198.523 182.84 177.576 181.448Z" fill="url(#paint6_radial)"/>
<path d="M154.596 190.545L154.496 190.445C154.096 190.645 153.196 191.644 151.997 192.344C148.898 194.943 147.798 196.043 143.899 201.241C143.499 201.841 141.5 204.94 141.2 206.24C142.3 206.14 143.899 205.64 144.399 205.44C150.697 202.941 154.796 199.342 154.596 190.545ZM200.48 224.533L200.58 217.736C204.479 217.736 207.678 216.536 211.377 213.537C211.477 212.537 210.377 209.538 209.877 208.039C206.978 200.741 201.28 193.744 193.583 189.145C190.484 189.945 186.685 194.843 185.985 198.342C185.385 200.442 185.485 202.241 185.485 204.94L179.887 205.74C179.387 205.04 178.588 203.84 178.188 203.64C176.188 201.141 172.59 199.142 168.391 198.642L168.291 195.643C169.291 195.743 170.79 196.043 172.09 196.043C178.987 195.543 182.686 192.144 185.285 187.546C186.285 185.746 184.586 185.446 181.387 184.947C179.859 184.702 178.416 184.542 177.038 184.447H172.693C169.527 184.697 166.378 185.4 162.593 186.746C161.193 187.246 159.394 187.946 158.294 188.645C159.694 192.144 161.793 193.444 164.992 195.243L165.192 199.042C156.595 200.342 150.697 207.539 151.697 217.236L148.798 217.636C147.398 215.536 146.898 214.637 145.599 213.437C143.699 211.938 142.4 210.938 139.501 210.438C137.401 217.436 137.001 225.533 139.501 233.131C140.1 234.83 141.4 238.129 142 238.729C147.598 236.03 150.697 231.331 150.597 224.433C150.497 223.234 150.197 221.834 149.897 220.135L152.396 219.735C153.896 222.934 155.095 224.633 157.195 226.333C158.494 227.433 159.894 228.132 161.493 228.732L160.694 233.93C157.994 233.93 154.995 234.43 152.796 235.43C148.498 237.729 144.499 241.728 144.499 242.727C145.199 244.427 148.698 247.826 149.997 249.025C154.196 252.824 158.594 255.723 164.192 257.223C167.733 258.214 169.764 258.502 170.864 258.622H171.88C173.732 256.66 175.087 251.867 174.989 248.326L181.587 247.326C182.986 249.425 184.886 250.925 185.485 251.225C187.385 252.624 191.783 254.324 193.383 253.924C195.882 252.524 200.18 249.125 201.58 247.626C204.179 244.927 207.678 240.628 209.277 236.429C209.277 230.132 204.479 226.333 200.48 224.533ZM196.782 223.734C194.682 223.134 190.484 223.834 188.484 224.733C181.387 227.932 177.788 234.23 179.387 243.327L173.889 244.327C172.89 241.428 170.69 238.629 168.691 236.929C167.391 235.93 166.392 235.43 163.893 234.53L164.492 229.532C165.192 229.532 165.892 229.632 166.592 229.632C167.791 229.632 168.991 229.432 170.29 229.132C174.889 228.132 181.487 224.234 182.186 214.637C182.286 213.437 181.986 210.238 181.387 209.039L186.485 208.239C188.984 213.837 191.483 215.536 196.981 217.636L196.782 223.734Z" fill="url(#paint7_radial)"/>
<defs>
<linearGradient id="paint0_linear" x1="57.0283" y1="133.314" x2="248.265" y2="133.314" gradientUnits="userSpaceOnUse">
<stop stop-color="#C3161C"/>
<stop offset="1" stop-color="#EC1C24"/>
</linearGradient>
<linearGradient id="paint1_linear" x1="62.3701" y1="279.565" x2="177.388" y2="279.565" gradientUnits="userSpaceOnUse">
<stop stop-color="white"/>
<stop offset="1" stop-color="#A6A8AB"/>
</linearGradient>
<linearGradient id="paint2_linear" x1="62.3264" y1="244.277" x2="62.3701" y2="244.277" gradientUnits="userSpaceOnUse">
<stop stop-color="white"/>
<stop offset="1" stop-color="#A6A8AB"/>
</linearGradient>
<linearGradient id="paint3_linear" x1="135.002" y1="300.708" x2="165.192" y2="300.708" gradientUnits="userSpaceOnUse">
<stop stop-color="white"/>
<stop offset="1" stop-color="#A6A8AB"/>
</linearGradient>
<linearGradient id="paint4_linear" x1="181.387" y1="275.167" x2="287.252" y2="275.167" gradientUnits="userSpaceOnUse">
<stop stop-color="#A6A8AB"/>
<stop offset="1" stop-color="white"/>
</linearGradient>
<linearGradient id="paint5_linear" x1="123.306" y1="189.645" x2="292.65" y2="189.645" gradientUnits="userSpaceOnUse">
<stop stop-color="#00813D"/>
<stop offset="1" stop-color="#00A84F"/>
</linearGradient>
<radialGradient id="paint6_radial" cx="0" cy="0" r="1" gradientUnits="userSpaceOnUse" gradientTransform="translate(174.989 221.634) scale(40.1367)">
<stop stop-color="#58595B"/>
<stop offset="1" stop-color="#231F20"/>
</radialGradient>
<radialGradient id="paint7_radial" cx="0" cy="0" r="1" gradientUnits="userSpaceOnUse" gradientTransform="translate(174.882 221.534) scale(37.1431)">
<stop stop-color="white"/>
<stop offset="1" stop-color="#D0D2D3"/>
</radialGradient>
</defs>
</svg>
