<svg width="350" height="350" viewBox="0 0 350 350" fill="none" xmlns="http://www.w3.org/2000/svg">
<path fill-rule="evenodd" clip-rule="evenodd" d="M175.483 0L285.85 175L175.483 350L65 175L175.483 0Z" fill="white"/>
<path fill-rule="evenodd" clip-rule="evenodd" d="M175.483 14.2334L276.867 175L175.483 335.767L73.9834 175L175.483 14.2334Z" fill="#1D3D90"/>
<path fill-rule="evenodd" clip-rule="evenodd" d="M109.8 157.5L135.583 141.05L145.5 202.883C152.5 197.75 164.866 186.9 169.65 180.25C155.3 164.733 143.75 138.367 148.066 115.85C151.45 97.8834 168.6 79.5667 187.616 78.9834C205.933 78.4 221.216 104.183 220.05 120.4L198.116 119.117C198.583 115.15 199.05 110.833 196.25 107.1C191.466 100.567 179.333 100.45 174.2 110.483C165.45 127.4 174.783 152.367 182.483 162.867C187.85 156.45 194.15 143.733 195.783 135.567L219.466 135.217C218.183 147.467 208.383 166.6 200.566 177.1C210.833 183.283 226.35 189 238.716 190.75L238.25 212.1C219.35 212.217 197.65 203.467 184.816 196.117C183.65 197.633 176.533 206.383 175.016 207.783C185.516 218.633 200.916 230.417 214.1 238.7L207.916 258.3C194.033 251.533 172.566 234.5 158.916 220.733C146.316 230.533 137.916 236.017 125.433 241.267L121.583 222.017L128.116 217L119.366 165.9L110.033 170.8L109.8 157.5Z" fill="white"/>
</svg>
