<svg width="350" height="350" viewBox="0 0 350 350" fill="none" xmlns="http://www.w3.org/2000/svg">
<path fill-rule="evenodd" clip-rule="evenodd" d="M100.671 286.053C76.0661 282.652 32.4572 275.351 25.8558 246.545C20.7548 224.34 39.6587 195.034 50.7609 176.531C56.4621 167.029 70.2649 146.625 70.7651 135.722C71.1651 128.021 69.2647 119.719 67.3644 112.318L47.5603 32.101C72.3654 43.9035 85.5681 50.8049 114.374 51.605C140.579 52.2052 155.282 42.5032 174.986 27C194.79 42.5032 209.393 52.2052 235.599 51.605C264.405 50.9049 277.607 44.0035 302.413 32.101L282.608 112.418C280.708 119.919 279.008 128.121 279.208 135.822C279.708 146.525 293.411 167.029 299.212 176.631C310.314 194.934 329.318 224.441 324.117 246.645C317.516 275.451 273.807 282.852 249.302 286.153C219.195 290.254 193.19 296.855 174.986 322.661C156.783 296.755 130.677 290.154 100.671 286.053Z" fill="#FFF100"/>
<path fill-rule="evenodd" clip-rule="evenodd" d="M101.271 281.552C78.9668 278.452 36.2581 271.55 30.1568 245.345C25.4558 224.841 44.1597 195.935 54.4618 178.731C60.6631 168.229 74.4659 147.925 75.066 135.922C75.4661 127.821 73.5657 119.119 71.5653 111.217L54.1617 40.2027C76.6663 51.0049 87.9687 55.4058 114.274 56.1059C139.779 56.7061 155.483 47.8042 174.987 32.8011C194.29 47.9042 209.894 56.7061 235.699 56.1059C262.004 55.5058 273.207 51.0049 295.811 40.3027L278.308 111.417C276.407 119.319 274.407 128.021 274.807 136.122C275.307 148.125 289.01 168.529 295.411 178.931C305.813 196.135 324.517 225.241 319.716 245.545C313.615 271.75 270.906 278.552 248.602 281.752C223.697 285.253 190.19 293.255 174.886 314.959C159.683 293.155 126.076 285.053 101.271 281.552Z" fill="#034EA1"/>
<path fill-rule="evenodd" clip-rule="evenodd" d="M174.986 307.157C168.885 298.556 141.58 282.752 101.871 277.251C78.9667 274.151 39.7586 267.249 34.5576 244.545C30.5568 227.541 44.9597 203.736 58.3625 181.232C65.2639 169.929 78.9667 149.425 79.5668 136.322C79.9669 127.421 77.8665 117.619 75.9661 110.417L60.763 48.4044C73.0655 54.2055 85.6681 59.8067 114.074 60.6068C146.381 61.307 165.684 45.6038 174.986 38.5023C184.188 45.7038 203.592 61.407 235.899 60.6068C264.305 59.9067 277.107 54.2055 289.31 48.4044L274.107 110.417C272.206 117.819 270.106 127.521 270.506 136.322C271.106 149.525 284.809 169.829 291.71 181.232C305.313 203.836 319.516 227.541 315.515 244.545C310.314 267.249 271.106 274.151 248.201 277.251C208.393 282.752 181.088 298.556 174.986 307.157Z" fill="#FFF100"/>
<path fill-rule="evenodd" clip-rule="evenodd" d="M205.893 69.8087C221.896 69.8087 234.699 82.8114 234.699 98.6146C234.699 114.618 221.896 127.421 205.893 127.421C189.89 127.421 177.087 114.618 177.087 98.6146C177.087 82.8114 189.99 69.8087 205.893 69.8087Z" fill="white"/>
<path fill-rule="evenodd" clip-rule="evenodd" d="M211.894 70.809C218.895 72.3093 224.897 76.3101 228.998 81.9113C227.797 81.5112 226.497 81.3112 225.397 80.9111C225.997 85.0119 225.297 88.8127 224.697 92.2134C227.397 93.9138 229.798 96.6143 231.698 100.115C232.598 99.0148 233.598 97.4145 234.399 95.7141C234.499 96.7143 234.499 97.6145 234.499 98.6147C234.499 104.816 232.498 110.617 229.098 115.318C229.098 114.118 228.998 112.718 228.898 111.717C225.197 113.618 221.396 114.118 217.895 114.418C216.995 117.619 215.295 120.619 212.494 123.42C213.894 123.92 215.595 124.42 217.395 124.62C213.894 126.12 209.994 127.021 206.093 127.021C203.092 127.021 200.092 126.52 197.491 125.62C198.591 125.22 199.892 124.72 200.692 124.42C197.791 121.419 196.191 118.019 194.69 114.818C191.29 115.018 187.989 114.318 184.488 112.418C184.488 113.818 184.488 115.618 184.688 117.419C180.288 112.418 177.587 105.916 177.587 98.7147C178.287 99.7149 179.187 100.715 179.787 101.415C181.688 97.8146 184.388 95.214 187.189 92.7135C185.989 89.6129 185.589 86.1122 186.189 82.2114C184.788 82.6114 183.088 83.2116 181.488 84.1117C184.989 78.1105 190.49 73.6096 197.191 71.4091C196.491 72.4093 195.791 73.6096 195.191 74.5098C199.291 75.1099 202.592 77.0103 205.793 78.7106C208.393 76.6102 211.494 75.2099 215.395 74.6098C214.395 73.5096 213.194 72.2093 211.894 70.809ZM205.893 68.5085C222.496 68.5085 235.999 82.0113 235.999 98.6147C235.999 115.218 222.496 128.721 205.893 128.721C189.289 128.721 175.787 115.218 175.787 98.6147C175.787 82.0113 189.289 68.5085 205.893 68.5085Z" fill="#034EA1"/>
<path fill-rule="evenodd" clip-rule="evenodd" d="M206.093 87.5125C209.794 89.6129 213.594 92.4135 216.895 95.6141C216.395 100.015 214.895 104.316 213.194 108.317C208.293 108.817 203.692 108.817 199.191 108.317C197.491 104.616 196.191 99.915 195.491 95.6141C198.391 92.5135 202.192 89.6129 206.093 87.5125Z" fill="#034EA1"/>
<path fill-rule="evenodd" clip-rule="evenodd" d="M179.888 76.6102C157.783 105.316 181.988 150.725 207.993 161.628L182.788 188.433C155.783 159.427 152.582 104.616 179.888 76.6102ZM172.786 78.5106C148.581 107.917 154.982 163.828 180.388 191.034L156.983 215.839C123.876 174.83 134.778 112.618 172.786 78.5106ZM154.682 218.339L131.078 243.444C84.568 179.431 120.075 106.216 163.884 83.2116C128.077 117.419 123.076 179.731 154.682 218.339Z" fill="#034EA1"/>
<path d="M107.873 258.547C107.873 256.347 108.473 254.547 109.973 253.146C111.373 251.946 113.174 251.146 115.374 251.146H115.774V249.446H120.375V251.146H120.775C122.976 251.146 124.776 251.746 126.176 253.146C127.577 254.547 128.277 256.247 128.277 258.547C128.277 260.848 127.577 262.648 126.176 263.949C124.776 265.149 122.976 265.949 120.775 265.949H120.375V268.049H115.774V265.849H115.374C113.274 265.849 111.373 265.249 109.973 263.949C108.473 262.648 107.873 260.748 107.873 258.547ZM120.375 254.547V262.648C121.375 262.648 121.975 262.448 122.476 261.948C123.076 261.348 123.376 260.248 123.376 258.547C123.376 256.947 123.176 255.847 122.476 255.147C121.975 254.747 121.275 254.547 120.375 254.547ZM115.574 262.648V254.547C114.574 254.547 113.974 254.747 113.474 255.147C112.874 255.747 112.574 256.847 112.574 258.547C112.574 260.148 112.774 261.248 113.474 261.948C113.974 262.348 114.774 262.648 115.574 262.648ZM135.078 249.546V257.547L139.679 249.546H144.28L140.179 255.647L144.18 267.949H139.579L137.079 259.948L135.078 262.848V267.949H130.477V249.446H135.078V249.546ZM158.383 252.746V257.247H159.283C159.983 257.247 160.783 257.147 161.284 256.747C161.884 256.347 162.284 255.747 162.284 255.047C162.284 254.347 162.084 253.646 161.384 253.346C160.883 252.946 160.283 252.846 159.383 252.846L158.383 252.746ZM153.682 267.949V249.446H160.683C162.584 249.446 164.084 249.846 165.184 250.646C166.385 251.546 167.085 252.846 167.085 254.647C167.085 256.647 166.485 258.147 165.084 259.148C163.984 260.048 162.384 260.548 160.383 260.548C159.783 260.548 159.183 260.548 158.683 260.448V267.949H153.682ZM168.085 258.747C168.085 256.047 168.585 253.846 169.585 252.146C170.785 250.146 172.686 249.146 175.186 249.146C177.687 249.146 179.587 250.146 180.788 252.146C181.788 253.746 182.288 256.047 182.288 258.747C182.288 261.448 181.788 263.648 180.788 265.249C179.587 267.249 177.687 268.249 175.186 268.249C172.686 268.249 170.785 267.249 169.585 265.249C168.585 263.648 168.085 261.548 168.085 258.747ZM173.086 258.747C173.086 260.848 173.186 262.348 173.486 263.148C173.886 264.249 174.386 264.849 175.386 264.849C176.287 264.849 176.887 264.249 177.087 263.148C177.287 262.248 177.487 260.748 177.487 258.647C177.487 256.547 177.387 255.047 177.087 254.147C176.887 253.046 176.187 252.446 175.386 252.446C174.486 252.446 173.886 253.046 173.686 254.147C173.386 255.147 173.086 256.647 173.086 258.747ZM193.29 261.248L197.291 261.648C197.291 263.648 196.691 265.249 195.591 266.549C194.49 267.749 192.89 268.449 190.89 268.449C188.289 268.449 186.389 267.449 185.188 265.449C184.188 263.849 183.688 261.548 183.688 258.847C183.688 256.247 184.188 253.946 185.188 252.346C186.389 250.246 188.289 249.246 190.89 249.246C192.99 249.246 194.59 249.846 195.791 251.246C196.791 252.446 197.291 254.147 197.291 256.147H192.89C192.89 255.247 192.79 254.547 192.49 254.047C192.09 253.146 191.59 252.846 190.89 252.846C189.989 252.846 189.389 253.446 188.989 254.747C188.789 255.647 188.589 257.147 188.589 259.148C188.589 261.248 188.689 262.748 188.989 263.648C189.389 264.749 189.989 265.249 190.99 265.249C191.89 265.249 192.39 265.049 192.69 264.249C193.19 263.348 193.29 262.348 193.29 261.248ZM198.691 253.046V249.446H211.694V253.046H207.593V267.849H202.992V253.046H198.691ZM212.794 258.747C212.794 256.047 213.294 253.846 214.294 252.146C215.495 250.146 217.395 249.146 219.896 249.146C222.396 249.146 224.296 250.146 225.497 252.146C226.497 253.746 226.997 256.047 226.997 258.747C226.997 261.448 226.497 263.648 225.497 265.249C224.296 267.249 222.396 268.249 219.896 268.249C217.395 268.249 215.495 267.249 214.294 265.249C213.294 263.648 212.794 261.548 212.794 258.747ZM217.795 258.747C217.795 260.848 217.895 262.348 218.195 263.148C218.395 264.249 219.095 264.849 220.096 264.849C220.996 264.849 221.596 264.249 221.996 263.148C222.196 262.248 222.396 260.748 222.396 258.647C222.396 256.547 222.296 255.047 221.996 254.147C221.796 253.046 221.096 252.446 220.096 252.446C219.195 252.446 218.595 253.046 218.395 254.147C217.895 255.147 217.795 256.647 217.795 258.747ZM229.197 267.949V249.446H236.899C238.499 249.446 239.9 249.846 240.9 250.646C241.9 251.546 242.4 252.546 242.4 253.746C242.4 254.847 242 255.747 241.4 256.647C240.8 257.347 239.9 257.847 238.899 258.147C240.1 258.547 241 259.048 241.8 259.748C242.4 260.448 242.8 261.448 242.8 262.748C242.8 264.249 242.3 265.449 241.2 266.449C240.1 267.349 238.699 267.849 236.799 267.849H229.197V267.949ZM233.998 259.848V264.449H235.699C236.299 264.449 236.799 264.349 237.199 263.949C237.699 263.548 238.099 262.948 238.099 262.048C238.099 261.348 237.899 260.848 237.499 260.448C237.099 260.048 236.499 259.848 235.799 259.848H233.998ZM233.998 252.746V256.747H235.499C236.199 256.747 236.899 256.547 237.199 256.247C237.599 255.847 237.799 255.347 237.799 254.747C237.799 254.047 237.599 253.346 237.099 253.146C236.699 252.946 236.199 252.746 235.599 252.746H233.998Z" fill="#034EA1"/>
<path d="M163.684 276.451V286.353H165.384V288.354H158.983V286.353H160.683V279.352L158.983 279.852V277.851C159.383 277.851 159.883 277.651 160.483 277.351C161.183 276.951 161.683 276.751 161.883 276.451H163.684ZM166.885 285.353L169.385 284.953C169.385 285.353 169.485 285.653 169.585 285.953C169.685 286.353 170.085 286.453 170.485 286.453C170.985 286.453 171.185 286.253 171.485 285.553C171.686 285.053 171.886 284.153 171.886 283.153C171.485 283.353 171.185 283.553 170.785 283.653C170.385 283.753 170.085 283.853 169.685 283.853C168.785 283.853 168.085 283.653 167.585 282.952C166.985 282.352 166.684 281.552 166.684 280.752C166.684 279.352 167.085 278.352 167.785 277.551C168.485 276.851 169.485 276.351 170.885 276.351C172.386 276.351 173.486 276.951 174.286 278.352C174.886 279.452 175.186 280.752 175.186 282.352C175.186 283.953 174.786 285.353 174.186 286.453C173.486 287.853 172.186 288.554 170.685 288.554C168.485 288.454 167.285 287.453 166.885 285.353ZM171.886 281.452C171.886 280.452 171.886 279.752 171.786 279.352C171.686 278.652 171.285 278.352 170.785 278.352C170.385 278.352 170.085 278.552 169.785 278.952C169.685 279.352 169.585 279.652 169.585 280.152C169.585 280.652 169.685 281.152 169.785 281.352C169.885 281.552 170.285 281.852 170.685 281.852C170.885 281.852 171.085 281.852 171.285 281.752C171.485 281.752 171.786 281.552 171.886 281.452ZM177.987 283.353V281.352H178.587C179.187 281.352 179.587 281.252 179.987 280.952C180.387 280.752 180.487 280.352 180.487 279.752C180.487 279.352 180.387 279.052 180.287 278.752C180.087 278.552 179.787 278.352 179.387 278.352C178.987 278.352 178.687 278.452 178.387 278.752C178.187 278.952 177.987 279.352 177.887 279.752L175.686 278.752C176.086 277.851 176.587 277.251 177.287 276.851C177.987 276.351 178.787 276.251 179.687 276.251C180.687 276.251 181.688 276.451 182.288 277.151C182.988 277.751 183.388 278.652 183.388 279.652C183.388 280.252 183.188 280.852 182.688 281.352C182.188 281.752 181.688 281.952 180.987 282.252C181.888 282.352 182.588 282.652 182.988 282.952C183.588 283.453 183.888 284.053 183.888 284.953C183.888 286.053 183.388 286.953 182.388 287.553C181.488 288.154 180.487 288.454 179.387 288.454C178.487 288.454 177.687 288.254 176.987 287.853C176.386 287.453 175.886 286.853 175.386 285.953L177.487 284.853C177.687 285.453 177.987 285.853 178.187 285.953C178.387 286.053 178.687 286.153 179.087 286.153C180.087 286.153 180.587 285.653 180.587 284.753C180.587 284.153 180.387 283.653 179.987 283.353C179.787 283.253 179.287 283.153 178.587 283.153H177.987V283.353ZM184.488 282.352C184.488 280.652 184.688 279.252 185.188 278.151C185.788 276.951 186.889 276.251 188.589 276.251C190.089 276.251 191.19 276.851 191.99 278.151C192.49 279.152 192.89 280.552 192.89 282.352C192.89 284.053 192.69 285.553 191.89 286.553C191.19 287.753 190.189 288.254 188.689 288.254C187.089 288.254 185.988 287.653 185.288 286.553C184.688 285.653 184.488 284.253 184.488 282.352ZM188.589 278.252C188.189 278.252 187.989 278.352 187.889 278.752C187.789 279.152 187.689 279.652 187.689 280.452V284.053C187.689 284.953 187.789 285.553 187.889 285.953C187.989 286.353 188.289 286.453 188.789 286.453C189.189 286.453 189.389 286.353 189.489 285.953C189.589 285.553 189.689 285.053 189.689 284.253V280.652C189.689 279.752 189.589 279.152 189.489 278.752C189.289 278.452 188.989 278.252 188.589 278.252Z" fill="#034EA1"/>
<path fill-rule="evenodd" clip-rule="evenodd" d="M100.171 64.8077C88.9689 63.1074 78.5668 60.6069 68.1646 56.406L82.4676 113.918C84.8681 123.42 85.1681 129.921 85.1681 134.822C85.1681 146.925 76.6664 163.028 69.0648 176.231C57.2624 196.935 45.66 213.738 43.6596 234.443C41.4592 258.748 81.8675 267.149 100.171 268.85V64.8077Z" fill="#034EA1"/>
<path fill-rule="evenodd" clip-rule="evenodd" d="M249.902 64.8077C261.104 63.1074 271.506 60.6069 281.908 56.406L267.605 113.918C265.205 123.42 264.905 129.921 264.905 134.822C264.905 146.925 273.407 163.028 281.008 176.231C292.811 196.935 304.413 213.738 306.413 234.443C308.614 258.748 268.206 267.149 249.902 268.85V64.8077Z" fill="#034EA1"/>
</svg>
