<?xml version="1.0" encoding="utf-8"?>
<!-- Generator: Adobe Illustrator 21.0.2, SVG Export Plug-In . SVG Version: 6.00 Build 0)  -->
<svg version="1.1" id="Слой_1" xmlns="http://www.w3.org/2000/svg" xmlns:xlink="http://www.w3.org/1999/xlink" x="0px" y="0px"
	 viewBox="0 0 350 350" style="enable-background:new 0 0 350 350;" xml:space="preserve">
<style type="text/css">
	.st0{fill:#134679;}
	.st1{fill:#FFFFFF;}
	.st2{fill:#67B4E8;}
</style>
<g id="Layer_1">
	<g>
		<g>
			<path class="st0" d="M274.2,57.8l-98.9-29.8L76.4,57.8c0,0-1.5,11.1-1.5,23.6c0,39.3,5,121.6,54.6,186.3
				c22.7,29.6,45.7,50.3,45.7,50.3s23-20.7,45.7-50.3c49.6-64.7,54.6-147.1,54.6-186.3C275.7,68.8,274.2,57.8,274.2,57.8L274.2,57.8
				z"/>
			<path class="st1" d="M175.3,325.5l-3.7-3.3c-0.9-0.9-23.7-21.4-46.5-51.1C79.1,210.9,69.4,134.7,69.4,81.4
				c0-12.7,1.4-23.8,1.5-24.3l0.5-3.6l103.9-31.3l103.9,31.3l0.5,3.6c0.1,0.5,1.5,11.6,1.5,24.3c0,53.3-9.7,129.6-55.8,189.7
				c-22.8,29.7-45.5,50.3-46.5,51.1L175.3,325.5z M81.5,62c-0.4,4.1-1,11.5-1,19.3c0,51.6,9.3,125.3,53.5,182.9
				c16.9,21.9,34,39.1,41.4,46.1c7.4-7,24.5-24.1,41.4-46.1c44.2-57.6,53.5-131.3,53.5-182.9c0-7.8-0.6-15.2-1-19.3l-94-28.3
				L81.5,62z"/>
		</g>
		<path class="st0" d="M274.2,57.8l-98.9-29.8L76.4,57.8c0,0-1.5,11.1-1.5,23.6c0,39.3,5,121.6,54.6,186.3
			c22.7,29.6,45.7,50.3,45.7,50.3s23-20.7,45.7-50.3c49.6-64.7,54.6-147.1,54.6-186.3C275.7,68.8,274.2,57.8,274.2,57.8L274.2,57.8z
			"/>
		<path class="st1" d="M242.1,61.7c-1.8,0-3.4,1.2-4,2.8l-9.3,28.5h8.7l8.4-25.9C246.9,64.5,245,61.7,242.1,61.7L242.1,61.7z"/>
		<path class="st2" d="M181.6,62.4h-27.4l-2.5,7.7h19.2l-24.7,16.6c-1.9,1.3-2.3,3.9-0.8,5.6c1.3,1.5,3.5,1.8,5.1,0.7l24.9-16.8
			L169.9,93h8.7l7.8-24C187.6,65.8,185.1,62.4,181.6,62.4L181.6,62.4z"/>
		<path class="st1" d="M114.4,62.4l-10,30.7h8.7l7.5-23h17.9l-12.2,8.2c-1.7,1.2-2.4,3.6-1.2,5.4c1.2,1.8,3.6,2.3,5.4,1.1l15.1-10.2
			c5.4-3.6,2.8-12.1-3.7-12.1L114.4,62.4L114.4,62.4z"/>
		<path class="st1" d="M224.4,62.4h-27.5l-10,30.7h8.7l7.5-23H221l-15.8,10.7l9.8,11.6c1.3,1.5,3.5,1.8,5.1,0.7
			c1.9-1.3,2.3-3.9,0.8-5.6l-4.3-5.1l11.6-7.8C233.5,70.8,230.9,62.4,224.4,62.4L224.4,62.4z"/>
		<path class="st2" d="M246.3,179.7v-32.9l-64.9,43.8v99.7c6.6-6.9,14.6-15.8,22.9-26.2v-71.8h-7l26.1-17.7v61.6
			C233.5,218.3,240.9,198.9,246.3,179.7L246.3,179.7z"/>
		<path class="st2" d="M107.2,188.8c5,15.9,11.6,32.1,20.2,47.3v-43.8h-7l26.1-17.7V264c8.3,10.4,16.3,19.3,22.9,26.2V150.5l0,0
			v-3.6L107.2,188.8L107.2,188.8z"/>
		<polygon class="st1" points="246.3,104.1 223.3,110.9 223.3,149.9 204.3,162.8 204.3,104.1 181.4,110.9 181.4,190.7 246.3,146.9 
					"/>
		<path class="st1" d="M106.4,186.4c0.2,0.8,0.5,1.6,0.8,2.4l0,0l62.1-42l0,0v-42.7l-22.9,6.8v39l-19.1,12.9v-58.7l-22.9,6.8v68.7
			C105,181.9,105.7,184.1,106.4,186.4L106.4,186.4L106.4,186.4z"/>
	</g>
</g>
</svg>
