<svg width="350" height="350" viewBox="0 0 350 350" fill="none" xmlns="http://www.w3.org/2000/svg">
<path d="M253.917 48.6239L244.704 37.9017C244.704 37.9017 208.546 25.3562 174.702 25C140.859 25.3562 104.698 37.9017 104.698 37.9017L95.4858 48.6239L52 70.4381C53.0276 178.054 71.0041 266.074 169.22 321.994C169.79 322.319 174.495 324.991 174.684 325C174.95 325.012 179.682 322.28 180.311 321.922C278.309 266.084 296.365 178.943 297.403 70.4381L253.917 48.6239V48.6239Z" fill="white"/>
<path d="M253.917 48.6239L244.704 37.9017C244.704 37.9017 208.546 25.3562 174.702 25C140.859 25.3562 104.698 37.9017 104.698 37.9017L95.4858 48.6239L52 70.4381C53.0276 178.054 71.0041 266.074 169.22 321.994C169.79 322.319 174.495 324.991 174.684 325C174.95 325.012 179.682 322.28 180.311 321.922C278.309 266.084 296.365 178.943 297.403 70.4381L253.917 48.6239V48.6239Z" stroke="#2B2B2A" stroke-width="0.0761046" stroke-miterlimit="22.9256"/>
<path d="M248.642 58.1924L240.112 48.2643C240.112 48.2643 206.63 36.6475 175.294 36.3169C143.957 36.6475 110.475 48.2643 110.475 48.2643L101.945 58.1924L61.6816 78.3911C61.6816 78.3911 62.7143 186.513 88.638 229.627C99.1515 247.112 112.27 265.68 127.793 279.952C149.812 300.198 173.704 313.269 175.217 314.089C175.18 314.055 175.166 314.003 175.294 313.93C175.421 314.002 175.407 314.055 175.37 314.089C176.882 313.269 200.776 300.198 222.795 279.952C238.315 265.68 251.434 247.112 261.949 229.627C287.873 186.513 288.906 78.3911 288.906 78.3911L248.642 58.1924V58.1924Z" fill="#00904F"/>
<path d="M174.701 89.2871C130.483 89.2871 94.6367 125.252 94.6367 169.618C94.6367 213.983 130.483 249.948 174.701 249.948C218.919 249.948 254.766 213.983 254.766 169.618C254.766 125.252 218.92 89.2871 174.701 89.2871V89.2871ZM174.701 246.736C132.251 246.736 97.8383 212.209 97.8383 169.618C97.8383 127.026 132.251 92.501 174.701 92.501C217.15 92.501 251.563 127.026 251.563 169.618C251.563 212.209 217.15 246.736 174.701 246.736V246.736Z" fill="white"/>
<path fill-rule="evenodd" clip-rule="evenodd" d="M130.642 224.589C130.642 224.589 135.83 228.812 146.111 227.726C156.392 226.643 164.609 220.138 172.215 219.281C179.821 218.425 183.776 219.794 189.93 224.417C196.083 229.039 197.648 230.562 202.782 230.18C209.675 229.667 218.763 224.645 218.763 224.645C218.763 224.645 212.154 231.663 203.862 233.604C198.157 234.94 194.922 232.919 191.465 230.01C188.009 227.101 181.555 222.193 174.063 223.563C166.571 224.932 165.119 225.731 161.864 227.215C158.61 228.698 150.729 231.779 145.203 231.837C139.674 231.895 136.853 230.296 135.477 229.154C134.101 228.013 130.643 224.591 130.643 224.591L130.642 224.589Z" fill="white"/>
<path fill-rule="evenodd" clip-rule="evenodd" d="M146.734 237.598L152.592 240.337C152.592 240.337 157.951 238.568 159.928 237.542C161.905 236.515 168.928 233.263 174.117 233.149C179.306 233.035 182.463 233.948 185.549 235.773C188.632 237.6 193.739 241.879 193.739 241.879L198.685 240.167C198.685 240.167 193.099 236.344 190.156 234.119C187.212 231.893 180.872 228.243 174.859 228.812C168.845 229.383 166.712 230.068 163.514 231.322C160.315 232.578 156.361 234.746 154.243 235.601C152.127 236.457 146.736 237.598 146.736 237.598H146.734Z" fill="white"/>
<path fill-rule="evenodd" clip-rule="evenodd" d="M159.132 242.849L165.9 244.275C165.9 244.275 171.828 241.55 176.108 241.593C181.808 241.651 185.322 244.502 185.322 244.502L190.212 243.247C190.212 243.247 183.428 237.542 174.742 237.941C166.056 238.34 159.132 242.849 159.132 242.849V242.849Z" fill="white"/>
<path fill-rule="evenodd" clip-rule="evenodd" d="M215.819 261.164C215.819 261.164 213.611 262.705 211.896 262.933C210.18 263.162 204.56 262.534 204.56 262.534C204.56 262.534 201.387 260.365 198.021 260.195C195.783 260.081 190.584 258.768 185.167 262.534C179.752 266.301 185.111 272.976 185.111 272.976L180.447 272.805C180.447 272.805 180.858 270.922 180.619 268.468C180.377 266.014 177.662 265.673 177.662 265.673C177.662 265.673 177.789 265.275 177.548 263.392C177.307 261.509 174.703 260.767 174.703 260.767C174.703 260.767 172.099 261.509 171.858 263.392C171.617 265.275 171.744 265.673 171.744 265.673C171.744 265.673 169.028 266.016 168.787 268.468C168.546 270.922 168.959 272.805 168.959 272.805L164.295 272.976C164.295 272.976 169.653 266.301 164.239 262.534C158.824 258.768 153.625 260.081 151.386 260.195C148.02 260.365 144.846 262.534 144.846 262.534C144.846 262.534 139.227 263.162 137.51 262.933C135.793 262.707 133.586 261.164 133.586 261.164C133.586 261.164 133.483 265.215 136.372 267.326C139.261 269.438 140.807 269.55 140.807 269.55C140.807 269.55 142.07 272.233 142.797 273.316C143.526 274.4 145.357 275.656 145.357 275.656C145.357 275.656 144.175 267.211 149.338 265.385C154.501 263.559 161.472 266.009 159.519 272.347C158.742 274.862 155.047 275.218 153.859 273.402C152.675 271.59 153.944 268.352 153.944 268.352C153.944 268.352 145.882 270.063 148.939 277.938C151.998 285.811 159.473 281.76 160.37 281.077C161.268 280.392 164.648 278.907 166.569 278.395C168.49 277.88 170.72 277.996 170.72 277.996L169.185 279.48C169.185 279.48 164.176 279.501 161.905 282.276C157.001 288.268 160.938 291.52 160.938 291.52C160.938 291.52 162.146 286.099 167.821 285.414C173.494 284.729 173.009 287.639 173.052 289.066C173.094 290.492 172.632 293.784 167.763 293.002C165.988 292.716 164.009 290.035 164.009 290.035C164.009 290.035 162.827 295.57 165.771 297.966C168.716 300.362 170.776 300.02 170.776 300.02C170.776 300.02 171.359 302.359 172.198 303.614C173.037 304.869 174.701 306.352 174.701 306.352C174.701 306.352 176.366 304.868 177.205 303.614C178.044 302.358 178.626 300.02 178.626 300.02C178.626 300.02 180.687 300.362 183.632 297.966C186.575 295.57 185.393 290.035 185.393 290.035C185.393 290.035 183.416 292.718 181.639 293.002C176.77 293.784 176.308 290.49 176.352 289.066C176.395 287.639 175.91 284.729 181.583 285.414C187.256 286.099 188.464 291.52 188.464 291.52C188.464 291.52 192.401 288.266 187.497 282.276C185.227 279.502 180.218 279.48 180.218 279.48L178.682 277.996C178.682 277.996 180.914 277.882 182.833 278.395C184.754 278.907 188.136 280.392 189.033 281.077C189.93 281.762 197.405 285.813 200.463 277.938C203.522 270.063 195.458 268.352 195.458 268.352C195.458 268.352 196.727 271.59 195.545 273.402C194.357 275.218 190.662 274.862 189.885 272.347C187.932 266.009 194.903 263.56 200.066 265.385C205.229 267.211 204.047 275.656 204.047 275.656C204.047 275.656 205.878 274.4 206.607 273.316C207.335 272.233 208.597 269.55 208.597 269.55C208.597 269.55 210.143 269.436 213.034 267.326C215.923 265.215 215.819 261.164 215.819 261.164V261.164Z" fill="white"/>
<path d="M174.701 123.456C155.353 123.456 139.668 139.192 139.668 158.603C139.668 178.016 155.353 193.752 174.701 193.752C194.048 193.752 209.733 178.016 209.733 158.603C209.733 139.192 194.048 123.456 174.701 123.456ZM193.368 133.698C195.561 135.412 198.343 138.462 198.343 138.462C198.343 138.462 199.197 141.772 199.169 144.454C199.14 147.136 198.685 149.931 198.685 149.931L187.709 153.469C187.709 153.469 184.355 150.558 182.164 148.932C179.974 147.307 175.482 144.652 175.482 144.652L175.54 133.011C175.54 133.011 178.412 131.643 180.914 130.785C183.415 129.928 186.629 129.758 186.629 129.758C186.629 129.758 190.668 131.583 193.368 133.694V133.698ZM185.735 158.603C185.735 164.709 180.784 169.676 174.701 169.676C168.615 169.676 163.666 164.709 163.666 158.603C163.666 152.497 168.617 147.532 174.701 147.532C180.784 147.532 185.735 152.499 185.735 158.603V158.603ZM164.336 127.028C164.836 126.411 165.614 125.854 165.614 125.854C165.614 125.854 171.239 124.179 176.134 124.574C181.029 124.969 183.507 125.717 183.507 125.717C183.507 125.717 184.141 126.254 184.648 126.81C185.156 127.365 185.559 128.337 185.559 128.337C185.559 128.337 181.917 128.63 179.436 129.611C177.06 130.549 174.561 131.832 174.561 131.832C174.561 131.832 170.629 129.938 169.31 129.49C167.129 128.749 163.618 128.415 163.618 128.415C163.618 128.415 163.837 127.646 164.336 127.03V127.028ZM151.06 138.299C151.06 138.299 154.037 135.01 156.873 133.084C159.177 131.52 162.928 129.807 162.928 129.807C162.928 129.807 166.329 130.017 168.863 130.872C171.397 131.729 173.906 133.026 173.906 133.026L173.868 144.594C173.868 144.594 170.072 146.896 167.854 148.482C165.636 150.069 161.733 153.537 161.733 153.537L150.716 149.885C150.716 149.885 150.305 146.722 150.268 144.069C150.229 141.417 151.061 138.299 151.061 138.299H151.06ZM141.58 158.728C141.151 158.06 140.862 157.146 140.862 157.146C140.862 157.146 141.011 151.26 142.9 146.71C144.787 142.164 146.263 140.028 146.263 140.028C146.263 140.028 146.968 139.59 147.651 139.277C148.334 138.965 149.38 138.88 149.38 138.88C149.38 138.88 148.532 142.443 148.694 145.117C148.85 147.675 149.291 150.454 149.291 150.454C149.291 150.454 146.282 153.62 145.45 154.742C144.072 156.592 142.671 159.839 142.671 159.839C142.671 159.839 142.01 159.392 141.579 158.726L141.58 158.728ZM143.782 160.931C143.782 160.931 145.03 157.751 146.625 155.597C148.218 153.445 150.224 151.451 150.224 151.451L161.176 155.062C161.176 155.062 162.185 159.396 163.003 162.001C163.822 164.61 165.902 169.405 165.902 169.405L159.037 178.788C159.037 178.788 155.912 178.202 153.386 177.42C150.861 176.638 148.16 174.881 148.16 174.881C148.16 174.881 145.964 171.023 145.015 167.722C144.244 165.039 143.78 160.933 143.78 160.933L143.782 160.931ZM164.596 190.236C163.83 190.441 162.876 190.432 162.876 190.432C162.876 190.432 157.342 188.471 153.614 185.264C149.886 182.057 148.318 179.99 148.318 179.99C148.318 179.99 148.12 179.182 148.035 178.434C147.95 177.686 148.193 176.661 148.193 176.661C148.193 176.661 151.309 178.57 153.893 179.241C156.366 179.882 159.137 180.32 159.137 180.32C159.137 180.32 161.21 184.17 162.013 185.311C163.345 187.198 165.987 189.539 165.987 189.539C165.987 189.539 165.361 190.032 164.595 190.236H164.596ZM174.182 189.737C171.404 189.643 167.365 188.818 167.365 188.818C167.365 188.818 164.736 186.644 163.188 184.458C161.641 182.271 160.371 179.741 160.371 179.741L167.178 170.406C167.178 170.406 171.597 170.782 174.322 170.806C177.044 170.832 182.235 170.329 182.235 170.329L189.007 179.778C189.007 179.778 187.485 182.58 185.963 184.749C184.441 186.917 181.941 188.95 181.941 188.95C181.941 188.95 177.605 189.855 174.182 189.739V189.737ZM201.577 178.011C201.535 178.805 201.232 179.713 201.232 179.713C201.232 179.713 197.662 184.386 193.47 186.953C189.278 189.519 186.836 190.374 186.836 190.374C186.836 190.374 186.009 190.315 185.273 190.165C184.536 190.015 183.641 189.468 183.641 189.468C183.641 189.468 186.417 187.082 187.85 184.826C189.222 182.665 190.493 180.153 190.493 180.153C190.493 180.153 194.781 179.368 196.115 178.952C198.313 178.265 201.348 176.464 201.348 176.464C201.348 176.464 201.623 177.215 201.579 178.009L201.577 178.011ZM204.067 168.712C203.119 171.334 201.088 174.932 201.088 174.932C201.088 174.932 198.216 176.767 195.663 177.57C193.112 178.369 190.321 178.802 190.321 178.802L183.575 169.421C183.575 169.421 185.296 165.321 186.162 162.729C187.026 160.137 188.154 155.03 188.154 155.03L199.206 151.487C199.206 151.487 201.39 153.804 202.977 155.928C204.561 158.051 205.716 161.064 205.716 161.064C205.716 161.064 205.232 165.481 204.067 168.712V168.712ZM206.735 159.603C206.735 159.603 205.332 156.219 203.636 154.154C202.012 152.177 200.025 150.188 200.025 150.188C200.025 150.188 200.606 145.851 200.622 144.454C200.65 142.143 199.884 138.691 199.884 138.691C199.884 138.691 200.68 138.662 201.419 138.948C202.158 139.233 202.926 139.803 202.926 139.803C202.926 139.803 206.253 144.653 207.391 149.447C208.527 154.239 208.585 156.836 208.585 156.836C208.585 156.836 208.271 157.608 207.902 158.262C207.532 158.918 206.737 159.603 206.737 159.603H206.735Z" fill="white"/>
<path d="M164.711 158.603C164.711 164.129 169.193 168.626 174.701 168.626C180.209 168.626 184.692 164.129 184.692 158.603C184.692 153.076 180.211 148.579 174.701 148.579C169.193 148.579 164.711 153.076 164.711 158.603V158.603ZM174.098 167.13C173.151 167.882 171.89 167.776 170.97 166.815C170.078 165.883 169.747 162.793 169.462 161.624C169.178 160.455 168.789 159.797 167.812 159.797C166.836 159.797 166.921 160.482 166.987 160.796C167.053 161.111 167.726 161.319 168.038 160.883C168.351 160.445 167.868 160.254 167.868 160.254C167.868 160.254 168.713 160.14 168.92 160.854C169.103 161.483 168.721 161.967 168.721 161.967C168.721 161.967 168.882 162.195 169.006 162.394C169.129 162.594 169.528 163.137 169.404 164.049C169.28 164.963 168.835 165.104 168.835 165.104C168.835 165.104 168.797 164.543 168.551 163.935C168.381 163.514 167.992 163.061 167.755 162.822C167.625 162.694 166.997 162.403 166.476 161.911C165.985 161.445 165.755 160.685 165.822 160.285C166.043 158.954 166.972 158.645 167.58 158.591C166.972 158.535 166.043 158.228 165.822 156.897C165.755 156.497 165.985 155.737 166.476 155.271C166.999 154.779 167.625 154.489 167.755 154.36C167.991 154.123 168.38 153.669 168.551 153.247C168.797 152.639 168.835 152.078 168.835 152.078C168.835 152.078 169.28 152.221 169.404 153.133C169.526 154.046 169.129 154.588 169.006 154.787C168.882 154.987 168.721 155.215 168.721 155.215C168.721 155.215 169.105 155.699 168.92 156.326C168.711 157.04 167.868 156.926 167.868 156.926C167.868 156.926 168.351 156.737 168.038 156.299C167.726 155.861 167.053 156.071 166.987 156.384C166.921 156.698 166.836 157.383 167.812 157.383C168.789 157.383 169.178 156.727 169.462 155.558C169.747 154.389 170.076 151.297 170.97 150.365C171.889 149.406 173.149 149.3 174.098 150.052C175.116 150.858 174.591 152.277 174.355 152.591C174.117 152.904 173.344 153.479 173.188 153.56C172.865 153.733 172.493 153.915 172.079 154.729C171.819 155.242 171.653 156.071 171.653 156.071C171.653 156.071 171.019 155.706 171.112 154.387C171.16 153.722 171.795 152.961 171.795 152.961C171.795 152.961 171.332 152.267 171.766 151.563C172.06 151.088 172.648 151.25 172.648 151.25C172.648 151.25 172.383 151.297 172.391 151.592C172.402 151.887 172.818 152.238 173.273 152.049C173.728 151.858 173.765 150.936 173.072 150.822C172.381 150.708 171.974 150.822 171.651 151.251C171.328 151.679 171.073 152.516 170.939 153.191C170.807 153.865 170.579 155.617 170.229 156.585C169.879 157.555 169.597 157.797 169.263 158.098C168.808 158.506 168.125 158.582 168.125 158.582C168.125 158.582 168.094 158.588 168.04 158.593C168.094 158.598 168.125 158.603 168.125 158.603C168.125 158.603 168.808 158.678 169.263 159.089C169.597 159.39 169.879 159.632 170.229 160.602C170.581 161.571 170.807 163.32 170.939 163.995C171.072 164.669 171.328 165.508 171.651 165.936C171.974 166.363 172.381 166.477 173.072 166.363C173.765 166.249 173.726 165.326 173.273 165.138C172.818 164.947 172.402 165.3 172.391 165.595C172.383 165.89 172.648 165.937 172.648 165.937C172.648 165.937 172.06 166.099 171.766 165.622C171.332 164.92 171.795 164.225 171.795 164.225C171.795 164.225 171.16 163.465 171.112 162.8C171.019 161.479 171.653 161.116 171.653 161.116C171.653 161.116 171.819 161.945 172.079 162.458C172.493 163.272 172.865 163.456 173.188 163.627C173.344 163.71 174.117 164.283 174.355 164.596C174.591 164.911 175.116 166.329 174.098 167.137V167.13ZM170.999 158.589C170.999 156.537 172.656 154.874 174.701 154.874C176.746 154.874 178.404 156.539 178.404 158.589C178.404 160.641 176.746 162.304 174.701 162.304C172.656 162.304 170.999 160.641 170.999 158.589V158.589ZM175.304 150.048C176.252 149.297 177.512 149.402 178.433 150.362C179.325 151.294 179.656 154.385 179.939 155.554C180.225 156.723 180.612 157.379 181.589 157.379C182.565 157.379 182.48 156.694 182.414 156.381C182.348 156.067 181.674 155.858 181.361 156.296C181.048 156.732 181.533 156.923 181.533 156.923C181.533 156.923 180.688 157.037 180.481 156.323C180.298 155.694 180.68 155.212 180.68 155.212C180.68 155.212 180.519 154.983 180.395 154.784C180.271 154.583 179.873 154.043 179.997 153.129C180.119 152.218 180.566 152.074 180.566 152.074C180.566 152.074 180.603 152.635 180.85 153.243C181.021 153.664 181.41 154.118 181.646 154.356C181.775 154.486 182.404 154.775 182.925 155.268C183.416 155.733 183.645 156.495 183.579 156.894C183.358 158.225 182.429 158.533 181.821 158.588C182.429 158.642 183.358 158.95 183.579 160.281C183.645 160.684 183.416 161.442 182.925 161.907C182.404 162.4 181.774 162.691 181.646 162.819C181.41 163.057 181.021 163.511 180.85 163.932C180.603 164.54 180.566 165.101 180.566 165.101C180.566 165.101 180.121 164.957 179.997 164.046C179.873 163.134 180.272 162.59 180.395 162.391C180.519 162.192 180.68 161.963 180.68 161.963C180.68 161.963 180.296 161.479 180.481 160.851C180.69 160.137 181.533 160.251 181.533 160.251C181.533 160.251 181.048 160.44 181.361 160.88C181.674 161.316 182.348 161.108 182.414 160.793C182.48 160.479 182.565 159.794 181.589 159.794C180.612 159.794 180.225 160.452 179.939 161.621C179.654 162.79 179.325 165.879 178.433 166.812C177.514 167.773 176.252 167.878 175.304 167.127C174.287 166.321 174.812 164.901 175.049 164.586C175.286 164.272 176.058 163.7 176.215 163.616C176.537 163.446 176.911 163.262 177.324 162.447C177.584 161.934 177.75 161.106 177.75 161.106C177.75 161.106 178.384 161.469 178.29 162.79C178.243 163.454 177.607 164.214 177.607 164.214C177.607 164.214 178.071 164.91 177.636 165.612C177.342 166.087 176.755 165.927 176.755 165.927C176.755 165.927 177.02 165.879 177.011 165.585C177.003 165.29 176.585 164.939 176.13 165.128C175.675 165.317 175.637 166.239 176.328 166.353C177.02 166.467 177.427 166.353 177.75 165.925C178.073 165.498 178.328 164.661 178.46 163.984C178.592 163.31 178.82 161.559 179.172 160.592C179.522 159.622 179.803 159.38 180.138 159.078C180.593 158.669 181.276 158.593 181.276 158.593C181.276 158.593 181.307 158.588 181.361 158.582C181.307 158.577 181.276 158.572 181.276 158.572C181.276 158.572 180.593 158.497 180.138 158.088C179.803 157.787 179.522 157.545 179.172 156.575C178.82 155.605 178.594 153.855 178.46 153.18C178.328 152.506 178.071 151.669 177.75 151.241C177.427 150.812 177.02 150.698 176.328 150.812C175.637 150.926 175.675 151.85 176.13 152.039C176.585 152.228 177.001 151.877 177.011 151.582C177.021 151.287 176.755 151.239 176.755 151.239C176.755 151.239 177.342 151.078 177.636 151.553C178.071 152.257 177.607 152.95 177.607 152.95C177.607 152.95 178.243 153.712 178.29 154.377C178.385 155.696 177.75 156.06 177.75 156.06C177.75 156.06 177.584 155.232 177.324 154.719C176.911 153.903 176.537 153.722 176.215 153.55C176.058 153.468 175.286 152.894 175.049 152.581C174.812 152.267 174.287 150.849 175.304 150.041V150.048Z" fill="white"/>
<path d="M164.061 158.603C164.061 164.489 168.833 169.279 174.701 169.279C180.568 169.279 185.342 164.489 185.342 158.603C185.342 152.717 180.57 147.927 174.701 147.927C168.835 147.927 164.061 152.717 164.061 158.603ZM185.088 158.603C185.088 164.349 180.429 169.024 174.701 169.024C168.976 169.024 164.315 164.349 164.315 158.603C164.315 152.858 168.974 148.184 174.701 148.184C180.427 148.184 185.088 152.858 185.088 158.603V158.603Z" fill="white"/>
<path d="M181.36 158.589C181.455 158.598 181.62 158.608 181.819 158.589C181.62 158.572 181.454 158.581 181.36 158.589Z" fill="white"/>
<path d="M168.041 158.589C167.947 158.581 167.781 158.572 167.582 158.589C167.782 158.608 167.947 158.598 168.041 158.589Z" fill="white"/>
<path d="M177.83 158.975C177.83 158.975 177.886 158.775 177.886 158.603C177.886 158.431 177.83 158.232 177.83 158.232C177.83 158.232 177.404 158.319 177.005 158.319C176.889 158.319 176.032 158.25 175.84 158.061C175.622 157.848 175.374 157.386 175.554 157.119C176.037 156.405 176.92 157.034 176.92 157.034C176.92 157.034 177.054 156.681 176.721 156.291C176.181 155.655 175.3 155.948 175.3 155.948L174.703 155.149L174.078 155.948C174.078 155.948 173.756 155.747 173.112 155.977C172.3 156.265 172.458 157.032 172.458 157.032C172.458 157.032 173.637 156.311 173.88 157.288C173.932 157.495 173.829 157.77 173.695 157.937C173.499 158.179 173.075 158.237 172.715 158.286C172.098 158.371 171.577 158.201 171.577 158.201C171.577 158.201 171.521 158.438 171.521 158.629C171.521 158.82 171.549 158.971 171.549 158.971C171.549 158.971 172.354 158.809 173.227 158.971C173.674 159.053 174.165 159.77 173.739 160.225C173.312 160.684 172.489 160.169 172.489 160.169C172.489 160.169 172.29 160.759 173.058 161.195C173.464 161.427 174.08 161.253 174.08 161.253L174.705 162.023L175.33 161.253C175.33 161.253 175.862 161.405 176.325 161.224C176.984 160.965 176.922 160.169 176.922 160.169C176.922 160.169 176.353 160.502 175.926 160.369C175.5 160.236 175.349 159.816 175.755 159.229C176.162 158.639 177.832 158.971 177.832 158.971L177.83 158.975ZM174.702 159.66L173.876 158.605L174.702 157.55L175.527 158.605L174.702 159.66Z" fill="white"/>
<path d="M174.166 158.603L174.701 159.288L175.236 158.603L174.701 157.92L174.166 158.603Z" fill="white"/>
<path fill-rule="evenodd" clip-rule="evenodd" d="M148.799 105.636L148.152 105.965C148.152 105.965 147.592 105.944 147.378 105.951C147.164 105.956 146.909 105.955 146.909 105.955C146.909 105.955 146.658 106.323 146.597 106.507C146.535 106.691 146.454 106.963 146.454 106.963L145.907 107.119L145.508 106.764C145.508 106.764 145.674 105.883 145.78 105.619C145.883 105.353 146.107 104.976 146.107 104.976C146.107 104.976 146.999 104.835 147.351 104.873C147.702 104.91 148.297 105.005 148.297 105.005L148.799 105.636V105.636Z" fill="white"/>
<path fill-rule="evenodd" clip-rule="evenodd" d="M174.304 111.425C142.864 111.425 117.375 136.806 117.375 168.114C117.375 183.631 123.639 197.692 133.784 207.928C133.927 208.072 136.293 207.209 136.293 207.209C126.032 197.317 119.651 183.458 119.651 168.112C119.651 144.969 134.161 125.201 154.614 117.333C154.977 117.456 155.92 117.855 156.034 118.657C156.176 119.656 155.607 120.598 154.753 120.713C153.9 120.827 153.788 119.917 153.957 119.544C154.242 118.917 155.095 119.085 155.095 119.085C155.095 119.085 154.447 117.771 153.16 119.114C152.45 119.857 152.791 121.053 152.791 121.053C152.791 121.053 151.37 121.483 150.915 122.366C150.459 123.25 150.374 124.278 150.374 124.278C150.374 124.278 151.057 123.109 152.222 122.936C153.388 122.766 154.85 122.41 155.322 122.253C156.09 121.994 156.63 120.939 156.63 120.939L158.023 122.166L158.705 120.254C158.705 120.254 159.273 120.854 160.382 120.569C161.491 120.283 162.644 119.559 163.198 119.343C164.506 118.83 165.557 119.315 165.557 119.315C165.557 119.315 164.845 118.373 163.993 117.974C163.14 117.574 161.973 118.059 161.973 118.059C161.973 118.059 161.566 116.887 160.779 116.718C159.045 116.348 159.074 117.746 159.074 117.746C159.074 117.746 160.119 117.016 160.468 117.688C160.81 118.344 160.241 119.228 159.473 119.143C158.705 119.058 157.938 118.344 158.023 117.488C158.094 116.769 158.687 116.093 158.874 115.893C161.122 115.236 163.431 114.718 165.79 114.348C168.064 114.092 171.473 113.777 171.473 113.777C171.473 113.777 172.866 114.263 172.979 115.346C173.093 116.43 172.183 117.144 171.728 117.229C171.272 117.315 170.355 117.045 170.618 115.975C170.77 115.357 171.926 115.747 171.926 115.747C171.926 115.747 171.813 114.578 170.447 115.062C169.081 115.548 169.338 116.945 169.338 116.945C169.338 116.945 167.972 117.001 167.347 117.458C166.722 117.915 166.209 119.256 166.209 119.256C166.209 119.256 166.863 118.485 168.343 118.629C169.82 118.772 170.866 118.857 171.413 118.857C172.181 118.857 172.949 118.058 172.949 118.058L174.085 119.627L175.165 118.001C175.165 118.001 175.763 118.944 177.355 118.886C178.948 118.83 179.743 118.373 180.682 118.657C181.619 118.944 181.876 119.257 181.876 119.257C181.876 119.257 181.876 118.402 180.909 117.603C179.943 116.803 178.89 117.032 178.89 117.032C178.89 117.032 178.785 115.875 178.265 115.462C176.645 114.179 176.132 115.72 176.132 115.72C176.132 115.72 177.553 115.178 177.526 116.405C177.497 117.632 176.105 117.347 175.592 116.776C175.08 116.205 175.023 115.121 175.536 114.494C176.047 113.866 176.587 113.78 176.587 113.78C176.587 113.78 180.549 114.101 183.128 114.465C185.944 114.864 189.099 115.807 189.099 115.807C189.099 115.807 190.701 116.817 189.697 118.431C188.986 119.573 187.792 118.974 187.593 118.659C187.393 118.346 187.438 117.557 187.905 117.434C188.446 117.291 188.957 117.776 188.957 117.776C188.957 117.776 189.125 116.708 187.849 116.635C186.341 116.55 186.086 118.175 186.086 118.175C186.086 118.175 184.864 117.661 184.011 118.005C183.158 118.347 182.56 119.259 182.56 119.259C182.56 119.259 183.668 118.917 184.352 119.174C185.035 119.431 187.111 120.486 187.849 120.6C188.588 120.714 189.356 120.256 189.356 120.256L189.981 122.083L191.489 120.914C191.489 120.914 191.688 121.798 192.94 122.255C194.191 122.712 195.494 122.81 196.067 122.996C197.118 123.339 197.689 124.223 197.689 124.223C197.689 124.223 197.583 122.952 197.176 122.338C196.607 121.483 195.241 121.084 195.241 121.084C195.241 121.084 195.549 120.062 195.1 119.402C193.857 117.577 192.909 119.031 192.909 119.031C192.909 119.031 194.557 118.937 194.161 120.171C193.904 120.97 192.569 120.856 192.199 119.828C191.829 118.802 192.199 117.889 192.625 117.688C193.052 117.488 193.735 117.289 193.735 117.289C193.735 117.289 197.563 118.775 201.303 120.83V120.793C217.814 130.157 228.947 147.838 228.947 168.114C228.947 183.379 222.632 197.174 212.464 207.058L214.748 207.997C224.934 197.753 231.225 183.667 231.225 168.114C231.225 136.806 205.738 111.425 174.296 111.425H174.304Z" fill="white"/>
<path fill-rule="evenodd" clip-rule="evenodd" d="M223.654 200.139C223.654 200.139 221.905 201.579 223.397 203.077C224.649 204.331 225.645 203.419 225.645 203.419C225.645 203.419 225.359 203.233 225.388 202.734C225.417 202.235 225.645 202.192 225.645 202.192C225.645 202.192 225.682 202.49 225.787 202.734C225.862 202.908 226.015 203.048 226.015 203.048C226.015 203.048 226.383 202.705 226.526 202.334C226.669 201.962 226.698 201.592 226.698 201.592C226.698 201.592 225.887 202.235 225.646 201.507C225.405 200.779 226.144 200.195 226.414 200.195C226.684 200.195 227.489 200.253 227.436 201.478C227.394 202.519 226.528 203.56 226.528 203.56L226.784 203.818C226.784 203.818 227.353 203.361 227.525 202.962C227.695 202.564 227.795 202.349 227.951 202.25C228.107 202.15 229.971 201.366 229.971 201.366C229.971 201.366 229.16 203.121 229.06 203.278C228.96 203.434 228.576 203.663 228.321 203.763C228.065 203.862 227.382 204.476 227.382 204.476L227.639 204.733C227.639 204.733 228.819 203.876 229.543 203.905C230.268 203.934 231.051 204.09 230.993 204.903C230.937 205.716 229.925 205.87 229.656 205.703C229.016 205.302 229.599 204.619 229.599 204.619C229.599 204.619 229.257 204.59 228.719 204.847C228.177 205.104 228.148 205.246 228.148 205.246C228.148 205.246 228.362 205.461 228.576 205.559C228.788 205.658 228.974 205.703 228.974 205.703C228.974 205.703 228.605 206.001 228.32 205.931C228.034 205.859 227.78 205.617 227.78 205.617C227.78 205.617 226.545 206.855 228.489 208.271C229.684 209.141 230.964 207.758 230.964 207.758C230.964 207.758 231.319 209.083 230.453 210.382C229.585 211.681 227.965 211.865 227.041 211.123C226.117 210.382 225.541 209.194 225.847 207.557C226.117 206.117 227.212 205.074 227.212 205.074L227.012 204.845C227.012 204.845 226.273 205.374 225.677 206.957C225.079 208.54 224.982 209.445 224.084 209.838C223.175 210.237 219.62 211.379 219.62 211.379C219.62 211.379 220.656 208.584 220.785 208.127C220.913 207.671 221.312 206.659 221.979 206.273C222.647 205.888 224.162 205.513 224.765 205.275C225.49 204.99 226.414 204.22 226.414 204.22L226.186 203.963C226.186 203.963 224.936 205.246 223.37 205.304C221.808 205.362 220.199 204.706 219.788 203.165C219.376 201.625 220.885 200.565 221.694 200.226C222.645 199.827 223.656 200.14 223.656 200.14L223.654 200.139Z" fill="white"/>
<path fill-rule="evenodd" clip-rule="evenodd" d="M242.328 173.461C242.328 173.461 243.938 172.648 243.92 169.923C243.891 165.643 240.621 166.415 240.621 166.415C240.621 166.415 242.172 167.87 241.985 169.068C241.744 170.624 240.108 171.179 238.885 171.266C237.662 171.351 237.024 171.28 236.723 171.293C236.426 171.307 236.098 171.808 235.955 171.978C235.813 172.151 235.614 172.464 235.529 172.464C235.443 172.464 235.215 171.096 235.842 168.926C236.467 166.759 238.372 163.662 239.283 162.108C240.193 160.552 242.026 156.63 241.898 153.15C241.771 149.668 239.055 148.499 239.055 148.499C239.055 148.499 239.369 147.872 239.51 147.416C239.653 146.959 239.677 146.393 239.677 146.393L238.522 146.903C238.522 146.903 238.403 147.301 238.374 147.472C238.347 147.644 238.175 148.099 238.175 148.099C238.175 148.099 236.38 147.673 234.593 148.441C233 149.126 231.463 151.277 231.694 153.918C231.915 156.461 232.745 156.372 232.944 158.569C233.143 160.765 232.46 163.049 232.46 163.049C232.46 163.049 234.308 162.107 234.649 159.711C234.889 158.034 234.877 157.671 234.848 157.603C234.831 157.599 234.821 157.599 234.821 157.599C234.821 157.599 234.836 157.574 234.848 157.603C235.071 157.63 236.682 157.771 237.635 156.285C238.658 154.689 237.635 153.005 237.635 153.005C237.635 153.005 237.275 155.721 235.047 154.517C233.916 153.905 234.904 151.834 234.904 151.834C234.904 151.834 236.154 149.752 238.544 151.378C240.932 153.003 238.571 158.796 236.638 161.619C234.704 164.445 232.744 168.758 232.998 170.918C233.311 173.579 233.916 174.751 233.938 174.628C233.938 174.628 231.264 177.938 232.545 182.217C233.824 186.496 236.042 191.022 236.042 193.544C236.042 195.769 235.757 197.823 233.257 197.995C230.237 198.201 230.554 194.628 231.494 194.2C232.433 193.772 233.202 193.82 233.741 194.628C234.082 195.142 233.911 195.855 233.911 195.855C233.911 195.855 235.155 194.554 234.593 192.888C233.91 190.863 231.978 191.006 231.978 191.006C231.978 191.006 232.226 189.868 232.091 188.239C231.92 186.17 230.585 185.357 230.585 185.357C230.585 185.357 230.745 188.404 230.3 189.865C229.775 191.591 228.295 192.973 228.195 194.715C228.097 196.454 227.84 199.079 230.84 200.449C233.841 201.819 236.769 199.793 237.722 197.567C238.675 195.342 238.632 192.046 237.693 189.151C236.754 186.255 234.921 182.261 234.821 180.165C234.721 178.069 235.105 177.055 235.105 177.055C235.105 177.055 235.39 177.099 235.531 177.597C235.674 178.096 236.141 178.411 236.355 178.396C236.567 178.381 239.184 178.537 240.108 179.48C241.032 180.422 241.233 181.365 240.478 182.39C239.726 183.416 239.171 183.616 239.171 183.616C239.171 183.616 241.019 184.2 242.128 182.789C243.237 181.375 243.237 178.981 242.839 178.11C242.44 177.241 242.043 176.912 242.043 176.912L243.492 175.255L242.326 173.459L242.328 173.461ZM238.715 176.227C237.416 176.218 236.241 174.8 236.241 174.8C236.241 174.8 237.62 173.475 239.142 173.688C240.664 173.901 241.474 175.114 241.474 175.114C241.474 175.114 240.463 176.239 238.715 176.225V176.227Z" fill="white"/>
<path fill-rule="evenodd" clip-rule="evenodd" d="M238.917 174.003C237.892 173.889 236.953 174.887 236.953 174.887C236.953 174.887 237.85 175.842 238.803 175.913C239.756 175.985 240.821 175.056 240.821 175.056C240.821 175.056 239.939 174.115 238.917 174.001V174.003Z" fill="white"/>
<path fill-rule="evenodd" clip-rule="evenodd" d="M105.513 175.06L106.963 176.715C106.963 176.715 106.566 177.043 106.167 177.913C105.769 178.783 105.769 181.179 106.878 182.592C107.988 184.005 109.836 183.42 109.836 183.42C109.836 183.42 109.282 183.221 108.528 182.193C107.775 181.166 107.974 180.225 108.898 179.284C109.822 178.342 112.438 178.185 112.652 178.2C112.866 178.216 113.334 177.901 113.477 177.401C113.62 176.902 113.903 176.859 113.903 176.859C113.903 176.859 114.287 177.873 114.189 179.968C114.088 182.065 112.254 186.06 111.317 188.955C110.377 191.852 110.335 195.146 111.288 197.372C112.241 199.597 115.169 201.623 118.17 200.253C121.169 198.883 120.915 196.259 120.814 194.519C120.716 192.777 119.237 191.394 118.712 189.669C118.267 188.21 118.426 185.162 118.426 185.162C118.426 185.162 117.09 185.973 116.92 188.043C116.786 189.673 117.034 190.811 117.034 190.811C117.034 190.811 115.101 190.668 114.418 192.694C113.856 194.362 115.101 195.662 115.101 195.662C115.101 195.662 114.929 194.948 115.271 194.435C115.807 193.626 116.578 193.58 117.518 194.008C118.457 194.435 118.776 198.009 115.755 197.803C113.253 197.631 112.967 195.577 112.967 193.352C112.967 190.83 115.186 186.305 116.465 182.025C117.744 177.746 115.072 174.436 115.072 174.436C115.092 174.561 115.697 173.386 116.009 170.726C116.264 168.566 114.304 164.251 112.37 161.427C110.435 158.602 108.076 152.811 110.464 151.184C112.852 149.558 114.104 151.64 114.104 151.64C114.104 151.64 115.094 153.709 113.961 154.323C111.734 155.527 111.374 152.811 111.374 152.811C111.374 152.811 110.35 154.495 111.374 156.092C112.325 157.577 113.939 157.434 114.162 157.407C114.173 157.38 114.189 157.404 114.189 157.404C114.189 157.404 114.178 157.405 114.162 157.407C114.133 157.475 114.121 157.838 114.36 159.515C114.702 161.913 116.55 162.853 116.55 162.853C116.55 162.853 115.867 160.57 116.065 158.373C116.264 156.175 117.096 156.265 117.317 153.723C117.547 151.081 116.009 148.931 114.416 148.246C112.628 147.476 110.834 147.903 110.834 147.903C110.834 147.903 110.663 147.447 110.635 147.274C110.607 147.104 110.488 146.705 110.488 146.705L109.331 146.196C109.331 146.196 109.355 146.76 109.498 147.217C109.64 147.673 109.953 148.3 109.953 148.3C109.953 148.3 107.237 149.469 107.109 152.951C106.982 156.431 108.815 160.355 109.725 161.909C110.635 163.463 112.541 166.558 113.166 168.727C113.791 170.897 113.564 172.265 113.479 172.265C113.394 172.265 113.193 171.952 113.052 171.779C112.91 171.609 112.582 171.11 112.285 171.094C111.986 171.079 111.345 171.152 110.123 171.067C108.9 170.98 107.266 170.425 107.025 168.869C106.838 167.671 108.388 166.216 108.388 166.216C108.388 166.216 105.119 165.445 105.09 169.724C105.071 172.449 106.683 173.262 106.683 173.262L105.516 175.058L105.513 175.06ZM107.532 174.918C107.532 174.918 108.343 173.705 109.863 173.492C111.383 173.277 112.764 174.603 112.764 174.603C112.764 174.603 111.59 176.021 110.289 176.029C108.541 176.041 107.532 174.917 107.532 174.917V174.918Z" fill="white"/>
<path fill-rule="evenodd" clip-rule="evenodd" d="M110.091 173.805C111.115 173.691 112.053 174.69 112.053 174.69C112.053 174.69 111.158 175.644 110.205 175.716C109.252 175.787 108.186 174.86 108.186 174.86C108.186 174.86 109.067 173.918 110.09 173.805H110.091Z" fill="white"/>
<path fill-rule="evenodd" clip-rule="evenodd" d="M225.365 121.718L223.206 121.313C223.206 121.313 223.317 120.808 223.096 119.876C222.873 118.946 221.401 117.057 219.66 116.633C217.919 116.209 216.823 117.812 216.823 117.812C216.823 117.812 217.382 117.627 218.607 117.969C219.831 118.312 220.253 119.176 220.105 120.488C219.955 121.8 217.992 123.543 217.817 123.664C217.64 123.785 217.464 124.322 217.659 124.804C217.854 125.285 217.656 125.494 217.656 125.494C217.656 125.494 216.732 124.935 215.521 123.221C214.31 121.509 213.299 117.23 212.258 114.37C211.217 111.511 209.226 108.89 207.106 107.727C204.988 106.565 201.439 106.783 199.918 109.718C198.398 112.651 200.214 114.559 201.362 115.868C202.51 117.175 204.523 117.351 205.999 118.383C207.246 119.257 208.993 121.754 208.993 121.754C208.993 121.754 209.545 120.288 208.407 118.554C207.512 117.189 206.617 116.446 206.617 116.446C206.617 116.446 208.227 115.362 207.521 113.344C206.938 111.684 205.158 111.43 205.158 111.43C205.158 111.43 205.731 111.885 205.778 112.502C205.853 113.472 205.275 113.985 204.273 114.229C203.271 114.472 200.824 111.858 203.329 110.151C205.403 108.736 206.891 110.178 208.258 111.93C209.809 113.913 210.845 118.85 212.468 123.008C214.092 127.17 218.23 128.119 218.23 128.119C218.138 128.034 218.383 129.332 219.772 131.619C220.9 133.476 225.095 135.661 228.353 136.687C231.61 137.713 237.03 140.814 236.148 143.572C235.267 146.329 233.003 145.463 233.003 145.463C233.003 145.463 230.953 144.447 231.466 143.265C232.48 140.937 234.433 142.854 234.433 142.854C234.433 142.854 234.204 140.896 232.417 140.272C230.754 139.691 229.572 140.802 229.414 140.961C229.423 140.991 229.394 140.981 229.394 140.981C229.394 140.981 229.402 140.973 229.414 140.961C229.395 140.891 229.18 140.596 227.962 139.424C226.221 137.747 224.186 138.151 224.186 138.151C224.186 138.151 226.128 139.526 227.32 141.378C228.514 143.231 227.806 143.675 229.193 145.812C230.635 148.035 233.169 148.778 234.842 148.329C236.723 147.828 237.872 146.382 237.872 146.382C237.872 146.382 238.289 146.635 238.414 146.753C238.542 146.869 238.718 147.094 238.718 147.094L239.873 146.584C239.873 146.584 239.739 146.365 239.345 146.092C238.953 145.821 238.321 145.521 238.321 145.521C238.321 145.521 239.741 142.919 237.701 140.102C235.663 137.283 231.807 135.33 230.136 134.668C228.465 134.006 225.061 132.75 223.235 131.43C221.411 130.111 220.748 128.891 220.815 128.838C220.881 128.783 221.231 128.908 221.448 128.955C221.666 129.001 222.23 129.192 222.474 129.018C222.717 128.845 223.177 128.393 224.193 127.705C225.209 127.014 226.837 126.44 227.982 127.515C228.865 128.344 228.539 130.448 228.539 130.448C228.539 130.448 231.586 129.03 228.979 125.644C227.318 123.487 225.552 123.845 225.552 123.845L225.365 121.708V121.718ZM223.863 123.08C223.863 123.08 223.97 124.537 222.904 125.646C221.839 126.757 219.937 126.565 219.937 126.565C219.937 126.565 219.991 124.722 221.007 123.91C222.376 122.819 223.862 123.078 223.862 123.078L223.863 123.08Z" fill="white"/>
<path fill-rule="evenodd" clip-rule="evenodd" d="M222.534 125.538C221.799 126.263 220.445 126.056 220.445 126.056C220.445 126.056 220.562 124.751 221.269 124.104C221.976 123.458 223.384 123.528 223.384 123.528C223.384 123.528 223.268 124.816 222.534 125.538Z" fill="white"/>
<path fill-rule="evenodd" clip-rule="evenodd" d="M174.29 99.072L172.515 100.369C172.515 100.369 172.226 99.9411 171.399 99.464C170.572 98.9868 168.192 98.767 166.689 99.7452C165.186 100.723 165.597 102.623 165.597 102.623C165.597 102.623 165.847 102.088 166.935 101.431C168.024 100.771 168.94 101.057 169.789 102.066C170.638 103.075 170.553 105.704 170.521 105.916C170.487 106.127 170.755 106.625 171.238 106.812C171.72 107 171.737 107.288 171.737 107.288C171.737 107.288 170.696 107.579 168.624 107.286C166.551 106.994 162.755 104.794 159.968 103.593C157.181 102.39 153.913 102.044 151.619 102.792C149.322 103.54 147.043 106.28 148.127 109.402C149.21 112.526 151.839 112.509 153.575 112.572C155.311 112.632 156.819 111.282 158.581 110.914C160.07 110.604 163.08 111.045 163.08 111.045C163.08 111.045 162.395 109.634 160.359 109.274C158.754 108.99 157.602 109.135 157.602 109.135C157.602 109.135 157.922 107.216 155.973 106.347C154.37 105.633 152.965 106.758 152.965 106.758C152.965 106.758 153.689 106.652 154.168 107.04C154.92 107.65 154.897 108.426 154.385 109.322C153.874 110.22 150.299 110.212 150.781 107.214C151.18 104.73 153.246 104.634 155.454 104.837C157.956 105.069 162.244 107.702 166.375 109.372C170.504 111.043 174.033 108.675 174.033 108.675C173.908 108.685 175.017 109.395 177.629 109.953C179.75 110.404 184.212 108.843 187.195 107.17C190.175 105.497 196.139 103.671 197.533 106.205C198.929 108.741 196.747 109.801 196.747 109.801C196.747 109.801 194.602 110.6 194.099 109.413C193.107 107.076 195.836 106.965 195.836 106.965C195.836 106.965 194.26 105.788 192.58 106.664C191.02 107.48 191.013 109.104 191.018 109.329C191.045 109.343 191.02 109.358 191.02 109.358C191.02 109.358 191.02 109.346 191.018 109.329C190.953 109.293 190.595 109.249 188.907 109.334C186.498 109.455 185.394 111.214 185.394 111.214C185.394 111.214 187.721 110.742 189.883 111.142C192.047 111.543 191.882 112.364 194.384 112.819C196.985 113.291 199.262 111.952 200.086 110.425C201.013 108.709 200.755 106.877 200.755 106.877C200.755 106.877 201.193 106.749 201.36 106.698C201.557 106.637 201.851 106.637 201.851 106.637C201.851 106.637 201.937 106.844 201.927 107.213C201.919 107.576 201.864 107.817 201.864 107.817L202.814 107.383C202.814 107.383 202.868 107.09 202.776 106.556C202.712 106.188 202.493 105.621 202.493 105.621C202.493 105.621 202.02 105.505 201.555 105.604C201.088 105.704 200.438 105.96 200.438 105.96C200.438 105.96 199.525 103.14 196.083 102.692C192.64 102.245 188.579 103.717 186.952 104.483C185.325 105.249 182.079 106.868 179.869 107.294C177.659 107.72 176.321 107.368 176.33 107.284C176.338 107.197 176.668 107.028 176.849 106.901C177.033 106.775 177.558 106.495 177.6 106.197C177.641 105.899 177.629 105.255 177.826 104.041C178.023 102.826 178.726 101.245 180.29 101.146C181.496 101.069 182.799 102.753 182.799 102.753C182.799 102.753 183.862 99.556 179.619 99.1351C176.915 98.8658 175.961 100.4 175.961 100.4L174.285 99.0703L174.29 99.072ZM174.246 101.102C174.246 101.102 175.375 102.024 175.448 103.562C175.521 105.101 174.077 106.359 174.077 106.359C174.077 106.359 172.778 105.055 172.888 103.755C173.036 102.008 174.246 101.102 174.246 101.102Z" fill="white"/>
<path fill-rule="evenodd" clip-rule="evenodd" d="M175.114 103.762C175.132 104.794 174.056 105.641 174.056 105.641C174.056 105.641 173.189 104.66 173.206 103.7C173.223 102.743 174.241 101.763 174.241 101.763C174.241 101.763 175.093 102.729 175.114 103.762V103.762Z" fill="white"/>
<path fill-rule="evenodd" clip-rule="evenodd" d="M123.42 123.655C123.42 123.655 121.652 123.299 119.992 125.456C117.383 128.842 120.432 130.26 120.432 130.26C120.432 130.26 120.106 128.154 120.989 127.328C122.134 126.254 123.765 126.827 124.779 127.515C125.794 128.205 126.253 128.657 126.496 128.831C126.74 129.004 127.304 128.814 127.522 128.766C127.739 128.72 128.089 128.595 128.155 128.65C128.223 128.703 127.561 129.921 125.735 131.242C123.909 132.561 120.507 133.818 118.834 134.48C117.163 135.143 113.307 137.094 111.269 139.914C109.231 142.733 110.649 145.333 110.649 145.333C110.649 145.333 110.016 145.633 109.625 145.904C109.233 146.175 109.097 146.395 109.097 146.395L110.252 146.904C110.252 146.904 110.428 146.679 110.556 146.562C110.683 146.446 111.097 146.192 111.097 146.192C111.097 146.192 112.249 147.639 114.129 148.14C115.804 148.586 118.336 147.845 119.78 145.621C121.169 143.484 120.461 143.039 121.653 141.187C122.847 139.336 124.787 137.959 124.787 137.959C124.787 137.959 122.754 137.557 121.011 139.232C119.794 140.405 119.58 140.698 119.559 140.769C119.571 140.781 119.58 140.788 119.58 140.788C119.58 140.788 119.552 140.798 119.559 140.769C119.401 140.609 118.217 139.5 116.556 140.079C114.768 140.705 114.54 142.663 114.54 142.663C114.54 142.663 116.493 140.746 117.506 143.073C118.02 144.254 115.969 145.272 115.969 145.272C115.969 145.272 113.703 146.137 112.823 143.38C111.943 140.623 117.36 137.523 120.619 136.496C123.877 135.468 128.074 133.285 129.201 131.428C130.591 129.141 130.835 127.842 130.742 127.927C130.742 127.927 134.881 126.975 136.503 122.815C138.127 118.655 139.163 113.72 140.714 111.737C142.083 109.985 143.567 108.543 145.643 109.958C148.148 111.663 145.7 114.279 144.698 114.036C143.696 113.792 143.119 113.277 143.193 112.309C143.241 111.692 143.813 111.237 143.813 111.237C143.813 111.237 142.035 111.491 141.452 113.151C140.744 115.169 142.354 116.253 142.354 116.253C142.354 116.253 141.459 116.996 140.564 118.361C139.428 120.094 139.98 121.561 139.98 121.561C139.98 121.561 141.728 119.063 142.976 118.188C144.45 117.156 146.465 116.982 147.613 115.673C148.761 114.364 150.577 112.456 149.056 109.521C147.536 106.589 143.987 106.371 141.869 107.533C139.751 108.697 137.758 111.316 136.717 114.175C135.676 117.035 134.664 121.314 133.454 123.026C132.243 124.739 131.319 125.298 131.319 125.298C131.319 125.298 131.122 125.088 131.318 124.608C131.513 124.127 131.336 123.589 131.16 123.468C130.983 123.347 129.021 121.605 128.872 120.291C128.724 118.979 129.145 118.115 130.37 117.773C131.595 117.43 132.153 117.616 132.153 117.616C132.153 117.616 131.058 116.012 129.317 116.438C127.576 116.863 126.102 118.751 125.881 119.681C125.66 120.613 125.772 121.118 125.772 121.118L123.613 121.523L123.427 123.66L123.42 123.655ZM127.963 123.711C128.981 124.523 129.033 126.365 129.033 126.365C129.033 126.365 127.133 126.554 126.068 125.446C125.001 124.337 125.11 122.882 125.11 122.882C125.11 122.882 126.596 122.621 127.965 123.711H127.963Z" fill="white"/>
<path fill-rule="evenodd" clip-rule="evenodd" d="M126.442 125.341C127.177 126.065 128.529 125.859 128.529 125.859C128.529 125.859 128.412 124.553 127.705 123.906C126.999 123.26 125.591 123.33 125.591 123.33C125.591 123.33 125.706 124.616 126.442 125.341V125.341Z" fill="white"/>
<path fill-rule="evenodd" clip-rule="evenodd" d="M223.799 220.184C223.553 219.837 223.172 219.678 222.833 219.642C222.111 219.564 221.411 219.927 221.411 219.927C221.411 219.927 221.837 220.099 222.15 220.326C222.462 220.554 222.748 221.011 222.547 221.41C222.349 221.808 221.666 221.865 221.353 221.58C221.117 221.365 220.839 220.617 220.784 219.641C220.766 219.315 220.728 218.812 220.784 218.499C221.012 217.245 221.155 216.103 220.699 214.419C220.244 212.736 218.084 211.824 218.084 211.824C218.084 211.824 218.311 211.739 218.084 210.084C217.855 208.429 216.263 207.173 215.609 206.889C214.955 206.604 213.275 205.805 212.481 205.205C211.684 204.605 211.315 203.75 211.827 203.351C212.338 202.952 212.681 203.152 212.936 203.551C213.192 203.951 212.993 204.863 212.993 204.863C212.993 204.863 214.624 203.978 214.016 202.523C213.469 201.211 211.456 200.906 210.434 202.267C209.411 203.627 210.149 204.977 210.149 204.977C210.149 204.977 209.836 205.272 209.778 205.548C209.722 205.824 209.892 206.233 209.892 206.233C209.892 206.233 209.011 206.575 209.124 207.375C209.264 208.344 210.233 208.174 210.233 208.174C210.233 208.174 210.149 208.554 210.461 208.944C210.775 209.334 211.371 209.229 211.371 209.229C211.371 209.229 211.789 210.389 212.537 210.655C213.529 211.008 214.242 210.285 214.242 210.285C214.242 210.285 213.474 210.115 213.274 209.886C212.681 209.205 212.924 208.763 213.474 208.375C214.023 207.985 214.972 208.09 215.806 209.002C216.175 209.406 216.348 209.902 216.375 210.258C216.407 210.706 216.232 210.97 216.232 210.97C216.232 210.97 216.069 210.957 215.835 210.914C215.647 210.88 215.414 210.812 215.152 210.829C214.565 210.866 214.023 211.628 212.706 211.798C211.388 211.971 210.631 211.113 210.631 211.113C210.631 211.113 210.261 212.224 210.887 212.911C211.672 213.768 212.565 213.939 212.565 213.939L211.626 215.622L213.503 215.651C213.503 215.651 213.172 216.868 213.559 217.734C214.036 218.797 214.896 218.789 214.896 218.789C214.896 218.789 214.914 218.864 214.867 218.446C214.818 218.029 214.847 217.458 215.322 216.706C215.737 216.05 216.706 215.527 217.029 215.365C217.35 215.203 217.598 214.823 217.683 214.537C217.768 214.252 217.911 213.939 217.911 213.939C217.911 213.939 219.02 214.148 219.332 215.336C219.645 216.526 219.361 217.095 218.962 217.504C218.563 217.913 217.89 218.056 217.455 217.504C217.019 216.952 217.484 216.048 217.484 216.048C217.484 216.048 217.284 216.096 217.114 216.192C216.942 216.287 216.214 216.858 216.26 217.676C216.307 218.494 216.858 219.104 216.858 219.104C216.858 219.104 216.516 219.445 216.601 219.959C216.696 220.535 217.17 220.644 217.17 220.644C217.17 220.644 216.627 221.411 217.17 221.957C217.814 222.604 218.648 221.928 218.648 221.928C218.648 221.928 218.809 222.345 219.159 222.413C219.388 222.458 219.815 222.384 219.815 222.384C219.815 222.384 220.04 222.783 220.667 223.183C221.294 223.582 222.289 223.555 222.885 223.356C223.206 223.248 223.743 222.836 224.023 222.187C224.265 221.628 224.324 220.936 223.796 220.189L223.799 220.184ZM215.694 214.375C214.672 215.06 213.505 214.661 213.505 214.661C213.505 214.661 213.907 213.417 214.585 213.063C215.572 212.55 216.662 212.863 216.662 212.863C216.662 212.863 216.292 213.976 215.694 214.375V214.375Z" fill="white"/>
<path fill-rule="evenodd" clip-rule="evenodd" d="M214.668 213.262C214.23 213.528 213.843 214.46 213.843 214.46C213.843 214.46 214.819 214.666 215.378 214.317C216.005 213.925 216.26 213.061 216.26 213.061C216.26 213.061 215.339 212.851 214.668 213.26V213.262Z" fill="white"/>
<path fill-rule="evenodd" clip-rule="evenodd" d="M126.818 200.224C127.629 200.563 129.137 201.623 128.724 203.164C128.311 204.704 126.705 205.36 125.142 205.302C123.578 205.246 122.326 203.961 122.326 203.961L122.098 204.219C122.098 204.219 123.022 204.989 123.748 205.273C124.352 205.51 125.866 205.887 126.533 206.272C127.201 206.657 127.6 207.671 127.727 208.126C127.854 208.583 128.892 211.377 128.892 211.377C128.892 211.377 125.337 210.237 124.429 209.837C123.53 209.443 123.433 208.538 122.835 206.955C122.238 205.372 121.499 204.844 121.499 204.844L121.3 205.072C121.3 205.072 122.396 206.113 122.666 207.555C122.973 209.191 122.396 210.381 121.472 211.122C120.548 211.863 118.927 211.679 118.059 210.381C117.191 209.082 117.548 207.756 117.548 207.756C117.548 207.756 118.827 209.14 120.023 208.269C121.968 206.853 120.734 205.616 120.734 205.616C120.734 205.616 120.478 205.858 120.194 205.929C119.911 206.001 119.54 205.701 119.54 205.701C119.54 205.701 119.726 205.657 119.938 205.558C120.152 205.457 120.364 205.244 120.364 205.244C120.364 205.244 120.335 205.101 119.795 204.846C119.255 204.588 118.914 204.617 118.914 204.617C118.914 204.617 119.496 205.302 118.856 205.701C118.588 205.868 117.577 205.715 117.519 204.902C117.462 204.089 118.245 203.932 118.97 203.903C119.695 203.874 120.875 204.731 120.875 204.731L121.132 204.474C121.132 204.474 120.449 203.861 120.194 203.762C119.938 203.661 119.554 203.435 119.456 203.276C119.355 203.119 118.545 201.364 118.545 201.364C118.545 201.364 120.407 202.148 120.565 202.249C120.721 202.347 120.821 202.562 120.991 202.961C121.161 203.36 121.73 203.816 121.73 203.816L121.986 203.559C121.986 203.559 121.12 202.518 121.078 201.477C121.028 200.251 121.832 200.193 122.102 200.193C122.372 200.193 123.112 200.778 122.869 201.506C122.628 202.233 121.818 201.591 121.818 201.591C121.818 201.591 121.847 201.962 121.988 202.332C122.131 202.702 122.501 203.046 122.501 203.046C122.501 203.046 122.654 202.906 122.728 202.733C122.832 202.489 122.871 202.191 122.871 202.191C122.871 202.191 123.099 202.233 123.128 202.733C123.157 203.232 122.871 203.418 122.871 203.418C122.871 203.418 123.866 204.329 125.118 203.075C126.611 201.577 124.862 200.137 124.862 200.137C124.862 200.137 125.871 199.824 126.823 200.222L126.818 200.224Z" fill="white"/>
<path fill-rule="evenodd" clip-rule="evenodd" d="M124.486 222.181C124.766 222.831 125.303 223.243 125.624 223.35C126.222 223.55 127.215 223.579 127.842 223.178C128.469 222.78 128.695 222.379 128.695 222.379C128.695 222.379 129.119 222.452 129.349 222.408C129.7 222.342 129.861 221.922 129.861 221.922C129.861 221.922 130.694 222.599 131.339 221.951C131.883 221.406 131.339 220.639 131.339 220.639C131.339 220.639 131.813 220.53 131.908 219.954C131.993 219.441 131.652 219.099 131.652 219.099C131.652 219.099 132.202 218.489 132.25 217.671C132.297 216.853 131.567 216.282 131.397 216.186C131.227 216.093 131.028 216.043 131.028 216.043C131.028 216.043 131.492 216.946 131.056 217.499C130.619 218.051 129.948 217.908 129.549 217.499C129.152 217.09 128.866 216.519 129.179 215.331C129.491 214.142 130.6 213.934 130.6 213.934C130.6 213.934 130.743 214.247 130.828 214.532C130.913 214.818 131.159 215.198 131.482 215.36C131.803 215.522 132.774 216.045 133.187 216.701C133.661 217.453 133.69 218.023 133.642 218.441C133.595 218.859 133.613 218.784 133.613 218.784C133.613 218.784 134.473 218.79 134.95 217.729C135.339 216.863 135.008 215.646 135.008 215.646L136.885 215.617L135.945 213.934C135.945 213.934 136.839 213.765 137.623 212.906C138.249 212.221 137.88 211.108 137.88 211.108C137.88 211.108 137.122 211.964 135.804 211.793C134.486 211.621 133.946 210.861 133.359 210.824C133.097 210.807 132.864 210.875 132.676 210.909C132.44 210.951 132.278 210.965 132.278 210.965C132.278 210.965 132.103 210.701 132.136 210.253C132.161 209.897 132.336 209.401 132.705 208.997C133.539 208.085 134.486 207.98 135.037 208.37C135.585 208.76 135.83 209.201 135.235 209.881C135.037 210.11 134.267 210.28 134.267 210.28C134.267 210.28 134.982 211.004 135.974 210.65C136.723 210.384 137.139 209.224 137.139 209.224C137.139 209.224 137.736 209.327 138.05 208.939C138.362 208.549 138.277 208.169 138.277 208.169C138.277 208.169 139.249 208.339 139.386 207.369C139.5 206.57 138.619 206.228 138.619 206.228C138.619 206.228 138.789 205.819 138.733 205.543C138.677 205.267 138.362 204.972 138.362 204.972C138.362 204.972 139.103 203.622 138.077 202.262C137.053 200.902 135.042 201.206 134.495 202.518C133.889 203.973 135.519 204.858 135.519 204.858C135.519 204.858 135.319 203.946 135.575 203.545C135.832 203.147 136.173 202.946 136.684 203.346C137.195 203.745 136.827 204.6 136.03 205.2C135.234 205.8 133.557 206.597 132.902 206.884C132.248 207.17 130.656 208.424 130.429 210.079C130.201 211.734 130.429 211.819 130.429 211.819C130.429 211.819 128.267 212.731 127.813 214.414C127.358 216.098 127.501 217.24 127.728 218.494C127.784 218.807 127.747 219.31 127.728 219.636C127.674 220.612 127.394 221.362 127.159 221.575C126.847 221.859 126.164 221.803 125.965 221.404C125.767 221.006 126.05 220.549 126.363 220.321C126.675 220.092 127.101 219.922 127.101 219.922C127.101 219.922 126.4 219.557 125.68 219.637C125.34 219.673 124.96 219.83 124.713 220.179C124.185 220.926 124.245 221.617 124.486 222.176V222.181ZM131.852 212.863C131.852 212.863 132.941 212.55 133.928 213.063C134.605 213.416 135.008 214.661 135.008 214.661C135.008 214.661 133.843 215.06 132.819 214.375C132.221 213.976 131.852 212.863 131.852 212.863V212.863Z" fill="white"/>
<path fill-rule="evenodd" clip-rule="evenodd" d="M133.843 213.262C134.282 213.528 134.669 214.46 134.669 214.46C134.669 214.46 133.692 214.666 133.133 214.317C132.507 213.925 132.252 213.061 132.252 213.061C132.252 213.061 133.171 212.851 133.845 213.26L133.843 213.262Z" fill="white"/>
<path fill-rule="evenodd" clip-rule="evenodd" d="M137.223 203.317C137.223 203.317 132.53 199.349 127.129 189.479C124.099 183.941 121.942 174.715 122.153 165.857C122.408 155.198 125.974 147.064 129.944 140.923C136.411 130.916 144.416 126.4 144.416 126.4C144.416 126.4 125.64 138.384 123.517 163.376C121.344 188.961 137.677 203.003 137.677 203.003L137.222 203.317H137.223Z" fill="white"/>
<path fill-rule="evenodd" clip-rule="evenodd" d="M210.809 203.003C210.809 203.003 227.143 188.961 224.971 163.376C222.848 138.384 204.069 126.4 204.069 126.4C204.069 126.4 212.076 130.916 218.542 140.923C222.513 147.064 226.081 155.198 226.335 165.857C226.545 174.715 224.39 183.943 221.358 189.479C215.955 199.349 211.264 203.317 211.264 203.317L210.807 203.003H210.809Z" fill="white"/>
<path fill-rule="evenodd" clip-rule="evenodd" d="M125.624 220.374C112.113 207.406 103.697 189.136 103.697 168.893C103.697 129.55 135.487 97.6547 174.7 97.6547C213.914 97.6547 245.703 129.549 245.703 168.893C245.703 189.438 237.035 207.949 223.169 220.951C223.324 221.134 223.478 221.318 223.631 221.504C237.652 208.37 246.419 189.661 246.419 168.893C246.419 129.152 214.31 96.9355 174.7 96.9355C135.09 96.9355 102.98 129.152 102.98 168.893C102.98 189.436 111.559 207.966 125.319 221.078C125.429 221.183 125.786 220.531 125.623 220.374H125.624Z" fill="white"/>
<path fill-rule="evenodd" clip-rule="evenodd" d="M124.976 222.234C125.125 222.042 125.276 221.851 125.431 221.66C111.4 208.467 102.632 189.708 102.632 168.891C102.632 128.957 134.898 96.5843 174.7 96.5843C214.502 96.5843 246.767 128.957 246.767 168.891C246.767 189.766 237.951 208.574 223.85 221.773C223.952 221.9 223.551 222.649 223.651 222.776C223.701 222.841 224.256 222.284 224.303 222.347C238.571 209.012 247.496 189.996 247.496 168.891C247.496 128.555 214.904 95.855 174.7 95.855C134.495 95.855 101.905 128.555 101.905 168.891C101.905 189.938 110.778 208.905 124.976 222.234V222.234Z" fill="white"/>
<path d="M164.706 201.122H164.227H164.706C166.019 201.124 167.025 201.391 167.719 201.94C168.489 202.543 168.986 203.337 169.204 204.319C169.272 204.634 169.307 204.967 169.307 205.314C169.307 205.791 169.24 206.239 169.097 206.657C168.905 207.224 168.579 207.725 168.122 208.162C167.662 208.598 167.132 208.903 166.536 209.079C166.092 209.206 165.472 209.273 164.666 209.273H164.27H164.666H164.27C163.463 209.273 162.841 209.208 162.4 209.079C161.802 208.903 161.272 208.6 160.813 208.162C160.357 207.727 160.029 207.224 159.839 206.657C159.696 206.239 159.628 205.793 159.628 205.314C159.628 204.967 159.662 204.633 159.732 204.319C159.949 203.339 160.447 202.545 161.216 201.94C161.911 201.391 162.916 201.124 164.229 201.122H164.708H164.706Z" fill="white"/>
<path d="M164.467 202.317H164.699C165.698 202.317 166.422 202.504 166.867 202.87C167.573 203.457 167.921 204.227 167.921 205.202C167.921 205.708 167.83 206.153 167.646 206.548C167.464 206.942 167.188 207.276 166.819 207.548C166.345 207.896 165.625 208.075 164.659 208.075H164.276H164.659H164.276C163.31 208.075 162.59 207.896 162.116 207.548C161.747 207.277 161.471 206.942 161.289 206.548C161.105 206.151 161.014 205.706 161.014 205.202C161.015 204.225 161.364 203.455 162.068 202.87C162.513 202.502 163.237 202.317 164.236 202.317H164.467V202.317Z" fill="#00904F"/>
<path d="M203.652 208.954L203.671 201.613L203.645 201.521C203.637 201.509 203.608 201.482 203.569 201.461L203.348 201.318L203.324 201.303V201.143H205.782V201.303L205.549 201.46C205.51 201.487 205.485 201.514 205.476 201.533L205.461 208.849L205.493 208.964C205.508 208.985 205.531 209.01 205.554 209.027L205.765 209.172L205.787 209.188V209.346H203.329V209.188L203.57 209.029C203.62 209 203.647 208.973 203.652 208.958V208.954Z" fill="white"/>
<path d="M199.408 205.936L199.42 201.533C199.429 201.516 199.454 201.487 199.492 201.459L199.726 201.303V201.141H197.268V201.303L197.292 201.318L197.511 201.463C197.55 201.483 197.577 201.509 197.586 201.522L197.611 201.614L197.589 208.925C197.583 208.94 197.555 208.968 197.508 208.997L197.267 209.155V209.313H199.724V209.155L199.702 209.14L199.492 208.995C199.468 208.978 199.444 208.952 199.43 208.932L199.398 208.816L199.402 207.938C200.407 206.894 201.796 205.489 202.792 204.397V204.559H203.169V201.848L199.407 205.934L199.408 205.936Z" fill="white"/>
<path d="M146.683 209.087V209.27H144.359V209.087L144.639 208.82L144.634 201.642L144.621 201.536L144.554 201.458L144.347 201.301L144.325 201.284V201.098L146.355 201.11L150.114 201.097L151.151 202.777L150.993 202.842L150.973 202.85L150.654 202.608C150.584 202.559 150.531 202.526 150.494 202.513C150.46 202.499 150.409 202.491 150.345 202.491L146.333 202.468L146.375 208.818L146.681 209.085L146.683 209.087Z" fill="white"/>
<path d="M177.909 208.912L177.89 201.598L177.911 201.505C177.918 201.492 177.941 201.466 177.974 201.446L178.157 201.303L178.178 201.286V201.125H176.131V201.286L176.324 201.442C176.357 201.471 176.379 201.499 176.386 201.516L176.401 208.802L176.375 208.918C176.364 208.939 176.345 208.964 176.324 208.981L176.15 209.126L176.131 209.142V209.3H178.178V209.14L177.977 208.981C177.936 208.952 177.914 208.925 177.909 208.91V208.912Z" fill="white"/>
<path d="M182.92 209.142V209.3H184.972V209.142L184.724 208.91L184.698 201.598L184.71 201.507L184.77 201.439L184.951 201.303L184.972 201.287V201.125H182.92V201.286L183.121 201.444C183.187 201.497 183.209 201.541 183.209 201.596V204.079H178.862L177.945 205.539L178.085 205.595L178.102 205.602L178.384 205.393C178.445 205.35 178.492 205.321 178.524 205.311C178.555 205.299 178.599 205.29 178.657 205.29H183.209L183.188 208.906L182.92 209.14V209.142Z" fill="white"/>
<path d="M196.383 208.92L196.365 201.608L196.387 201.516C196.393 201.504 196.417 201.477 196.448 201.456L196.633 201.311L196.653 201.296V201.136H194.608V201.296L194.802 201.453C194.834 201.48 194.855 201.509 194.861 201.526L194.878 208.813L194.853 208.929C194.841 208.949 194.822 208.975 194.8 208.992L194.625 209.136L194.608 209.152V209.31H196.653V209.152L196.453 208.993C196.412 208.963 196.39 208.935 196.383 208.922V208.92Z" fill="white"/>
<path fill-rule="evenodd" clip-rule="evenodd" d="M186.296 209.039L186.027 209.172V209.305L187.114 209.303L190.381 209.3C191.177 209.3 192.103 209.215 192.792 208.84C193.319 208.554 193.726 208.17 193.946 207.668L193.956 207.671L194.014 207.485C194.015 207.482 194.015 207.48 194.017 207.477L194.073 207.303L194.063 207.299C194.09 207.168 194.105 207.034 194.105 206.899C194.105 206.63 194.047 206.366 193.927 206.117C193.754 205.762 193.465 205.476 193.115 205.246C192.729 204.992 192.291 204.823 191.824 204.73C191.527 204.67 191.211 204.643 190.902 204.633L188.626 204.653C188.601 204.677 188.577 204.701 188.558 204.726C188.541 204.752 188.531 204.779 188.529 204.813C188.531 205.072 188.531 205.37 188.533 205.635C189.137 205.635 189.742 205.636 190.345 205.636C190.822 205.636 191.461 205.675 191.879 205.887C192.101 206.001 192.298 206.149 192.429 206.345C192.556 206.534 192.609 206.741 192.609 206.959C192.609 207.434 192.351 207.772 191.904 208.027C191.512 208.252 190.836 208.288 190.375 208.288H188.582L187.13 208.291L186.719 208.293L186.292 208.295L186.296 209.038V209.039Z" fill="white"/>
<path d="M188.108 201.458L188.092 207.47L188.113 207.545C188.12 207.555 188.143 207.577 188.177 207.594L188.366 207.712L188.386 207.724V207.857H186.295V207.724L186.492 207.594C186.526 207.572 186.547 207.55 186.555 207.535L186.569 201.543L186.543 201.448C186.531 201.431 186.511 201.41 186.491 201.395L186.311 201.277L186.292 201.265V201.136H188.381V201.265L188.177 201.395C188.137 201.419 188.113 201.441 188.108 201.454V201.458Z" fill="white"/>
<path fill-rule="evenodd" clip-rule="evenodd" d="M151.646 201.373L151.376 201.24V201.105L152.463 201.107L155.726 201.11C156.521 201.11 157.448 201.195 158.136 201.57C158.662 201.856 159.07 202.24 159.289 202.743L159.301 202.739L159.359 202.925C159.36 202.928 159.36 202.93 159.362 202.933L159.418 203.107L159.408 203.111C159.435 203.242 159.449 203.377 159.449 203.511C159.449 203.78 159.393 204.045 159.27 204.293C159.097 204.646 158.807 204.934 158.459 205.164C158.073 205.418 157.635 205.587 157.166 205.68C156.869 205.742 156.553 205.766 156.244 205.778L153.968 205.757C153.942 205.732 153.919 205.709 153.9 205.684C153.883 205.66 153.873 205.633 153.871 205.599C153.873 205.34 153.873 205.041 153.873 204.777C154.477 204.777 155.082 204.776 155.687 204.776C156.162 204.776 156.803 204.736 157.22 204.523C157.443 204.409 157.64 204.261 157.771 204.065C157.898 203.876 157.951 203.67 157.951 203.452C157.951 202.976 157.694 202.639 157.246 202.381C156.854 202.156 156.178 202.121 155.717 202.121H153.924L152.475 202.117L152.062 202.116L151.638 202.114L151.641 201.369L151.646 201.373Z" fill="white"/>
<path d="M153.451 208.956L153.436 202.944L153.458 202.869C153.465 202.859 153.489 202.836 153.523 202.819L153.71 202.702L153.73 202.69V202.559H151.639V202.69L151.836 202.819C151.868 202.841 151.891 202.865 151.897 202.879L151.911 208.871L151.885 208.966C151.874 208.983 151.853 209.004 151.833 209.019L151.654 209.136L151.636 209.148V209.278H153.727V209.147L153.523 209.017C153.482 208.992 153.458 208.969 153.453 208.957L153.451 208.956Z" fill="white"/>
<path fill-rule="evenodd" clip-rule="evenodd" d="M169.985 201.095L169.604 201.097V202.511H169.766L169.923 202.358C169.951 202.332 169.98 202.317 169.997 202.312L170.866 202.283L171.27 202.284H172.665C173.001 202.284 173.511 202.317 173.793 202.516C174.124 202.75 174.295 203.046 174.295 203.457C174.295 203.646 174.26 203.828 174.168 203.995C174.078 204.164 173.937 204.295 173.777 204.398C173.572 204.527 173.285 204.585 173.011 204.607L171.593 204.622C171.472 204.622 171.352 204.622 171.23 204.622H171.124V204.728C171.124 204.771 171.124 204.812 171.123 204.866C171.123 205.052 171.123 205.221 171.123 205.389C171.123 205.432 171.123 205.475 171.123 205.519C171.123 205.578 171.123 205.626 171.123 205.674V205.78H171.23C171.35 205.78 171.471 205.78 171.591 205.78L173.011 205.797C173.285 205.82 173.572 205.877 173.776 206.006C173.937 206.108 174.076 206.238 174.168 206.407C174.258 206.575 174.295 206.756 174.295 206.945C174.295 207.356 174.122 207.652 173.793 207.888C173.511 208.087 173.001 208.119 172.665 208.119H171.27L170.039 208.123C170.003 208.123 170.183 208.123 170.148 208.123L169.711 208.116L169.618 208.099C169.606 208.094 169.58 208.075 169.558 208.049L169.405 207.898L169.237 207.891V209.31L169.645 209.312C169.728 209.312 169.312 209.312 169.395 209.312L170.346 209.31L172.668 209.309C173.319 209.307 174.051 209.22 174.603 208.849C175.321 208.365 175.669 207.702 175.669 206.894C175.669 206.623 175.624 206.356 175.525 206.102C175.386 205.749 175.153 205.457 174.851 205.212C175.153 204.948 175.387 204.655 175.527 204.304C175.627 204.052 175.673 203.782 175.673 203.511C175.673 202.675 175.301 202.025 174.606 201.557C174.054 201.185 173.322 201.098 172.673 201.097L170.352 201.093H169.711C169.619 201.093 170.08 201.093 169.988 201.093L169.985 201.095Z" fill="white"/>
<path d="M201.83 201.654L202.609 200.867L203.027 200.717L203.076 200.544L200.648 200.565L200.605 200.717L200.89 200.877L200.192 201.649L201.83 201.654Z" fill="white"/>
<path d="M169.967 76.8338L174.16 72.6638L181.182 79.6694L181.207 79.7392C181.2 79.8142 181.039 79.9403 180.468 79.9437H180.348V80.334H186.849L181.224 74.7241C181.126 74.6252 181.632 75.1126 181.53 75.0138L178.267 71.9123L176.597 70.2321L184.405 62.4443H177.905V62.8346H178.026C178.597 62.8363 178.758 62.9641 178.765 63.0374L178.698 63.2265C178.671 63.293 178.653 63.3032 178.603 63.3305L174.16 67.785L169.717 63.3305C169.668 63.3032 169.649 63.293 169.622 63.2265L169.556 63.0374C169.562 62.9641 169.724 62.8363 170.294 62.8346H170.415V62.4443H163.915L171.723 70.2321L170.053 71.9123L167.779 74.0288L169.967 76.8338V76.8338ZM169.537 68.0525L169.235 67.7645L166.357 64.8676L169.235 67.7645L169.537 68.0525ZM181.53 75.0138L178.267 71.9123L176.597 70.2321L184.405 62.4443H177.905V62.8346H178.026C178.597 62.8363 178.758 62.9641 178.765 63.0374L178.698 63.2265C178.671 63.293 178.653 63.3032 178.603 63.3305L174.16 67.785L169.717 63.3305C169.668 63.3032 169.649 63.293 169.622 63.2265L169.556 63.0374C169.562 62.9641 169.724 62.8363 170.294 62.8346H170.415V62.4443H163.915L171.723 70.2321L170.053 71.9123L167.436 74.3492L169.632 77.1661L174.16 72.6638L181.182 79.6694L181.207 79.7392C181.2 79.8142 181.039 79.9403 180.468 79.9437H180.348V80.334H186.849L181.224 74.7241C181.126 74.6252 181.632 75.1126 181.53 75.0138V75.0138Z" fill="white"/>
<path d="M148.773 79.9421C148.575 79.8961 148.5 79.8296 148.481 79.7665L157.199 68.3525L155.338 65.8628L144.312 80.3579H149.115V79.9676H149.026C148.926 79.9676 148.835 79.9574 148.773 79.9421Z" fill="white"/>
<path d="M155.99 65.0037L158.142 67.8785L160.583 70.9578L156.546 70.9612L154.55 73.7116L154.798 73.8735L154.839 73.9025L155.312 73.589C155.37 73.5515 155.428 73.5293 155.469 73.5225C155.515 73.5106 155.73 73.5089 156.08 73.5106H162.495L166.981 79.4749C167.018 79.5039 167.032 79.5141 167.052 79.5789L167.101 79.7663C167.096 79.8396 166.976 79.9674 166.548 79.9674H166.458V80.3576H171.322L157.864 62.5464L155.99 65.0037V65.0037Z" fill="white"/>
<path d="M224.033 65.6021L224.334 65.7299L224.368 65.7452L224.983 65.3533C225.19 65.188 225.383 65.1079 225.582 65.1079H233.996V79.2707L233.942 79.5075C233.905 79.5638 233.852 79.62 233.823 79.6387L233.429 79.9608L233.388 79.9932V80.3391H237.864V79.9898L237.407 79.6422L237.263 79.4769C237.271 79.482 237.259 79.3934 237.259 79.2707V65.1079H244.743C245.058 65.1539 245.152 65.263 245.143 65.3533V65.7367H245.424L247.571 62.458H226.031L224.033 65.6021V65.6021Z" fill="white"/>
<path fill-rule="evenodd" clip-rule="evenodd" d="M192.645 69.378V69.7342H191.957V63.8022L198.902 73.1168L206.173 63.3643V69.1446H205.502V68.7986L198.865 77.4947C197.069 75.2009 194.826 72.258 192.645 69.3797V69.378Z" fill="white"/>
<path d="M191.165 79.4868L191.126 63.4904L191.172 63.2894C191.187 63.2604 191.238 63.2042 191.31 63.1581L191.712 62.8429L191.755 62.8088V62.4561H187.277V62.8088L187.702 63.153C187.772 63.2144 187.817 63.274 187.834 63.3132L187.87 79.2517L187.814 79.5056C187.789 79.5499 187.744 79.6061 187.702 79.6436L187.318 79.9589L187.279 79.9912V80.3372H191.756V79.9895L191.318 79.6419C191.23 79.5771 191.179 79.5175 191.167 79.4851L191.165 79.4868Z" fill="white"/>
<path d="M210.122 79.9043C209.923 79.8566 209.847 79.7902 209.83 79.7271L218.575 68.279L216.709 65.7808L205.646 80.3235H210.463V79.9333H210.377C210.275 79.9333 210.183 79.9214 210.122 79.9077V79.9043Z" fill="white"/>
<path d="M217.363 64.9185L219.522 67.8018L221.969 70.8913L217.92 70.8947L215.921 73.652L216.167 73.8156L216.21 73.8445L216.684 73.5293C216.743 73.4918 216.799 73.4679 216.84 73.4628C216.887 73.4509 217.103 73.4492 217.453 73.4509H223.888L228.388 79.434C228.425 79.4613 228.439 79.4732 228.459 79.5379L228.508 79.7254C228.505 79.8004 228.383 79.9282 227.953 79.9282H227.863V80.3184H232.741L219.24 62.4526L217.361 64.9185H217.363Z" fill="white"/>
<path d="M210.159 73.6676L210.156 63.3357L210.181 63.1346L210.31 62.9863L210.709 62.6898L210.752 62.6574V62.3047H206.263V62.654L206.703 63C206.849 63.1141 206.896 63.2113 206.898 63.3306C206.898 65.977 206.872 77.996 206.878 77.9909C210.004 73.867 209.473 74.6202 210.157 73.6659L210.159 73.6676Z" fill="white"/>
<path d="M123.705 69.1073L123.691 63.281C123.674 63.2418 123.63 63.1822 123.559 63.1208L123.134 62.7766V62.4238H127.613V62.7766L127.571 62.8107L127.168 63.1259C127.098 63.1719 127.047 63.2299 127.03 63.2571L126.985 63.4582L126.974 78.4816C126.974 78.5173 126.974 78.335 126.974 78.3708V79.2961L127.02 79.4972C127.037 79.5245 127.088 79.5824 127.158 79.6284L127.56 79.9437L127.603 79.9795V80.3305H123.124V79.9795L123.549 79.6352C123.62 79.5756 123.666 79.5142 123.681 79.475L123.705 68.5518C123.705 68.366 123.705 69.2948 123.705 69.109V69.1073Z" fill="white"/>
<path fill-rule="evenodd" clip-rule="evenodd" d="M127.5 70.1264L127.502 69.15L132.485 63.3083H132.204V62.4443H136.929L129.51 71.1761L137.279 80.3186H132.674V79.4751H132.951L127.499 73.0881L127.497 70.1315L127.5 70.1264Z" fill="white"/>
<path d="M109.708 73.8173L109.696 79.3829C109.679 79.4238 109.633 79.4885 109.564 79.5516L109.139 79.9163V80.2895H113.618V79.9163L113.575 79.8788L113.173 79.5448C113.103 79.4953 113.052 79.4357 113.035 79.4067L112.989 79.1937L112.981 67.5854L112.983 63.7648L113.028 63.5109C113.045 63.4751 113.095 63.4035 113.166 63.3456L113.569 62.9451L113.611 62.9025V62.4561H109.132V62.9025L109.557 63.3371C109.628 63.4138 109.674 63.4904 109.689 63.5399L109.706 74.5296L109.705 72.1575C109.705 71.6054 109.706 73.2635 109.706 73.8156L109.708 73.8173ZM114.669 64.2198H113.494H114.669ZM109.693 64.1704L109.694 66.4709L109.693 64.1704V64.1704ZM108.049 64.2215L109.266 64.213V66.4436L106.88 66.4454C106.134 66.4454 105.039 66.5237 104.402 67.0179C103.675 67.582 103.261 68.3233 103.261 69.3662C103.261 69.8467 103.346 70.2966 103.551 70.7124C103.763 71.1419 104.083 71.469 104.444 71.7178C105.122 72.1848 106.158 72.2717 106.929 72.2717C107.887 72.27 108.324 72.287 109.265 72.2887V74.4342C107.709 74.4614 106.014 74.6642 104.533 74.2604C103.774 74.0542 103.064 73.6827 102.44 73.1271C101.873 72.621 101.404 71.9922 101.124 71.2134C100.927 70.6681 100.837 70.087 100.837 69.494C100.837 69.1992 100.857 68.9044 100.895 68.6113L100.98 68.2193L101.087 67.8035C101.45 66.7027 102.112 65.8591 102.965 65.2303C104.081 64.409 105.582 64.2215 106.873 64.2215L109.27 64.2198L108.052 64.2215H108.049ZM113.496 66.4454L115.839 66.4471C116.585 66.4471 117.681 66.5254 118.318 67.0179C119.043 67.5837 119.459 68.3233 119.459 69.3679C119.459 69.8484 119.372 70.2983 119.168 70.7141C118.956 71.1436 118.637 71.4707 118.275 71.7195C117.597 72.1865 116.561 72.2717 115.79 72.2717C114.81 72.2717 114.474 72.2802 113.496 72.2819C113.494 72.8647 113.494 73.5191 113.492 74.0865L113.496 74.4274C115.067 74.4495 116.689 74.671 118.187 74.2604C118.946 74.0525 119.656 73.6827 120.279 73.1254C120.847 72.621 121.315 71.9905 121.596 71.2134C121.793 70.6664 121.883 70.087 121.883 69.494C121.883 69.1992 121.862 68.9044 121.825 68.6113L121.74 68.2176L121.633 67.8035C121.269 66.7027 120.607 65.8591 119.754 65.2303C118.639 64.4073 117.137 64.2215 115.846 64.2198L113.492 64.2164V66.4436L113.496 66.4454Z" fill="white"/>
<path d="M168.57 211.713V217.193H169.647V211.284C169.647 211.166 169.591 211.06 169.48 210.965C169.37 210.869 169.244 210.822 169.108 210.822H168.57V211.715V211.713ZM168.324 210.82H168.021V211.633H168.324V210.82ZM172.85 211.633H173.956V211.282C173.956 211.164 173.895 211.059 173.771 210.963C173.647 210.868 173.484 210.82 173.278 210.82H170.844C170.647 210.82 170.506 210.868 170.427 210.963C170.345 211.059 170.306 211.164 170.306 211.282V213.831C170.306 214.007 170.347 214.128 170.427 214.194C170.506 214.261 170.647 214.293 170.844 214.293H172.869V216.389H171.629V217.193H173.278C173.484 217.193 173.647 217.161 173.771 217.095C173.895 217.028 173.956 216.907 173.956 216.732V211.88H172.869V213.601H171.383V211.633H172.869C172.874 211.633 172.843 211.633 172.849 211.633H172.85ZM171.383 216.331V215.225H170.304V216.73C170.304 216.905 170.36 217.026 170.472 217.093C170.583 217.159 170.708 217.192 170.844 217.192H171.381L171.383 216.331V216.331ZM177.159 216.387V213.95H174.595L174.688 211.878H175.799L175.683 213.129H177.579C177.776 213.129 177.937 213.165 178.061 213.236C178.185 213.308 178.246 213.429 178.246 213.599V216.73C178.246 216.905 178.185 217.026 178.061 217.093C177.937 217.159 177.776 217.192 177.579 217.192H177.161V216.27C177.161 216.231 177.161 216.427 177.161 216.387H177.159ZM175.821 211.631H177.845L178.245 210.818H174.734L174.698 211.631H175.913C175.943 211.631 175.79 211.631 175.821 211.631V211.631ZM176.911 216.387H175.682V215.113H174.595V216.73C174.595 216.905 174.657 217.026 174.781 217.093C174.905 217.159 175.07 217.192 175.274 217.192H176.913V216.387H176.911ZM179.916 216.387V214.181H181.402V216.387H180.164V217.192H181.942C182.141 217.192 182.278 217.159 182.36 217.093C182.441 217.026 182.482 216.905 182.482 216.73V213.829C182.482 213.804 182.467 213.77 182.435 213.731C182.404 213.691 182.372 213.652 182.341 213.615C182.304 213.572 182.26 213.53 182.21 213.487C182.26 213.417 182.304 213.354 182.341 213.296C182.372 213.243 182.402 213.189 182.435 213.138C182.467 213.085 182.482 213.044 182.482 213.018V211.878H181.404V213.368H180.048V211.631H182.482V211.28C182.482 211.163 182.426 211.057 182.316 210.962C182.204 210.866 182.08 210.818 181.944 210.818H179.52C179.309 210.818 179.165 210.866 179.089 210.962C179.011 211.057 178.973 211.163 178.973 211.28V213.017C178.973 213.042 178.987 213.083 179.014 213.136C179.043 213.189 179.072 213.242 179.102 213.294C179.14 213.352 179.185 213.417 179.242 213.485C179.167 213.528 179.099 213.57 179.038 213.613C178.988 213.651 178.943 213.688 178.898 213.729C178.854 213.77 178.834 213.802 178.834 213.828V216.728C178.834 216.904 178.895 217.025 179.019 217.091C179.143 217.158 179.309 217.19 179.52 217.19H179.919V216.34C179.919 216.323 179.919 216.401 179.919 216.386L179.916 216.387Z" fill="white"/>
</svg>
