<svg width="350" height="350" viewBox="0 0 350 350" fill="none" xmlns="http://www.w3.org/2000/svg">
<path d="M189.889 52.9428C189.158 52.9428 188.434 52.7188 187.817 52.2742C186.576 51.3781 186.056 49.7823 186.528 48.3278L191.415 33.2387L178.643 23.902C177.412 22.999 176.899 21.4101 177.374 19.9591C177.846 18.5081 179.204 17.5258 180.728 17.5258H196.485L201.345 2.45051C201.817 0.992613 203.172 0.00344657 204.705 0.00344657C206.239 0.00344657 207.593 0.992613 208.059 2.45051L212.922 17.5258H228.669C230.199 17.5258 231.554 18.5081 232.026 19.9557C232.501 21.4101 231.988 22.999 230.758 23.902L217.995 33.2387L222.889 48.3244C223.365 49.7788 222.844 51.3746 221.604 52.2707C220.987 52.7188 220.263 52.9428 219.532 52.9428C218.805 52.9428 218.071 52.7188 217.454 52.2638L204.702 42.965L191.963 52.2638C191.343 52.7188 190.612 52.9428 189.882 52.9428H189.889ZM131.332 52.9428C130.608 52.9428 129.878 52.7188 129.261 52.2707C128.023 51.3746 127.506 49.7788 127.975 48.3244L132.869 33.2353L120.107 23.8985C118.876 22.9955 118.363 21.4067 118.838 19.9522C119.311 18.5012 120.665 17.5224 122.192 17.5224H137.939L142.809 2.44707C143.274 0.989166 144.632 0 146.162 0C147.696 0 149.051 0.989166 149.523 2.44707L154.386 17.5224H170.14C171.667 17.5224 173.018 18.5046 173.493 19.9557C173.966 21.4101 173.456 22.999 172.218 23.8985L159.445 33.2387L164.333 48.3244C164.805 49.7788 164.284 51.3712 163.044 52.2707C162.427 52.7188 161.699 52.9394 160.972 52.9394C160.242 52.9394 159.514 52.7119 158.891 52.2604L146.156 42.965L133.403 52.2638C132.78 52.7188 132.052 52.9428 131.322 52.9428H131.332ZM171.036 102.766C175.368 102.97 179.673 103.397 183.895 104.049C184.819 92.3681 183.319 90.0003 182.275 89.6798C182.096 89.6247 181.913 89.6005 181.727 89.6005C179.387 89.6005 174.848 93.7226 171.036 102.766ZM165.915 124.828C165.832 126.086 165.784 127.341 165.773 128.585C165.763 129.153 165.753 129.688 165.763 130.222C165.79 131.976 165.884 133.706 166.039 135.395C166.463 135.047 166.876 134.699 167.279 134.351C170.485 131.556 173.204 128.643 175.489 125.535C174.6 125.404 173.717 125.29 172.839 125.19C170.778 124.949 168.675 124.825 166.576 124.825C166.359 124.825 166.135 124.825 165.915 124.831V124.828ZM168.331 269.591C171.429 270.129 174.31 270.391 177.05 270.391C180.693 270.391 184.112 269.905 187.218 268.946C222.693 257.821 230.868 226.616 231.474 202.397C232.384 166.852 219.005 141.485 193.735 130.601C189.692 136.643 184.781 142.767 179.111 148.844C176.899 151.184 174.607 153.486 172.277 155.706C178.353 165.67 188.593 171.963 202.761 174.441C203.74 174.61 204.605 175.189 205.136 176.03C205.667 176.871 205.822 177.898 205.553 178.86C193.652 221.87 182.048 250.232 168.327 269.594L168.331 269.591ZM114.94 275.767C115.319 279.276 117.026 279.72 120.131 280.227C120.582 280.299 121.013 280.375 121.389 280.451C122.499 280.43 123.612 280.317 124.711 280.106C127.465 279.607 130.053 278.521 132.473 276.863C128.571 274.854 124.287 272.879 122.175 272.879V269.346L122.082 272.879C116.681 273.11 115.361 274.737 114.937 275.767H114.94ZM119.255 299.997C108.775 299.997 99.1105 296.047 93.403 289.433C89.0259 284.359 87.2441 278.042 88.2608 271.163C90.084 258.755 101.902 253.099 112.111 253.099C112.573 253.099 113.031 253.113 113.476 253.137C121.113 253.282 130.498 256.925 140.434 260.781C141.534 261.209 142.647 261.64 143.771 262.07C145.766 257.514 147.2 252.424 147.882 247.436C151.522 220.222 152.125 200.821 150.033 178.25C149.905 176.785 149.774 175.337 149.64 173.886C143.777 177.764 138.098 180.9 132.993 183.072C132.549 183.265 132.08 183.354 131.611 183.354C130.936 183.354 130.26 183.161 129.674 182.782C128.692 182.134 128.089 181.042 128.082 179.859L127.892 159.466C127.879 158.125 128.623 156.895 129.819 156.288C131.925 155.213 134.027 154.162 136.102 153.121C139.897 151.218 143.519 149.405 147.031 147.544C146.586 143.243 146.131 138.804 145.635 134.168C145.563 133.362 145.48 132.628 145.397 131.883L145.301 130.973C145.253 130.48 145.208 129.981 145.17 129.464C129.436 136.715 119.807 151.263 119.724 168.427C119.7 172.842 120.4 178.836 123.877 182.334C126.052 184.519 129.095 185.581 133.186 185.581C134.217 185.581 135.327 185.508 136.474 185.367C136.619 185.35 136.76 185.343 136.905 185.343C137.805 185.343 138.68 185.688 139.342 186.322C140.103 187.049 140.503 188.086 140.421 189.141C139.214 204.957 126.062 216.438 109.143 216.438C103.033 216.438 96.6565 215.011 90.184 212.205C89.8738 212.071 89.5808 211.885 89.3189 211.668C76.2255 200.642 71.7657 182.282 77.3767 162.558C83.8561 139.807 105.931 111.183 146.959 104.18C152.356 76.5139 166.614 60.0565 185.387 60.0048C199.88 60.8423 207.397 76.9757 207.442 92.4819C207.473 97.7413 206.501 103.342 204.557 109.17C246.329 123.629 274.153 159.287 275.807 200.952C277.486 255.157 241.283 297.305 191.591 299.021C191.098 299.042 190.599 299.052 190.099 299.052C177.078 299.052 163.206 293.038 152.149 287.396C145.322 292.972 137.987 296.736 130.322 298.611C127.686 299.249 125.001 299.676 122.337 299.883C121.316 299.966 120.289 300 119.259 300L119.255 299.997Z" fill="white"/>
<path d="M146.167 3.53015L151.823 21.0491H170.145L155.311 31.8954L160.981 49.4109L146.167 38.5921L131.334 49.4109L137.013 31.8954L122.193 21.0491H140.515L146.167 3.53015Z" fill="#AF9C68"/>
<path d="M204.707 3.53015L210.359 21.0491H228.674L213.857 31.8954L219.537 49.4109L204.707 38.5921L189.887 49.4109L195.56 31.8954L180.729 21.0491H199.054L204.707 3.53015Z" fill="#AF9C68"/>
<path fill-rule="evenodd" clip-rule="evenodd" d="M235.012 202.48C234.167 236.084 219.854 262.409 188.267 272.314C180.016 274.858 171.113 274.11 162.218 271.894C179.716 249.57 192.013 214.591 202.16 177.913C184.096 174.759 173.543 166.005 167.849 155.02C170.817 152.28 173.729 149.403 176.535 146.432C182.473 140.069 187.939 133.238 192.371 126.235C222.18 137.543 235.932 166.318 235.015 202.48H235.012ZM162.245 128.551C162.266 126.155 162.418 123.76 162.683 121.42C166.116 121.192 169.673 121.258 173.236 121.678C176.038 121.992 178.747 122.454 181.363 123.009C178.192 128.465 174.181 133.021 169.59 137.019C167.629 138.715 165.557 140.31 163.393 141.83C162.662 138.036 162.304 134.169 162.235 130.278C162.225 129.705 162.235 129.126 162.245 128.551V128.551ZM183.314 86.3061C187.66 87.64 188.546 94.0058 187.057 108.168C180.264 106.893 173.216 106.21 165.992 106.165C170.272 93.3199 177.393 84.4898 183.314 86.3096V86.3061ZM125.364 283.574C123.968 283.84 122.521 283.984 121.011 283.984C118.305 283.281 111.867 283.709 111.368 275.354C112.598 270.846 117.127 269.557 121.955 269.35C125.426 269.219 131.357 272.2 138.719 276.181C135.076 279.897 130.637 282.613 125.364 283.574V283.574ZM272.279 201.091C270.621 159.356 241.188 124.232 199.999 111.383C202.504 105.014 203.945 98.638 203.914 92.4893C203.869 77.7724 196.979 64.2033 185.392 63.5312C163.972 63.5898 153.543 86.5198 149.979 107.272C86.1356 116.619 60.807 183.034 91.588 208.966C116.42 219.744 135.524 206.881 136.899 188.869C121.318 190.782 116.117 180.97 116.193 168.41C116.289 147.224 129.889 130.808 148.497 124.325C148.518 126.603 148.618 128.706 148.811 130.601C148.921 131.673 149.048 132.725 149.142 133.79C149.731 139.283 150.265 144.502 150.782 149.534C144.633 152.877 138.085 156.037 131.419 159.432L131.616 179.829C137.985 177.116 145.209 172.884 152.588 167.566C152.912 171.033 153.26 174.469 153.55 177.926C155.538 199.371 155.29 218.717 151.385 247.912C150.579 253.861 148.662 260.544 145.564 266.534C133.339 261.937 121.962 256.832 113.298 256.663C105.119 256.239 93.4422 260.241 91.7568 271.683C89.2719 288.517 106.491 297.584 122.066 296.364C124.606 296.168 127.084 295.765 129.486 295.182C137.637 293.194 144.985 289.037 151.675 283.178C164.158 289.695 178.506 295.965 191.472 295.499C240.02 293.821 273.868 252.417 272.283 201.098L272.279 201.091Z" fill="#1D4E9B"/>
</svg>
